<svg width="214" height="78" viewBox="0 0 214 78" fill="none" xmlns="http://www.w3.org/2000/svg">
<g filter="url(#filter0_d_222_2284)">
<rect width="206" height="70" rx="35" fill="white" shape-rendering="crispEdges"/>
<rect x="0.5" y="0.5" width="205" height="69" rx="34.5" stroke="black" shape-rendering="crispEdges"/>
<path d="M53.1 21.63H58.74C59.25 21.63 59.49 21.87 59.49 22.38V24.18C59.49 24.69 59.25 24.93 58.74 24.93H52.44C52.77 28.05 55.44 30.27 59.19 30.27C59.73 30.27 59.94 30.48 59.94 30.96V32.82C59.94 33.57 59.46 33.57 58.86 33.57C55.32 33.57 51.96 31.62 50.7 28.74C49.41 31.62 46.05 33.57 42.51 33.57C41.91 33.57 41.43 33.57 41.43 32.82V30.96C41.43 30.48 41.64 30.27 42.18 30.27C45.93 30.27 48.6 28.05 48.93 24.93H42.63C42.12 24.93 41.88 24.69 41.88 24.18V22.38C41.88 21.87 42.12 21.63 42.63 21.63H49.5C49.17 21.45 48.99 21.09 48.99 20.58V19.62C48.99 19.11 49.23 18.87 49.74 18.87H51.69C52.2 18.87 52.44 19.11 52.44 19.62V21.06C52.44 21.45 52.65 21.63 53.1 21.63ZM53.34 39.63C52.62 39.63 52.29 39.9 52.29 40.56V45.09C52.29 45.6 51.99 45.9 51.51 45.9H49.62C49.14 45.9 48.84 45.6 48.84 45.09V40.95C48.84 40.35 49.14 39.84 49.62 39.66C46.29 39.63 42.18 39.42 39.99 39.15C39.45 39.09 39.24 38.79 39.24 38.31V36.66C39.24 36.15 39.54 35.91 40.05 35.97C42.9 36.3 46.35 36.48 50.52 36.48C54.81 36.48 58.74 36.3 61.08 36C61.59 35.94 61.89 36.18 61.89 36.69V38.34C61.89 38.85 61.68 39.09 61.14 39.18C59.1 39.45 55.92 39.63 53.34 39.63ZM66.0935 44.07C65.5535 43.98 65.3435 43.74 65.3435 43.26V41.61C65.3435 41.1 65.6435 40.83 66.1535 40.89C68.3135 41.13 72.3635 41.4 75.6935 41.46C75.2435 41.25 74.9435 40.77 74.9435 40.17V36.63H70.9235C69.0035 36.63 67.8335 35.64 67.8335 33.99V23.37C67.8335 22.47 68.3135 21.96 69.2135 21.96H81.1235C84.2135 21.96 85.8035 23.64 85.8035 26.94C85.8035 29.79 84.5435 32.4 82.7735 33.42H85.4735C85.9835 33.42 86.2235 33.72 86.2235 34.23V35.88C86.2235 36.39 85.9835 36.63 85.4735 36.63H78.3935V40.44C78.3935 41.1 78.7235 41.37 79.4435 41.37C82.0235 41.37 85.1435 41.19 87.1835 40.92C87.6935 40.86 87.9935 41.13 87.9935 41.64V43.29C87.9935 43.8 87.7835 44.01 87.2435 44.1C85.2035 44.43 81.2135 44.61 76.6235 44.61C71.8535 44.61 68.3435 44.43 66.0935 44.07ZM78.9935 33.42C80.8235 33.42 82.3535 31.2 82.3535 28.47C82.3535 26.16 81.4835 25.17 79.5935 25.17H72.0035C71.5535 25.17 71.2835 25.41 71.2835 25.89V32.46C71.2835 33.06 71.7335 33.42 72.4535 33.42H78.9935ZM95.677 34.02C95.377 33.84 95.197 33.54 95.197 33.12V29.13C95.197 28.62 95.497 28.32 95.977 28.32H97.867C98.347 28.32 98.647 28.62 98.647 29.13V33.21C98.647 33.69 98.947 33.93 99.487 33.93C101.557 33.93 104.557 33.87 105.667 33.78C106.177 33.75 106.447 33.93 106.447 34.44V36.15C106.447 36.66 106.237 36.93 105.697 36.96C103.747 37.08 100.837 37.17 98.017 37.17C95.107 37.17 92.857 37.08 90.847 36.93C90.307 36.9 90.097 36.63 90.097 36.15V34.38C90.097 33.87 90.397 33.72 90.907 33.75C92.197 33.87 93.697 33.96 95.677 34.02ZM99.247 24.33C96.817 24.33 94.657 24.51 92.737 24.87C92.257 24.96 91.987 24.69 91.987 24.15V22.32C91.987 21.87 92.167 21.66 92.737 21.54C94.267 21.21 96.817 21.03 99.607 21.03C103.327 21.03 105.157 22.71 105.157 26.13C105.157 27.6 104.917 29.85 104.467 31.5C104.347 31.98 104.167 32.1 103.657 32.04L101.617 31.74C101.077 31.65 100.927 31.44 101.047 30.99C101.467 29.55 101.707 27.75 101.707 26.7C101.707 25.2 100.807 24.33 99.247 24.33ZM111.427 38.64C111.427 39.15 111.127 39.45 110.647 39.45H108.757C108.277 39.45 107.977 39.15 107.977 38.64V21.18C107.977 20.67 108.277 20.37 108.757 20.37H110.647C111.127 20.37 111.427 20.67 111.427 21.18V28.17C111.637 27.78 112.057 27.57 112.657 27.57H114.427C114.937 27.57 115.177 27.81 115.177 28.32V29.97C115.177 30.48 114.937 30.72 114.427 30.72H112.477C111.757 30.72 111.427 31.02 111.427 31.68V38.64ZM93.277 39.39C93.367 38.88 93.667 38.61 94.177 38.61H96.007C96.517 38.61 96.817 38.94 96.727 39.42C96.607 40.05 96.517 41.07 96.517 41.82C96.517 43.47 97.417 44.25 99.367 44.25C104.677 44.25 107.797 44.07 111.337 43.74C111.817 43.68 112.087 43.92 112.117 44.46L112.237 46.11C112.267 46.56 112.027 46.8 111.517 46.86C108.547 47.16 104.407 47.4 99.457 47.4C95.377 47.4 93.067 45.42 93.067 41.97C93.067 41.07 93.157 39.99 93.277 39.39ZM119.741 29.28C119.741 24.42 123.161 21.63 129.101 21.63C135.041 21.63 138.461 24.42 138.461 29.28C138.461 34.14 135.041 36.93 129.101 36.93C123.131 36.93 119.741 34.17 119.741 29.28ZM129.101 33.72C132.941 33.72 135.011 32.1 135.011 29.28C135.011 26.4 133.031 24.84 129.101 24.84C125.171 24.84 123.191 26.4 123.191 29.28C123.191 32.1 125.261 33.72 129.101 33.72ZM118.361 40.89C121.211 41.22 124.661 41.4 128.831 41.4C133.121 41.4 137.051 41.22 139.391 40.92C139.901 40.86 140.201 41.13 140.201 41.64V43.29C140.201 43.8 139.991 44.01 139.451 44.1C137.411 44.43 133.421 44.61 128.831 44.61C124.061 44.61 120.551 44.43 118.301 44.07C117.761 43.98 117.551 43.74 117.551 43.26V41.61C117.551 41.1 117.851 40.83 118.361 40.89ZM144.404 44.07C143.864 43.98 143.654 43.74 143.654 43.26V41.61C143.654 41.1 143.954 40.83 144.464 40.89C146.624 41.13 150.674 41.4 154.004 41.46C153.554 41.25 153.254 40.77 153.254 40.17V36.99C147.794 36.69 146.144 35.43 146.144 32.19C146.144 28.71 148.214 27.66 155.024 27.66H158.744C160.034 27.66 160.694 27.18 160.694 26.19C160.694 25.23 160.154 24.87 158.804 24.87C154.904 24.87 150.464 25.05 147.464 25.38C147.014 25.44 146.744 25.2 146.744 24.75V22.95C146.744 22.5 146.924 22.29 147.344 22.23C149.894 21.87 153.584 21.66 157.094 21.66C158.324 21.66 159.554 21.69 160.694 21.75C162.974 21.84 164.114 22.83 164.114 24.63C164.114 26.31 163.304 27.51 161.864 28.02H163.214C163.634 28.02 163.874 28.26 163.874 28.68V30.21C163.874 30.63 163.634 30.9 163.214 30.9C160.484 30.9 157.424 30.81 155.084 30.81C150.764 30.81 149.594 31.14 149.594 32.34C149.594 33.66 150.824 33.93 156.734 33.93C159.104 33.93 161.684 33.75 163.874 33.42C164.264 33.36 164.474 33.54 164.564 33.99L164.864 35.7C164.924 36.09 164.684 36.42 164.294 36.48C161.864 36.84 158.924 37.08 156.764 37.08H156.704V40.44C156.704 41.1 157.034 41.37 157.754 41.37C160.334 41.37 163.454 41.19 165.494 40.92C166.004 40.86 166.304 41.13 166.304 41.64V43.29C166.304 43.8 166.094 44.01 165.554 44.1C163.514 44.43 159.524 44.61 154.934 44.61C150.164 44.61 146.654 44.43 144.404 44.07Z" fill="black"/>
</g>
<defs>
<filter id="filter0_d_222_2284" x="0" y="0" width="214" height="78" filterUnits="userSpaceOnUse" color-interpolation-filters="sRGB">
<feFlood flood-opacity="0" result="BackgroundImageFix"/>
<feColorMatrix in="SourceAlpha" type="matrix" values="0 0 0 0 0 0 0 0 0 0 0 0 0 0 0 0 0 0 127 0" result="hardAlpha"/>
<feOffset dx="4" dy="4"/>
<feGaussianBlur stdDeviation="2"/>
<feComposite in2="hardAlpha" operator="out"/>
<feColorMatrix type="matrix" values="0 0 0 0 0 0 0 0 0 0 0 0 0 0 0 0 0 0 0.25 0"/>
<feBlend mode="normal" in2="BackgroundImageFix" result="effect1_dropShadow_222_2284"/>
<feBlend mode="normal" in="SourceGraphic" in2="effect1_dropShadow_222_2284" result="shape"/>
</filter>
</defs>
</svg>
