<svg width="1440" height="1024" viewBox="0 0 1440 1024" fill="none" xmlns="http://www.w3.org/2000/svg">
<rect width="1440" height="1024" fill="url(#paint0_linear_7_8)"/>
<g filter="url(#filter0_d_7_8)">
<rect x="277" y="200" width="885" height="637" rx="50" fill="#F9F9F9" fill-opacity="0.2" shape-rendering="crispEdges"/>
</g>
<path d="M520.203 295.55C519.369 295.55 518.953 295.133 518.953 294.3V291.55C518.953 290.717 519.369 290.3 520.203 290.3H547.553C548.386 290.3 548.803 290.717 548.803 291.55V294.3C548.803 295.133 548.386 295.55 547.553 295.55H536.803V296.05C536.803 297.083 537.086 298.05 537.653 298.95C538.219 299.85 539.003 300.617 540.003 301.25C541.036 301.883 542.253 302.383 543.653 302.75C545.086 303.117 546.636 303.3 548.303 303.3C549.136 303.3 549.553 303.683 549.553 304.45V307.3C549.553 308.1 549.136 308.517 548.303 308.55C546.903 308.617 545.469 308.5 544.003 308.2C542.569 307.933 541.186 307.517 539.853 306.95C538.553 306.383 537.369 305.683 536.303 304.85C535.269 304.017 534.453 303.1 533.853 302.1C533.253 303.1 532.419 304.017 531.353 304.85C530.319 305.683 529.153 306.383 527.853 306.95C526.553 307.517 525.169 307.933 523.703 308.2C522.269 308.5 520.853 308.617 519.453 308.55C518.619 308.517 518.203 308.1 518.203 307.3V304.45C518.203 303.683 518.619 303.3 519.453 303.3C521.119 303.3 522.653 303.117 524.053 302.75C525.486 302.383 526.719 301.883 527.753 301.25C528.786 300.617 529.586 299.85 530.153 298.95C530.753 298.05 531.053 297.083 531.053 296.05V295.55H520.203ZM536.653 266.35C537.486 266.35 537.903 266.767 537.903 267.6V270.35C537.903 271.183 537.486 271.6 536.653 271.6H529.253V272.15C529.253 273.483 529.436 274.733 529.803 275.9C530.203 277.033 530.736 278.017 531.403 278.85C532.069 279.65 532.869 280.283 533.803 280.75C534.736 281.217 535.753 281.45 536.853 281.45C537.686 281.45 538.103 281.867 538.103 282.7V285.45C538.103 286.283 537.686 286.7 536.853 286.7C535.553 286.7 534.336 286.517 533.203 286.15C532.069 285.75 531.053 285.217 530.153 284.55C529.253 283.883 528.486 283.117 527.853 282.25C527.219 281.383 526.736 280.467 526.403 279.5C526.069 280.467 525.569 281.383 524.903 282.25C524.269 283.117 523.503 283.883 522.603 284.55C521.703 285.217 520.686 285.75 519.553 286.15C518.419 286.517 517.203 286.7 515.903 286.7C515.069 286.7 514.653 286.283 514.653 285.45V282.7C514.653 281.867 515.069 281.45 515.903 281.45C517.003 281.45 518.019 281.217 518.953 280.75C519.886 280.283 520.686 279.65 521.353 278.85C522.019 278.017 522.536 277.033 522.903 275.9C523.303 274.733 523.503 273.483 523.503 272.15V271.6H516.153C515.319 271.6 514.903 271.183 514.903 270.35V267.6C514.903 266.767 515.319 266.35 516.153 266.35H524.403C523.903 266.083 523.653 265.633 523.653 265V263C523.653 262.167 524.069 261.75 524.903 261.75H528.153C528.986 261.75 529.403 262.167 529.403 263V265.45C529.403 266.05 529.753 266.35 530.453 266.35H536.653ZM548.803 285.4C548.803 286.3 548.369 286.75 547.503 286.75H544.353C543.486 286.75 543.053 286.3 543.053 285.4V265.3C543.053 264.4 543.486 263.95 544.353 263.95H547.503C548.369 263.95 548.803 264.4 548.803 265.3V272.95C549.169 272.283 549.853 271.95 550.853 271.95H553.803C554.636 271.95 555.053 272.367 555.053 273.2V275.95C555.053 276.783 554.636 277.2 553.803 277.2H550.553C549.386 277.2 548.803 277.733 548.803 278.8V285.4ZM569.608 272.1C567.708 272.1 566.325 273.067 565.458 275C564.592 276.933 564.158 280.1 564.158 284.5C564.158 288.9 564.592 292.083 565.458 294.05C566.325 295.983 567.708 296.95 569.608 296.95C571.542 296.95 572.942 295.983 573.808 294.05C574.675 292.117 575.108 288.933 575.108 284.5C575.108 280.1 574.675 276.933 573.808 275C572.942 273.067 571.542 272.1 569.608 272.1ZM580.858 284.5C580.858 290.7 579.958 295.25 578.158 298.15C576.358 301.017 573.508 302.45 569.608 302.45C565.742 302.45 562.908 301.017 561.108 298.15C559.308 295.25 558.408 290.7 558.408 284.5C558.408 278.3 559.308 273.767 561.108 270.9C562.908 268.033 565.742 266.6 569.608 266.6C573.508 266.6 576.358 268.033 578.158 270.9C579.958 273.767 580.858 278.3 580.858 284.5ZM592.308 306.9C592.308 307.8 591.875 308.25 591.008 308.25H587.858C586.992 308.25 586.558 307.8 586.558 306.9V265.3C586.558 264.4 586.992 263.95 587.858 263.95H591.008C591.875 263.95 592.308 264.4 592.308 265.3V282.45C592.675 281.783 593.358 281.45 594.358 281.45H597.308C598.142 281.45 598.558 281.867 598.558 282.7V285.7C598.558 286.533 598.142 286.95 597.308 286.95H594.058C592.892 286.95 592.308 287.483 592.308 288.55V306.9ZM602.414 279.05C602.414 276.983 602.681 275.133 603.214 273.5C603.748 271.833 604.498 270.417 605.464 269.25C606.431 268.083 607.598 267.183 608.964 266.55C610.364 265.917 611.931 265.6 613.664 265.6C615.398 265.6 616.948 265.917 618.314 266.55C619.714 267.183 620.898 268.083 621.864 269.25C622.864 270.417 623.614 271.833 624.114 273.5C624.648 275.133 624.914 276.983 624.914 279.05C624.914 282.617 624.148 285.55 622.614 287.85C621.114 290.15 619.048 291.617 616.414 292.25V298.3C616.414 299.333 616.998 299.85 618.164 299.85C619.831 299.85 621.264 299.8 622.464 299.7C623.664 299.567 624.748 299.417 625.714 299.25C626.581 299.083 627.014 299.45 627.014 300.35V303.2C627.014 303.967 626.598 304.417 625.764 304.55C624.064 304.817 622.181 305 620.114 305.1C618.048 305.2 615.831 305.25 613.464 305.25C611.031 305.25 608.931 305.183 607.164 305.05C605.398 304.95 603.681 304.767 602.014 304.5C601.181 304.367 600.764 303.933 600.764 303.2V300.25C600.764 299.383 601.214 299.033 602.114 299.2C603.414 299.4 604.914 299.567 606.614 299.7C608.348 299.833 610.114 299.917 611.914 299.95C611.081 299.617 610.664 298.917 610.664 297.85V292.2C608.098 291.533 606.081 290.05 604.614 287.75C603.148 285.45 602.414 282.55 602.414 279.05ZM635.814 306.9C635.814 307.8 635.381 308.25 634.514 308.25H631.364C630.498 308.25 630.064 307.8 630.064 306.9V265.3C630.064 264.4 630.498 263.95 631.364 263.95H634.514C635.381 263.95 635.814 264.4 635.814 265.3V282.45C636.181 281.783 636.864 281.45 637.864 281.45H640.814C641.648 281.45 642.064 281.867 642.064 282.7V285.7C642.064 286.533 641.648 286.95 640.814 286.95H637.564C636.398 286.95 635.814 287.483 635.814 288.55V306.9ZM613.664 287.2C615.364 287.2 616.698 286.45 617.664 284.95C618.664 283.45 619.164 281.483 619.164 279.05C619.164 276.617 618.664 274.667 617.664 273.2C616.698 271.7 615.364 270.95 613.664 270.95C611.964 270.95 610.614 271.7 609.614 273.2C608.648 274.667 608.164 276.617 608.164 279.05C608.164 281.483 608.648 283.45 609.614 284.95C610.614 286.45 611.964 287.2 613.664 287.2ZM674.57 265.3C674.57 264.4 675.003 263.95 675.87 263.95H679.02C679.887 263.95 680.32 264.4 680.32 265.3V307.15C680.32 308.05 679.887 308.5 679.02 308.5H675.87C675.003 308.5 674.57 308.05 674.57 307.15V304.25C674.203 304.917 673.52 305.25 672.52 305.25H666.32C665.487 305.25 665.07 304.833 665.07 304V301C665.07 300.167 665.487 299.75 666.32 299.75H672.82C673.987 299.75 674.57 299.217 674.57 298.15V265.3ZM667.77 265.1C668.603 265.1 669.02 265.517 669.02 266.35V269.35C669.02 270.183 668.603 270.6 667.77 270.6H660.47V273.2C660.47 275.7 661.12 277.55 662.42 278.75C663.72 279.917 665.503 280.5 667.77 280.5C668.603 280.5 669.02 280.917 669.02 281.75V284.75C669.02 285.583 668.603 286 667.77 286C665.37 286 663.253 285.483 661.42 284.45C659.587 283.383 658.32 281.883 657.62 279.95C656.887 281.883 655.603 283.383 653.77 284.45C651.937 285.483 649.82 286 647.42 286C646.587 286 646.17 285.583 646.17 284.75V281.75C646.17 280.917 646.587 280.5 647.42 280.5C649.687 280.5 651.47 279.917 652.77 278.75C654.07 277.55 654.72 275.7 654.72 273.2V270.6H647.42C646.587 270.6 646.17 270.183 646.17 269.35V266.35C646.17 265.517 646.587 265.1 647.42 265.1H667.77ZM655.77 296.3C653.903 296.233 651.987 296.133 650.02 296C648.053 295.867 646.387 295.7 645.02 295.5C644.187 295.367 643.77 294.933 643.77 294.2V291.25C643.77 290.383 644.22 290.033 645.12 290.2C648.487 290.7 652.603 290.95 657.47 290.95C659.837 290.95 662.203 290.9 664.57 290.8C666.97 290.7 669.02 290.517 670.72 290.25C671.587 290.083 672.02 290.45 672.02 291.35V294.2C672.02 295 671.603 295.45 670.77 295.55C670.27 295.617 669.67 295.683 668.97 295.75C668.27 295.817 667.52 295.883 666.72 295.95C665.92 296.017 665.103 296.067 664.27 296.1C663.47 296.133 662.687 296.15 661.92 296.15C660.753 296.15 660.17 296.667 660.17 297.7V306.15C660.17 307.05 659.737 307.5 658.87 307.5H655.72C654.853 307.5 654.42 307.05 654.42 306.15V298.45C654.42 297.917 654.537 297.467 654.77 297.1C655.037 296.733 655.37 296.467 655.77 296.3ZM698.424 292.4C698.091 293.567 697.574 294.667 696.874 295.7C696.207 296.733 695.407 297.65 694.474 298.45C693.541 299.25 692.507 299.917 691.374 300.45C690.274 300.983 689.124 301.317 687.924 301.45C687.091 301.55 686.674 301.167 686.674 300.3V297.3C686.674 296.5 687.057 296.05 687.824 295.95C688.891 295.817 689.891 295.417 690.824 294.75C691.757 294.083 692.574 293.233 693.274 292.2C693.974 291.167 694.524 289.983 694.924 288.65C695.324 287.317 695.524 285.933 695.524 284.5V268.45C695.524 267.55 695.957 267.1 696.824 267.1H699.974C700.841 267.1 701.274 267.55 701.274 268.45V284.5C701.274 285.933 701.474 287.317 701.874 288.65C702.307 289.983 702.874 291.167 703.574 292.2C704.274 293.233 705.091 294.083 706.024 294.75C706.957 295.417 707.941 295.817 708.974 295.95C709.741 296.05 710.124 296.5 710.124 297.3V300.3C710.124 301.167 709.707 301.55 708.874 301.45C707.674 301.317 706.507 300.983 705.374 300.45C704.274 299.917 703.257 299.25 702.324 298.45C701.391 297.65 700.574 296.733 699.874 295.7C699.207 294.667 698.724 293.567 698.424 292.4ZM716.074 265.3C716.074 264.4 716.507 263.95 717.374 263.95H720.524C721.391 263.95 721.824 264.4 721.824 265.3V306.9C721.824 307.8 721.391 308.25 720.524 308.25H717.374C716.507 308.25 716.074 307.8 716.074 306.9V283.25C715.707 283.917 715.024 284.25 714.024 284.25H708.774C707.941 284.25 707.524 283.833 707.524 283V280C707.524 279.167 707.941 278.75 708.774 278.75H714.324C715.491 278.75 716.074 278.217 716.074 277.15V265.3ZM744.292 303.45C743.458 303.317 743.042 302.867 743.042 302.1V299.35C743.042 298.45 743.492 298.05 744.392 298.15C746.492 298.417 748.725 298.633 751.092 298.8C753.458 298.933 755.692 299.033 757.792 299.1C757.425 298.933 757.125 298.667 756.892 298.3C756.658 297.9 756.542 297.45 756.542 296.95V285.95C756.542 285.05 756.975 284.6 757.842 284.6H760.992C761.858 284.6 762.292 285.05 762.292 285.95V297.4C762.292 298.433 762.875 298.95 764.042 298.95C765.408 298.95 766.825 298.933 768.292 298.9C769.758 298.833 771.175 298.767 772.542 298.7C773.942 298.633 775.242 298.567 776.442 298.5C777.642 298.4 778.642 298.3 779.442 298.2C780.342 298.1 780.792 298.5 780.792 299.4V302.15C780.792 302.917 780.375 303.367 779.542 303.5C777.875 303.767 775.492 303.967 772.392 304.1C769.292 304.267 765.775 304.35 761.842 304.35C753.908 304.35 748.058 304.05 744.292 303.45ZM748.442 272.95C747.608 273.05 747.192 272.65 747.192 271.75V268.7C747.192 267.933 747.608 267.5 748.442 267.4C749.842 267.233 751.175 267.1 752.442 267C753.742 266.9 755.058 266.817 756.392 266.75C757.758 266.683 759.175 266.633 760.642 266.6C762.108 266.567 763.692 266.55 765.392 266.55C769.225 266.55 772.142 267.583 774.142 269.65C776.175 271.717 777.192 274.717 777.192 278.65C777.192 279.883 777.175 281.017 777.142 282.05C777.108 283.05 777.058 284.017 776.992 284.95C776.925 285.85 776.825 286.733 776.692 287.6C776.558 288.433 776.408 289.283 776.242 290.15C776.108 290.817 775.658 291.1 774.892 291L771.442 290.5C770.708 290.4 770.408 289.983 770.542 289.25C771.108 286.483 771.392 283.3 771.392 279.7C771.392 276.933 770.842 274.967 769.742 273.8C768.675 272.633 766.825 272.05 764.192 272.05C761.292 272.05 758.575 272.117 756.042 272.25C753.508 272.383 750.975 272.617 748.442 272.95ZM797.097 295.95C798.797 295.95 800.147 294.85 801.147 292.65C802.147 290.45 802.647 287.45 802.647 283.65C802.647 281.55 802.564 279.8 802.397 278.4C802.231 277 801.947 275.867 801.547 275C801.147 274.133 800.614 273.517 799.947 273.15C799.314 272.783 798.531 272.6 797.597 272.6H793.397C792.597 272.6 792.197 273 792.197 273.8V294.35C792.197 294.85 792.364 295.25 792.697 295.55C793.064 295.817 793.547 295.95 794.147 295.95H797.097ZM799.047 267.1C800.781 267.1 802.247 267.317 803.447 267.75C804.647 268.183 805.614 268.883 806.347 269.85C807.081 270.817 807.597 272.1 807.897 273.7C808.231 275.3 808.397 277.25 808.397 279.55C808.397 283.183 807.981 286.417 807.147 289.25C806.347 292.083 805.214 294.317 803.747 295.95H806.847C807.681 295.95 808.097 296.367 808.097 297.2V300.2C808.097 301.033 807.681 301.45 806.847 301.45H791.597C789.997 301.45 788.731 301.067 787.797 300.3C786.897 299.533 786.447 298.45 786.447 297.05V269.45C786.447 267.883 787.214 267.1 788.747 267.1H799.047ZM819.847 306.9C819.847 307.8 819.414 308.25 818.547 308.25H815.397C814.531 308.25 814.097 307.8 814.097 306.9V265.3C814.097 264.4 814.531 263.95 815.397 263.95H818.547C819.414 263.95 819.847 264.4 819.847 265.3V282.45C820.214 281.783 820.897 281.45 821.897 281.45H824.847C825.681 281.45 826.097 281.867 826.097 282.7V285.7C826.097 286.533 825.681 286.95 824.847 286.95H821.597C820.431 286.95 819.847 287.483 819.847 288.55V306.9ZM841.703 281.3C843.403 281.3 844.737 280.767 845.703 279.7C846.703 278.633 847.203 277.25 847.203 275.55C847.203 273.85 846.703 272.483 845.703 271.45C844.737 270.383 843.403 269.85 841.703 269.85C840.003 269.85 838.653 270.383 837.653 271.45C836.687 272.483 836.203 273.85 836.203 275.55C836.203 277.25 836.687 278.633 837.653 279.7C838.653 280.767 840.003 281.3 841.703 281.3ZM839.803 296.3C837.937 296.233 836.02 296.133 834.053 296C832.087 295.867 830.42 295.7 829.053 295.5C828.22 295.367 827.803 294.933 827.803 294.2V291.25C827.803 290.383 828.253 290.033 829.153 290.2C832.52 290.7 836.637 290.95 841.503 290.95C843.87 290.95 846.237 290.9 848.603 290.8C851.003 290.7 853.053 290.517 854.753 290.25C855.62 290.083 856.053 290.45 856.053 291.35V294.2C856.053 295 855.637 295.45 854.803 295.55C854.303 295.617 853.703 295.683 853.003 295.75C852.303 295.817 851.553 295.883 850.753 295.95C849.953 296.017 849.137 296.067 848.303 296.1C847.503 296.133 846.72 296.15 845.953 296.15C844.787 296.15 844.203 296.667 844.203 297.7V306.15C844.203 307.05 843.77 307.5 842.903 307.5H839.753C838.887 307.5 838.453 307.05 838.453 306.15V298.45C838.453 297.917 838.57 297.467 838.803 297.1C839.07 296.733 839.403 296.467 839.803 296.3ZM858.603 265.3C858.603 264.4 859.037 263.95 859.903 263.95H863.053C863.92 263.95 864.353 264.4 864.353 265.3V307.15C864.353 308.05 863.92 308.5 863.053 308.5H859.903C859.037 308.5 858.603 308.05 858.603 307.15V304.25C858.237 304.917 857.553 305.25 856.553 305.25H850.353C849.52 305.25 849.103 304.833 849.103 304V301C849.103 300.167 849.52 299.75 850.353 299.75H856.853C858.02 299.75 858.603 299.217 858.603 298.15V265.3ZM830.453 275.55C830.453 273.917 830.72 272.433 831.253 271.1C831.787 269.733 832.537 268.583 833.503 267.65C834.503 266.683 835.687 265.933 837.053 265.4C838.453 264.867 840.003 264.6 841.703 264.6C843.403 264.6 844.937 264.867 846.303 265.4C847.703 265.933 848.887 266.683 849.853 267.65C850.853 268.583 851.62 269.733 852.153 271.1C852.687 272.433 852.953 273.917 852.953 275.55C852.953 277.183 852.687 278.683 852.153 280.05C851.62 281.383 850.853 282.533 849.853 283.5C848.887 284.467 847.703 285.217 846.303 285.75C844.937 286.283 843.403 286.55 841.703 286.55C840.003 286.55 838.453 286.283 837.053 285.75C835.687 285.217 834.503 284.467 833.503 283.5C832.537 282.533 831.787 281.383 831.253 280.05C830.72 278.683 830.453 277.183 830.453 275.55ZM895.557 291.15C894.024 291.417 892.441 291.55 890.807 291.55C888.874 291.55 887.041 291.367 885.307 291V297.4C885.307 298.433 885.891 298.95 887.057 298.95C887.657 298.95 888.374 298.95 889.207 298.95C890.041 298.95 890.891 298.95 891.757 298.95C892.657 298.95 893.557 298.95 894.457 298.95C895.357 298.917 896.174 298.9 896.907 298.9C896.507 298.733 896.174 298.467 895.907 298.1C895.674 297.7 895.557 297.233 895.557 296.7V291.15ZM890.807 286.2C894.041 286.2 896.491 285.567 898.157 284.3C899.824 283 900.657 281.167 900.657 278.8C900.657 276.4 899.841 274.567 898.207 273.3C896.574 272.033 894.107 271.4 890.807 271.4C887.507 271.4 885.041 272.033 883.407 273.3C881.774 274.567 880.957 276.4 880.957 278.8C880.957 281.167 881.791 283 883.457 284.3C885.124 285.567 887.574 286.2 890.807 286.2ZM875.207 278.8C875.207 274.733 876.557 271.6 879.257 269.4C881.991 267.167 885.841 266.05 890.807 266.05C895.774 266.05 899.607 267.167 902.307 269.4C905.041 271.6 906.407 274.733 906.407 278.8C906.407 281.1 905.974 283.1 905.107 284.8C904.241 286.5 902.974 287.9 901.307 289V297.1C901.307 298.133 901.891 298.65 903.057 298.65C903.424 298.65 903.841 298.633 904.307 298.6C904.774 298.567 905.241 298.533 905.707 298.5C906.174 298.433 906.607 298.383 907.007 298.35C907.407 298.283 907.724 298.233 907.957 298.2C908.857 298.1 909.307 298.5 909.307 299.4V302.15C909.307 302.917 908.891 303.367 908.057 303.5C907.224 303.633 906.191 303.75 904.957 303.85C903.724 303.95 902.341 304.033 900.807 304.1C899.274 304.2 897.624 304.267 895.857 304.3C894.091 304.333 892.257 304.35 890.357 304.35C882.424 304.35 876.574 304.05 872.807 303.45C871.974 303.317 871.557 302.867 871.557 302.1V299.35C871.557 298.45 872.007 298.05 872.907 298.15C874.307 298.35 875.641 298.533 876.907 298.7C878.174 298.867 879.441 298.983 880.707 299.05C879.941 298.617 879.557 297.917 879.557 296.95V289C879.557 288.767 879.574 288.6 879.607 288.5C878.174 287.433 877.074 286.083 876.307 284.45C875.574 282.817 875.207 280.933 875.207 278.8ZM916.163 303.4C916.163 302.5 916.596 302.05 917.463 302.05H920.613C921.48 302.05 921.913 302.5 921.913 303.4V307.9C921.913 308.8 921.48 309.25 920.613 309.25H917.463C916.596 309.25 916.163 308.8 916.163 307.9V303.4ZM916.163 264.8C916.163 263.9 916.596 263.45 917.463 263.45H920.613C921.48 263.45 921.913 263.9 921.913 264.8V298.2C921.913 299.1 921.48 299.55 920.613 299.55H917.463C916.596 299.55 916.163 299.1 916.163 298.2V264.8Z" fill="white"/>
<defs>
<filter id="filter0_d_7_8" x="273" y="200" width="893" height="645" filterUnits="userSpaceOnUse" color-interpolation-filters="sRGB">
<feFlood flood-opacity="0" result="BackgroundImageFix"/>
<feColorMatrix in="SourceAlpha" type="matrix" values="0 0 0 0 0 0 0 0 0 0 0 0 0 0 0 0 0 0 127 0" result="hardAlpha"/>
<feOffset dy="4"/>
<feGaussianBlur stdDeviation="2"/>
<feComposite in2="hardAlpha" operator="out"/>
<feColorMatrix type="matrix" values="0 0 0 0 0 0 0 0 0 0 0 0 0 0 0 0 0 0 0.25 0"/>
<feBlend mode="normal" in2="BackgroundImageFix" result="effect1_dropShadow_7_8"/>
<feBlend mode="normal" in="SourceGraphic" in2="effect1_dropShadow_7_8" result="shape"/>
</filter>
<linearGradient id="paint0_linear_7_8" x1="298.5" y1="2.17638e-06" x2="769.5" y2="994.5" gradientUnits="userSpaceOnUse">
<stop stop-color="#030056"/>
<stop offset="0.964433" stop-color="#462855"/>
</linearGradient>
</defs>
</svg>
