<svg width="45" height="24" viewBox="0 0 45 24" fill="none" xmlns="http://www.w3.org/2000/svg">
<path d="M10.7702 19.11L16.8302 0.779955C17.0102 0.239954 17.4602 -4.43459e-05 18.1802 -4.43459e-05H20.1602C21.0602 -4.43459e-05 21.5402 0.509954 21.5402 1.40996V22.47C21.5402 22.98 21.2402 23.28 20.7602 23.28H18.9302C18.4502 23.28 18.1502 22.98 18.1502 22.47V6.62996L12.9902 22.23C12.7802 22.86 12.3902 23.28 11.6702 23.28H9.8702C9.1502 23.28 8.7602 22.86 8.5502 22.23L3.3902 6.62996V22.47C3.3902 22.98 3.0902 23.28 2.6102 23.28H0.780195C0.300195 23.28 0.000195384 22.98 0.000195384 22.47V1.40996C0.000195384 0.509954 0.480195 -4.43459e-05 1.3802 -4.43459e-05H3.3602C4.0802 -4.43459e-05 4.5302 0.239954 4.7102 0.779955L10.7702 19.11ZM32.2169 22.47V15L24.0569 0.749955C23.8169 0.359955 24.0869 -4.43459e-05 24.6269 -4.43459e-05H26.7269C27.2369 -4.43459e-05 27.5369 0.149956 27.7469 0.509954L33.9569 11.67L40.1369 0.509954C40.3469 0.149956 40.6469 -4.43459e-05 41.1569 -4.43459e-05H43.2569C43.7969 -4.43459e-05 44.0669 0.359955 43.8269 0.749955L35.6669 15V22.47C35.6669 22.98 35.3669 23.28 34.8869 23.28H32.9969C32.5169 23.28 32.2169 22.98 32.2169 22.47Z" fill="black"/>
</svg>
