<svg width="1440" height="1024" viewBox="0 0 1440 1024" fill="none" xmlns="http://www.w3.org/2000/svg">
<rect width="1440" height="1024" fill="#FFFCF7"/>
<path d="M346.517 544.95C344.917 544.95 343.651 544.567 342.717 543.8C341.817 543.033 341.367 541.95 341.367 540.55V527.45C341.367 525.883 342.134 525.1 343.667 525.1H356.167C360.601 525.1 362.817 527.25 362.817 531.55C362.817 533.383 362.401 535.05 361.567 536.55C360.734 538.017 359.634 539.117 358.267 539.85H361.267C362.101 539.85 362.517 540.267 362.517 541.1V543.7C362.517 544.533 362.101 544.95 361.267 544.95H346.517ZM345.417 568.55C344.584 568.517 344.167 568.1 344.167 567.3V564.45C344.167 563.683 344.584 563.3 345.417 563.3C347.151 563.3 348.751 563.117 350.217 562.75C351.717 562.383 353.001 561.883 354.067 561.25C355.134 560.617 355.967 559.85 356.567 558.95C357.201 558.05 357.517 557.083 357.517 556.05V555.8H346.167C345.334 555.8 344.917 555.383 344.917 554.55V551.8C344.917 550.967 345.334 550.55 346.167 550.55H358.367C357.801 550.25 357.517 549.667 357.517 548.8V547.7C357.517 546.867 357.934 546.45 358.767 546.45H362.017C362.851 546.45 363.267 546.867 363.267 547.7V549.6C363.267 550.233 363.634 550.55 364.367 550.55H374.517C375.351 550.55 375.767 550.967 375.767 551.8V554.55C375.767 555.383 375.351 555.8 374.517 555.8H363.267V556.05C363.267 557.083 363.567 558.05 364.167 558.95C364.767 559.85 365.601 560.617 366.667 561.25C367.734 561.883 369.001 562.383 370.467 562.75C371.934 563.117 373.534 563.3 375.267 563.3C376.101 563.3 376.517 563.683 376.517 564.45V567.3C376.517 568.1 376.101 568.517 375.267 568.55C373.834 568.617 372.351 568.5 370.817 568.2C369.284 567.933 367.834 567.5 366.467 566.9C365.134 566.333 363.917 565.633 362.817 564.8C361.751 563.967 360.917 563.05 360.317 562.05C359.717 563.05 358.867 563.967 357.767 564.8C356.701 565.633 355.484 566.333 354.117 566.9C352.784 567.5 351.367 567.933 349.867 568.2C348.367 568.5 346.884 568.617 345.417 568.55ZM370.017 541.35C369.717 541.983 369.084 542.3 368.117 542.3H365.717C364.884 542.3 364.467 541.883 364.467 541.05V538.3C364.467 537.467 364.884 537.05 365.717 537.05H368.767C369.601 537.05 370.017 536.617 370.017 535.75V531.95C369.717 532.583 369.084 532.9 368.117 532.9H365.717C364.884 532.9 364.467 532.483 364.467 531.65V528.9C364.467 528.067 364.884 527.65 365.717 527.65H368.767C369.601 527.65 370.017 527.217 370.017 526.35V525.3C370.017 524.4 370.451 523.95 371.317 523.95H374.467C375.334 523.95 375.767 524.4 375.767 525.3V544.9C375.767 545.8 375.334 546.25 374.467 546.25H371.317C370.451 546.25 370.017 545.8 370.017 544.9V541.35ZM352.167 539.95C353.734 539.95 354.934 539.417 355.767 538.35C356.634 537.283 357.067 535.883 357.067 534.15C357.067 531.45 355.784 530.1 353.217 530.1H348.317C347.517 530.1 347.117 530.5 347.117 531.3V538.35C347.117 538.85 347.284 539.25 347.617 539.55C347.984 539.817 348.467 539.95 349.067 539.95H352.167ZM417.035 560.25C416.902 561.05 416.435 561.45 415.635 561.45H412.435C411.968 561.45 411.618 561.317 411.385 561.05C411.185 560.817 411.118 560.5 411.185 560.1C411.852 556.467 412.335 552.867 412.635 549.3C412.935 545.7 413.085 542.067 413.085 538.4C413.085 536.267 412.702 534.783 411.935 533.95C411.168 533.083 409.852 532.65 407.985 532.65C406.152 532.65 404.468 532.75 402.935 532.95C401.435 533.117 399.852 533.317 398.185 533.55C397.785 533.617 397.468 533.533 397.235 533.3C397.002 533.033 396.885 532.683 396.885 532.25V529.35C396.885 528.55 397.302 528.1 398.135 528C400.068 527.733 401.918 527.517 403.685 527.35C405.485 527.183 407.285 527.1 409.085 527.1C410.852 527.1 412.352 527.3 413.585 527.7C414.818 528.1 415.818 528.733 416.585 529.6C417.385 530.467 417.968 531.583 418.335 532.95C418.702 534.283 418.885 535.917 418.885 537.85C418.885 541.817 418.735 545.617 418.435 549.25C418.135 552.883 417.668 556.55 417.035 560.25ZM430.285 566.9C430.285 567.8 429.852 568.25 428.985 568.25H425.835C424.968 568.25 424.535 567.8 424.535 566.9V525.3C424.535 524.4 424.968 523.95 425.835 523.95H428.985C429.852 523.95 430.285 524.4 430.285 525.3V542.45C430.652 541.783 431.335 541.45 432.335 541.45H435.285C436.118 541.45 436.535 541.867 436.535 542.7V545.7C436.535 546.533 436.118 546.95 435.285 546.95H432.035C430.868 546.95 430.285 547.483 430.285 548.55V566.9ZM441.141 532.6C440.307 532.6 439.891 532.183 439.891 531.35V528.35C439.891 527.517 440.307 527.1 441.141 527.1H461.641C462.474 527.1 462.891 527.517 462.891 528.35V531.35C462.891 532.183 462.474 532.6 461.641 532.6H454.241V544.5C454.241 545.933 454.441 547.317 454.841 548.65C455.274 549.983 455.841 551.167 456.541 552.2C457.241 553.233 458.057 554.083 458.991 554.75C459.924 555.417 460.907 555.817 461.941 555.95C462.707 556.05 463.091 556.5 463.091 557.3V560.3C463.091 561.167 462.674 561.55 461.841 561.45C460.641 561.317 459.474 560.983 458.341 560.45C457.241 559.917 456.224 559.25 455.291 558.45C454.357 557.65 453.541 556.733 452.841 555.7C452.174 554.667 451.691 553.567 451.391 552.4C451.057 553.567 450.541 554.667 449.841 555.7C449.174 556.733 448.374 557.65 447.441 558.45C446.507 559.25 445.474 559.917 444.341 560.45C443.241 560.983 442.091 561.317 440.891 561.45C440.057 561.55 439.641 561.167 439.641 560.3V557.3C439.641 556.5 440.024 556.05 440.791 555.95C441.857 555.817 442.857 555.417 443.791 554.75C444.724 554.083 445.541 553.233 446.241 552.2C446.941 551.167 447.491 549.983 447.891 548.65C448.291 547.317 448.491 545.933 448.491 544.5V532.6H441.141ZM469.041 525.3C469.041 524.4 469.474 523.95 470.341 523.95H473.491C474.357 523.95 474.791 524.4 474.791 525.3V566.9C474.791 567.8 474.357 568.25 473.491 568.25H470.341C469.474 568.25 469.041 567.8 469.041 566.9V525.3ZM530.608 568.15C529.575 568.283 528.458 568.4 527.258 568.5C526.058 568.6 524.858 568.683 523.658 568.75C522.492 568.85 521.358 568.917 520.258 568.95C519.192 568.983 518.242 569 517.408 569C513.842 569 510.892 568.9 508.558 568.7C506.225 568.5 504.358 568.133 502.958 567.6C501.592 567.1 500.625 566.417 500.058 565.55C499.492 564.683 499.208 563.583 499.208 562.25C499.208 561.017 499.458 559.983 499.958 559.15C500.458 558.283 501.308 557.6 502.508 557.1C503.708 556.6 505.275 556.25 507.208 556.05C509.175 555.85 511.608 555.75 514.508 555.75C515.875 555.75 517.175 555.75 518.408 555.75C519.675 555.717 520.992 555.7 522.358 555.7C524.092 555.7 524.958 555.167 524.958 554.1C524.958 553 524.142 552.45 522.508 552.45C521.275 552.45 519.725 552.467 517.858 552.5C516.025 552.533 514.108 552.583 512.108 552.65C510.142 552.717 508.208 552.8 506.308 552.9C504.408 552.967 502.758 553.05 501.358 553.15C500.592 553.217 500.208 552.833 500.208 552V549.5C500.208 548.767 500.592 548.383 501.358 548.35C503.225 548.217 505.258 548.117 507.458 548.05C509.658 547.95 511.875 547.883 514.108 547.85C516.342 547.783 518.492 547.75 520.558 547.75C522.658 547.717 524.525 547.733 526.158 547.8C527.725 547.867 528.858 548.233 529.558 548.9C530.292 549.567 530.658 550.533 530.658 551.8C530.658 552.8 530.358 553.7 529.758 554.5C529.192 555.267 528.408 555.833 527.408 556.2H529.158C529.892 556.2 530.258 556.567 530.258 557.3V559.6C530.258 560.333 529.892 560.7 529.158 560.7C527.358 560.633 525.225 560.583 522.758 560.55C520.325 560.517 517.608 560.5 514.608 560.5C512.575 560.5 510.925 560.517 509.658 560.55C508.392 560.617 507.408 560.7 506.708 560.8C506.008 560.933 505.542 561.117 505.308 561.35C505.075 561.617 504.958 561.95 504.958 562.35C504.958 562.783 505.108 563.117 505.408 563.35C505.742 563.617 506.358 563.817 507.258 563.95C508.158 564.083 509.408 564.167 511.008 564.2C512.642 564.233 514.758 564.25 517.358 564.25C518.225 564.25 519.192 564.233 520.258 564.2C521.325 564.167 522.425 564.1 523.558 564C524.725 563.933 525.875 563.85 527.008 563.75C528.175 563.65 529.258 563.533 530.258 563.4C531.025 563.3 531.442 563.633 531.508 564.4L531.658 566.9C531.692 567.633 531.342 568.05 530.608 568.15ZM496.608 530.1C495.808 530.1 495.408 529.7 495.408 528.9V526.3C495.408 525.5 495.808 525.1 496.608 525.1H517.208C518.008 525.1 518.408 525.5 518.408 526.3V528.9C518.408 529.7 518.008 530.1 517.208 530.1H509.758V530.9C509.758 532.167 509.942 533.333 510.308 534.4C510.708 535.467 511.242 536.4 511.908 537.2C512.575 537.967 513.375 538.583 514.308 539.05C515.242 539.483 516.258 539.7 517.358 539.7C518.192 539.7 518.608 540.117 518.608 540.95V543.7C518.608 544.533 518.192 544.95 517.358 544.95C516.058 544.95 514.842 544.75 513.708 544.35C512.575 543.95 511.558 543.433 510.658 542.8C509.758 542.133 508.992 541.383 508.358 540.55C507.725 539.683 507.242 538.8 506.908 537.9C506.575 538.8 506.075 539.683 505.408 540.55C504.775 541.383 504.008 542.133 503.108 542.8C502.208 543.433 501.192 543.95 500.058 544.35C498.925 544.75 497.708 544.95 496.408 544.95C495.575 544.95 495.158 544.533 495.158 543.7V540.95C495.158 540.117 495.575 539.7 496.408 539.7C497.508 539.7 498.525 539.483 499.458 539.05C500.392 538.583 501.192 537.967 501.858 537.2C502.525 536.4 503.042 535.467 503.408 534.4C503.808 533.333 504.008 532.167 504.008 530.9V530.1H496.608ZM524.558 525.3C524.558 524.4 524.992 523.95 525.858 523.95H529.008C529.875 523.95 530.308 524.4 530.308 525.3V543.9C530.308 544.8 529.875 545.25 529.008 545.25H525.858C524.992 545.25 524.558 544.8 524.558 543.9V525.3ZM562.062 538.1C562.596 538.1 563.096 537.983 563.562 537.75C564.029 537.483 564.429 537.133 564.762 536.7C565.096 536.267 565.362 535.767 565.562 535.2C565.762 534.633 565.862 534.033 565.862 533.4C565.862 532.433 565.612 531.667 565.112 531.1C564.646 530.5 563.962 530.2 563.062 530.2H548.562C547.796 530.2 547.412 530.583 547.412 531.35V536.6C547.412 537.6 548.029 538.1 549.262 538.1H562.062ZM555.112 551.45C553.679 551.45 552.196 551.45 550.662 551.45C549.129 551.417 547.646 551.383 546.212 551.35C544.779 551.283 543.412 551.217 542.112 551.15C540.846 551.083 539.729 551.017 538.762 550.95C537.929 550.917 537.512 550.467 537.512 549.6V546.9C537.512 546.033 537.962 545.633 538.862 545.7C540.429 545.833 542.579 545.95 545.312 546.05C548.079 546.117 551.746 546.167 556.312 546.2C558.079 546.2 559.812 546.2 561.512 546.2C563.212 546.2 564.829 546.183 566.362 546.15C567.929 546.117 569.346 546.067 570.612 546C571.912 545.933 573.012 545.85 573.912 545.75C574.812 545.65 575.262 546.05 575.262 546.95V549.65C575.262 550.45 574.846 550.9 574.012 551C573.112 551.1 572.079 551.183 570.912 551.25C569.779 551.283 568.629 551.317 567.462 551.35C566.329 551.383 565.229 551.417 564.162 551.45C563.129 551.45 562.246 551.45 561.512 551.45C560.679 551.45 560.262 551.867 560.262 552.7V558.25C560.262 559.15 559.829 559.6 558.962 559.6H555.812C554.946 559.6 554.512 559.15 554.512 558.25V552.7C554.512 552.1 554.712 551.683 555.112 551.45ZM571.062 538C571.896 538 572.312 538.417 572.312 539.25V542C572.312 542.833 571.896 543.25 571.062 543.25H546.712C545.112 543.25 543.862 542.883 542.962 542.15C542.096 541.417 541.662 540.35 541.662 538.95V527.3C541.662 525.8 542.396 525.05 543.862 525.05H565.912C567.679 525.05 569.062 525.583 570.062 526.65C571.096 527.683 571.612 529.067 571.612 530.8C571.612 532.3 571.262 533.717 570.562 535.05C569.896 536.35 568.996 537.333 567.862 538H571.062ZM541.262 556.15C541.429 555.283 541.929 554.85 542.762 554.85H545.812C546.246 554.85 546.562 554.983 546.762 555.25C546.996 555.483 547.079 555.8 547.012 556.2C546.912 556.733 546.829 557.3 546.762 557.9C546.696 558.467 546.662 559.067 546.662 559.7C546.662 562.4 548.246 563.75 551.412 563.75C553.612 563.75 555.646 563.733 557.512 563.7C559.379 563.667 561.129 563.6 562.762 563.5C564.396 563.433 565.946 563.35 567.412 563.25C568.912 563.15 570.396 563.033 571.862 562.9C572.662 562.8 573.096 563.2 573.162 564.1L573.362 566.85C573.396 567.583 572.996 568 572.162 568.1C569.662 568.367 566.646 568.583 563.112 568.75C559.579 568.917 555.729 569 551.562 569C548.129 569 545.496 568.217 543.662 566.65C541.829 565.083 540.912 562.85 540.912 559.95C540.912 559.183 540.946 558.483 541.012 557.85C541.079 557.217 541.162 556.65 541.262 556.15ZM584.668 538.8C584.668 534.733 586.018 531.6 588.718 529.4C591.451 527.167 595.301 526.05 600.268 526.05C605.235 526.05 609.068 527.167 611.768 529.4C614.501 531.6 615.868 534.733 615.868 538.8C615.868 542.867 614.501 546.017 611.768 548.25C609.068 550.45 605.235 551.55 600.268 551.55C595.268 551.55 591.418 550.45 588.718 548.25C586.018 546.05 584.668 542.9 584.668 538.8ZM600.268 546.2C603.501 546.2 605.951 545.567 607.618 544.3C609.285 543 610.118 541.167 610.118 538.8C610.118 536.4 609.301 534.567 607.668 533.3C606.035 532.033 603.568 531.4 600.268 531.4C596.968 531.4 594.501 532.033 592.868 533.3C591.235 534.567 590.418 536.4 590.418 538.8C590.418 541.167 591.251 543 592.918 544.3C594.585 545.567 597.035 546.2 600.268 546.2ZM582.368 558.15C584.768 558.417 587.401 558.633 590.268 558.8C593.135 558.933 596.318 559 599.818 559C603.418 559 606.751 558.933 609.818 558.8C612.918 558.667 615.451 558.467 617.418 558.2C618.318 558.1 618.768 558.5 618.768 559.4V562.15C618.768 562.917 618.351 563.367 617.518 563.5C616.685 563.633 615.651 563.75 614.418 563.85C613.185 563.95 611.801 564.033 610.268 564.1C608.735 564.2 607.085 564.267 605.318 564.3C603.551 564.333 601.718 564.35 599.818 564.35C591.885 564.35 586.035 564.05 582.268 563.45C581.435 563.317 581.018 562.867 581.018 562.1V559.35C581.018 558.45 581.468 558.05 582.368 558.15ZM625.774 563.45C624.941 563.317 624.524 562.867 624.524 562.1V559.35C624.524 558.45 624.974 558.05 625.874 558.15C626.774 558.25 627.841 558.35 629.074 558.45C630.341 558.55 631.674 558.65 633.074 558.75C634.507 558.817 635.957 558.883 637.424 558.95C638.924 559.017 640.374 559.067 641.774 559.1C641.407 558.933 641.107 558.667 640.874 558.3C640.641 557.9 640.524 557.45 640.524 556.95V551.65C638.257 551.517 636.357 551.283 634.824 550.95C633.324 550.617 632.107 550.133 631.174 549.5C630.274 548.867 629.624 548.067 629.224 547.1C628.857 546.133 628.674 544.983 628.674 543.65C628.674 542.183 628.907 540.967 629.374 540C629.874 539.033 630.691 538.267 631.824 537.7C632.957 537.133 634.474 536.733 636.374 536.5C638.274 536.233 640.641 536.1 643.474 536.1H649.674C651.841 536.1 652.924 535.283 652.924 533.65C652.924 532.85 652.674 532.283 652.174 531.95C651.707 531.617 650.907 531.45 649.774 531.45C648.141 531.45 646.474 531.467 644.774 531.5C643.074 531.533 641.391 531.6 639.724 531.7C638.091 531.767 636.524 531.85 635.024 531.95C633.524 532.05 632.141 532.167 630.874 532.3C630.074 532.4 629.674 532.05 629.674 531.25V528.25C629.674 527.55 630.007 527.15 630.674 527.05C632.807 526.75 635.307 526.517 638.174 526.35C641.074 526.183 643.991 526.1 646.924 526.1C649.024 526.1 651.024 526.15 652.924 526.25C656.724 526.383 658.624 527.983 658.624 531.05C658.624 532.45 658.291 533.633 657.624 534.6C656.991 535.567 656.074 536.267 654.874 536.7H657.124C657.857 536.7 658.224 537.067 658.224 537.8V540.35C658.224 541.117 657.857 541.5 657.124 541.5C654.824 541.5 652.474 541.483 650.074 541.45C647.707 541.383 645.541 541.35 643.574 541.35C641.774 541.35 640.274 541.4 639.074 541.5C637.907 541.567 636.974 541.7 636.274 541.9C635.607 542.067 635.124 542.317 634.824 542.65C634.557 542.983 634.424 543.4 634.424 543.9C634.424 544.433 634.574 544.883 634.874 545.25C635.207 545.583 635.807 545.85 636.674 546.05C637.541 546.25 638.741 546.383 640.274 546.45C641.841 546.517 643.857 546.55 646.324 546.55C648.324 546.55 650.341 546.483 652.374 546.35C654.441 546.183 656.391 545.967 658.224 545.7C658.857 545.6 659.241 545.917 659.374 546.65L659.874 549.5C659.941 549.833 659.874 550.117 659.674 550.35C659.507 550.583 659.257 550.733 658.924 550.8C656.891 551.1 654.741 551.35 652.474 551.55C650.207 551.717 648.174 551.8 646.374 551.8H646.274V557.4C646.274 558.433 646.857 558.95 648.024 558.95C649.091 558.95 650.207 558.933 651.374 558.9C652.541 558.867 653.691 558.817 654.824 558.75C655.957 558.683 657.041 558.6 658.074 558.5C659.141 558.4 660.091 558.3 660.924 558.2C661.824 558.1 662.274 558.5 662.274 559.4V562.15C662.274 562.917 661.857 563.367 661.024 563.5C660.191 563.633 659.157 563.75 657.924 563.85C656.691 563.95 655.307 564.033 653.774 564.1C652.241 564.2 650.591 564.267 648.824 564.3C647.057 564.333 645.224 564.35 643.324 564.35C635.391 564.35 629.541 564.05 625.774 563.45ZM690.694 560.2C690.694 561.6 691.51 562.567 693.144 563.1C694.81 563.633 697.527 563.9 701.294 563.9C705.06 563.9 707.76 563.633 709.394 563.1C711.06 562.567 711.894 561.6 711.894 560.2C711.894 558.833 711.077 557.883 709.444 557.35C707.81 556.817 705.094 556.55 701.294 556.55C697.494 556.55 694.777 556.817 693.144 557.35C691.51 557.883 690.694 558.833 690.694 560.2ZM683.294 548.45C682.46 548.35 682.044 547.9 682.044 547.1V544.4C682.044 543.533 682.494 543.133 683.394 543.2C685.294 543.333 687.344 543.45 689.544 543.55C691.744 543.617 693.994 543.667 696.294 543.7C695.794 543.433 695.544 542.983 695.544 542.35V536.95C695.544 536.05 695.977 535.6 696.844 535.6H699.994C700.86 535.6 701.294 536.05 701.294 536.95V542.4C701.294 543.2 701.71 543.617 702.544 543.65C703.51 543.683 704.71 543.7 706.144 543.7C707.577 543.7 709.044 543.683 710.544 543.65C712.077 543.617 713.544 543.567 714.944 543.5C716.377 543.433 717.544 543.35 718.444 543.25C719.344 543.15 719.794 543.55 719.794 544.45V547.15C719.794 547.95 719.377 548.4 718.544 548.5C717.644 548.6 716.544 548.683 715.244 548.75C713.944 548.817 712.51 548.867 710.944 548.9C709.41 548.933 707.777 548.95 706.044 548.95C704.344 548.95 702.61 548.95 700.844 548.95C696.277 548.917 692.577 548.867 689.744 548.8C686.944 548.733 684.794 548.617 683.294 548.45ZM710.394 534.95C710.394 533.25 709.994 532.05 709.194 531.35C708.427 530.65 707.127 530.3 705.294 530.3C702.094 530.3 699.094 530.367 696.294 530.5C693.494 530.633 690.544 530.867 687.444 531.2C686.61 531.3 686.194 530.9 686.194 530V527.2C686.194 526.433 686.61 526 687.444 525.9C690.144 525.633 693.077 525.433 696.244 525.3C699.444 525.133 702.66 525.05 705.894 525.05C709.427 525.05 712.01 525.733 713.644 527.1C715.31 528.467 716.144 530.6 716.144 533.5C716.144 535 716.094 536.267 715.994 537.3C715.894 538.333 715.727 539.333 715.494 540.3C715.394 540.7 715.244 540.967 715.044 541.1C714.844 541.233 714.527 541.267 714.094 541.2L710.694 540.7C709.894 540.6 709.594 540.183 709.794 539.45C709.994 538.65 710.144 537.9 710.244 537.2C710.344 536.467 710.394 535.717 710.394 534.95ZM684.944 560.2C684.944 557.133 686.277 554.9 688.944 553.5C691.61 552.1 695.727 551.4 701.294 551.4C706.86 551.4 710.977 552.1 713.644 553.5C716.31 554.9 717.644 557.133 717.644 560.2C717.644 563.267 716.31 565.5 713.644 566.9C710.977 568.333 706.86 569.05 701.294 569.05C695.727 569.05 691.61 568.333 688.944 566.9C686.277 565.5 684.944 563.267 684.944 560.2ZM739.749 547.1C740.016 546.133 740.249 545.1 740.449 544C740.683 542.9 740.883 541.817 741.049 540.75C741.249 539.65 741.399 538.583 741.499 537.55C741.599 536.517 741.649 535.583 741.649 534.75C741.649 532.017 740.283 530.65 737.549 530.65C736.216 530.65 735.049 530.683 734.049 530.75C733.049 530.783 732.149 530.85 731.349 530.95C730.549 531.017 729.783 531.117 729.049 531.25C728.349 531.35 727.583 531.45 726.749 531.55C726.349 531.617 726.033 531.533 725.799 531.3C725.566 531.033 725.449 530.683 725.449 530.25V527.35C725.449 526.55 725.866 526.1 726.699 526C728.633 525.733 730.466 525.517 732.199 525.35C733.933 525.183 735.799 525.1 737.799 525.1C741.199 525.1 743.649 525.867 745.149 527.4C746.683 528.933 747.449 531.417 747.449 534.85C747.449 535.583 747.399 536.467 747.299 537.5C747.199 538.5 747.066 539.567 746.899 540.7C746.733 541.8 746.533 542.917 746.299 544.05C746.099 545.183 745.866 546.25 745.599 547.25C745.499 547.717 745.316 548.033 745.049 548.2C744.816 548.367 744.499 548.45 744.099 548.45H740.899C740.433 548.45 740.099 548.317 739.899 548.05C739.699 547.783 739.649 547.467 739.749 547.1ZM758.849 553.4C758.849 554.3 758.416 554.75 757.549 554.75H754.399C753.533 554.75 753.099 554.3 753.099 553.4V525.3C753.099 524.4 753.533 523.95 754.399 523.95H757.549C758.416 523.95 758.849 524.4 758.849 525.3V536.95C759.216 536.283 759.899 535.95 760.899 535.95H763.849C764.683 535.95 765.099 536.367 765.099 537.2V539.95C765.099 540.783 764.683 541.2 763.849 541.2H760.599C759.433 541.2 758.849 541.733 758.849 542.8V553.4ZM729.549 554.15C729.716 553.283 730.199 552.85 730.999 552.85H733.999C734.433 552.85 734.766 552.983 734.999 553.25C735.266 553.483 735.366 553.8 735.299 554.2C735.233 554.8 735.166 555.533 735.099 556.4C735.033 557.267 734.999 558.183 734.999 559.15C734.999 560.65 735.449 561.783 736.349 562.55C737.249 563.35 738.466 563.75 739.999 563.75C742.099 563.75 743.966 563.733 745.599 563.7C747.266 563.667 748.816 563.6 750.249 563.5C751.716 563.433 753.116 563.35 754.449 563.25C755.816 563.15 757.233 563.033 758.699 562.9C759.499 562.8 759.933 563.2 759.999 564.1L760.199 566.85C760.233 567.583 759.833 568 758.999 568.1C756.499 568.367 753.716 568.583 750.649 568.75C747.616 568.917 744.149 569 740.249 569C736.749 569 734.033 568.183 732.099 566.55C730.199 564.917 729.249 562.633 729.249 559.7C729.249 558.633 729.266 557.6 729.299 556.6C729.366 555.6 729.449 554.783 729.549 554.15ZM778.455 532.3C778.455 532.9 778.605 533.4 778.905 533.8C779.239 534.167 779.789 534.483 780.555 534.75C781.322 534.983 782.339 535.15 783.605 535.25C784.872 535.35 786.439 535.4 788.305 535.4C790.172 535.4 791.739 535.35 793.005 535.25C794.272 535.15 795.289 534.983 796.055 534.75C796.822 534.483 797.355 534.167 797.655 533.8C797.989 533.4 798.155 532.9 798.155 532.3C798.155 531.7 797.989 531.217 797.655 530.85C797.355 530.45 796.822 530.133 796.055 529.9C795.289 529.633 794.272 529.45 793.005 529.35C791.739 529.25 790.172 529.2 788.305 529.2C786.439 529.2 784.872 529.25 783.605 529.35C782.339 529.45 781.322 529.633 780.555 529.9C779.789 530.133 779.239 530.45 778.905 530.85C778.605 531.217 778.455 531.7 778.455 532.3ZM803.905 568.15C803.005 568.283 801.972 568.4 800.805 568.5C799.639 568.6 798.439 568.683 797.205 568.75C795.972 568.85 794.772 568.917 793.605 568.95C792.439 568.983 791.372 569 790.405 569C786.772 569 783.789 568.9 781.455 568.7C779.122 568.533 777.289 568.217 775.955 567.75C774.622 567.283 773.705 566.633 773.205 565.8C772.705 565 772.455 563.95 772.455 562.65C772.455 561.45 772.672 560.467 773.105 559.7C773.572 558.9 774.372 558.267 775.505 557.8C776.672 557.3 778.222 556.967 780.155 556.8C782.089 556.6 784.539 556.5 787.505 556.5C788.872 556.5 790.255 556.517 791.655 556.55C793.055 556.583 794.405 556.567 795.705 556.5C796.639 556.467 797.289 556.35 797.655 556.15C798.022 555.95 798.205 555.583 798.205 555.05C798.205 554.483 798.022 554.083 797.655 553.85C797.322 553.617 796.722 553.5 795.855 553.5C794.589 553.5 793.022 553.517 791.155 553.55C789.322 553.583 787.405 553.633 785.405 553.7C783.405 553.767 781.439 553.85 779.505 553.95C777.605 554.017 775.955 554.1 774.555 554.2C773.822 554.233 773.455 553.85 773.455 553.05V550.8C773.455 550.067 773.822 549.683 774.555 549.65C776.455 549.517 778.505 549.417 780.705 549.35C782.905 549.25 785.105 549.183 787.305 549.15C789.539 549.083 791.689 549.05 793.755 549.05C795.855 549.017 797.705 549.017 799.305 549.05C801.005 549.117 802.189 549.433 802.855 550C803.555 550.567 803.905 551.467 803.905 552.7C803.905 553.7 803.605 554.583 803.005 555.35C802.439 556.083 801.655 556.617 800.655 556.95H802.455C803.155 556.95 803.505 557.317 803.505 558.05V560.1C803.505 560.9 803.155 561.267 802.455 561.2C800.889 561.133 798.872 561.083 796.405 561.05C793.972 561.017 791.039 561 787.605 561C785.505 561 783.839 561.017 782.605 561.05C781.372 561.117 780.422 561.2 779.755 561.3C779.122 561.433 778.705 561.617 778.505 561.85C778.305 562.083 778.205 562.383 778.205 562.75C778.205 563.183 778.355 563.517 778.655 563.75C778.989 563.983 779.589 564.15 780.455 564.25C781.355 564.383 782.589 564.45 784.155 564.45C785.755 564.483 787.822 564.5 790.355 564.5C791.289 564.5 792.322 564.483 793.455 564.45C794.589 564.417 795.739 564.35 796.905 564.25C798.105 564.183 799.272 564.1 800.405 564C801.572 563.9 802.622 563.783 803.555 563.65C804.289 563.55 804.689 563.883 804.755 564.65L804.905 566.9C804.939 567.633 804.605 568.05 803.905 568.15ZM805.555 541.65C806.389 541.55 806.805 541.917 806.805 542.75V545.15C806.805 545.883 806.422 546.3 805.655 546.4C804.755 546.5 803.639 546.583 802.305 546.65C801.005 546.717 799.572 546.767 798.005 546.8C796.472 546.833 794.839 546.85 793.105 546.85C791.372 546.85 789.622 546.85 787.855 546.85C783.255 546.817 779.539 546.767 776.705 546.7C773.872 546.633 771.705 546.517 770.205 546.35C769.439 546.25 769.055 545.85 769.055 545.15V542.7C769.055 541.9 769.472 541.533 770.305 541.6C771.472 541.667 772.772 541.733 774.205 541.8C775.639 541.833 777.122 541.883 778.655 541.95C780.189 541.983 781.739 542.017 783.305 542.05C784.872 542.083 786.389 542.1 787.855 542.1C791.955 542.1 795.455 542.083 798.355 542.05C801.255 541.983 803.655 541.85 805.555 541.65ZM772.705 532.3C772.705 530.9 772.989 529.717 773.555 528.75C774.155 527.75 775.072 526.95 776.305 526.35C777.572 525.717 779.189 525.267 781.155 525C783.155 524.7 785.539 524.55 788.305 524.55C791.072 524.55 793.439 524.7 795.405 525C797.405 525.267 799.022 525.717 800.255 526.35C801.522 526.95 802.439 527.75 803.005 528.75C803.605 529.717 803.905 530.9 803.905 532.3C803.905 533.7 803.605 534.9 803.005 535.9C802.439 536.867 801.522 537.667 800.255 538.3C799.022 538.9 797.405 539.35 795.405 539.65C793.439 539.917 791.072 540.05 788.305 540.05C785.539 540.05 783.155 539.917 781.155 539.65C779.189 539.35 777.572 538.9 776.305 538.3C775.072 537.667 774.155 536.867 773.555 535.9C772.989 534.9 772.705 533.7 772.705 532.3ZM861.175 568.15C860.141 568.283 859.025 568.4 857.825 568.5C856.625 568.6 855.425 568.683 854.225 568.75C853.058 568.85 851.925 568.917 850.825 568.95C849.758 568.983 848.808 569 847.975 569C844.408 569 841.458 568.9 839.125 568.7C836.791 568.5 834.925 568.133 833.525 567.6C832.158 567.1 831.191 566.417 830.625 565.55C830.058 564.683 829.775 563.583 829.775 562.25C829.775 561.017 830.025 559.983 830.525 559.15C831.025 558.283 831.875 557.6 833.075 557.1C834.275 556.6 835.841 556.25 837.775 556.05C839.741 555.85 842.175 555.75 845.075 555.75C846.441 555.75 847.741 555.75 848.975 555.75C850.241 555.717 851.558 555.7 852.925 555.7C854.658 555.7 855.525 555.167 855.525 554.1C855.525 553 854.708 552.45 853.075 552.45C851.841 552.45 850.291 552.467 848.425 552.5C846.591 552.533 844.675 552.583 842.675 552.65C840.708 552.717 838.775 552.8 836.875 552.9C834.975 552.967 833.325 553.05 831.925 553.15C831.158 553.217 830.775 552.833 830.775 552V549.5C830.775 548.767 831.158 548.383 831.925 548.35C833.791 548.217 835.825 548.117 838.025 548.05C840.225 547.95 842.441 547.883 844.675 547.85C846.908 547.783 849.058 547.75 851.125 547.75C853.225 547.717 855.091 547.733 856.725 547.8C858.291 547.867 859.425 548.233 860.125 548.9C860.858 549.567 861.225 550.533 861.225 551.8C861.225 552.8 860.925 553.7 860.325 554.5C859.758 555.267 858.975 555.833 857.975 556.2H859.725C860.458 556.2 860.825 556.567 860.825 557.3V559.6C860.825 560.333 860.458 560.7 859.725 560.7C857.925 560.633 855.791 560.583 853.325 560.55C850.891 560.517 848.175 560.5 845.175 560.5C843.141 560.5 841.491 560.517 840.225 560.55C838.958 560.617 837.975 560.7 837.275 560.8C836.575 560.933 836.108 561.117 835.875 561.35C835.641 561.617 835.525 561.95 835.525 562.35C835.525 562.783 835.675 563.117 835.975 563.35C836.308 563.617 836.925 563.817 837.825 563.95C838.725 564.083 839.975 564.167 841.575 564.2C843.208 564.233 845.325 564.25 847.925 564.25C848.791 564.25 849.758 564.233 850.825 564.2C851.891 564.167 852.991 564.1 854.125 564C855.291 563.933 856.441 563.85 857.575 563.75C858.741 563.65 859.825 563.533 860.825 563.4C861.591 563.3 862.008 563.633 862.075 564.4L862.225 566.9C862.258 567.633 861.908 568.05 861.175 568.15ZM840.325 530.9C840.325 532.167 840.508 533.333 840.875 534.4C841.275 535.467 841.808 536.4 842.475 537.2C843.141 537.967 843.941 538.583 844.875 539.05C845.808 539.483 846.825 539.7 847.925 539.7C848.758 539.7 849.175 540.117 849.175 540.95V543.7C849.175 544.533 848.758 544.95 847.925 544.95C846.625 544.95 845.408 544.75 844.275 544.35C843.141 543.95 842.125 543.433 841.225 542.8C840.325 542.133 839.558 541.383 838.925 540.55C838.291 539.683 837.808 538.8 837.475 537.9C837.141 538.8 836.641 539.683 835.975 540.55C835.341 541.383 834.575 542.133 833.675 542.8C832.775 543.433 831.758 543.95 830.625 544.35C829.491 544.75 828.275 544.95 826.975 544.95C826.141 544.95 825.725 544.533 825.725 543.7V540.95C825.725 540.117 826.141 539.7 826.975 539.7C828.075 539.7 829.091 539.483 830.025 539.05C830.958 538.583 831.758 537.967 832.425 537.2C833.091 536.4 833.608 535.467 833.975 534.4C834.375 533.333 834.575 532.167 834.575 530.9V526.45C834.575 525.55 835.008 525.1 835.875 525.1H839.025C839.891 525.1 840.325 525.55 840.325 526.45V530.9ZM855.125 525.3C855.125 524.4 855.558 523.95 856.425 523.95H859.575C860.441 523.95 860.875 524.4 860.875 525.3V543.9C860.875 544.8 860.441 545.25 859.575 545.25H856.425C855.558 545.25 855.125 544.8 855.125 543.9V534.35C854.758 535.017 854.075 535.35 853.075 535.35H847.825C846.991 535.35 846.575 534.933 846.575 534.1V531.35C846.575 530.517 846.991 530.1 847.825 530.1H853.375C854.541 530.1 855.125 529.567 855.125 528.5V525.3ZM870.779 559.55C870.779 553.217 876.229 550.05 887.129 550.05C898.029 550.05 903.479 553.217 903.479 559.55C903.479 565.883 898.029 569.05 887.129 569.05C876.229 569.05 870.779 565.883 870.779 559.55ZM868.729 530.35C867.895 530.35 867.479 529.933 867.479 529.1V526.35C867.479 525.517 867.895 525.1 868.729 525.1H889.229C890.062 525.1 890.479 525.517 890.479 526.35V529.1C890.479 529.933 890.062 530.35 889.229 530.35H881.829V531.9C881.829 533.233 882.012 534.483 882.379 535.65C882.779 536.783 883.312 537.767 883.979 538.6C884.645 539.4 885.445 540.033 886.379 540.5C887.312 540.967 888.329 541.2 889.429 541.2C890.262 541.2 890.679 541.617 890.679 542.45V545.2C890.679 546.033 890.262 546.45 889.429 546.45C888.129 546.45 886.912 546.267 885.779 545.9C884.645 545.5 883.629 544.967 882.729 544.3C881.829 543.633 881.062 542.867 880.429 542C879.795 541.133 879.312 540.217 878.979 539.25C878.645 540.217 878.145 541.133 877.479 542C876.845 542.867 876.079 543.633 875.179 544.3C874.279 544.967 873.262 545.5 872.129 545.9C870.995 546.267 869.779 546.45 868.479 546.45C867.645 546.45 867.229 546.033 867.229 545.2V542.45C867.229 541.617 867.645 541.2 868.479 541.2C869.579 541.2 870.595 540.967 871.529 540.5C872.462 540.033 873.262 539.4 873.929 538.6C874.595 537.767 875.112 536.783 875.479 535.65C875.879 534.483 876.079 533.233 876.079 531.9V530.35H868.729ZM896.629 525.3C896.629 524.4 897.062 523.95 897.929 523.95H901.079C901.945 523.95 902.379 524.4 902.379 525.3V546.4C902.379 547.3 901.945 547.75 901.079 547.75H897.929C897.062 547.75 896.629 547.3 896.629 546.4V537.3C896.262 537.967 895.579 538.3 894.579 538.3H891.079C890.245 538.3 889.829 537.883 889.829 537.05V534.3C889.829 533.467 890.245 533.05 891.079 533.05H894.879C896.045 533.05 896.629 532.517 896.629 531.45V525.3ZM876.529 559.55C876.529 560.217 876.712 560.8 877.079 561.3C877.445 561.833 878.045 562.283 878.879 562.65C879.712 563.017 880.795 563.3 882.129 563.5C883.495 563.7 885.162 563.8 887.129 563.8C889.095 563.8 890.745 563.7 892.079 563.5C893.445 563.3 894.545 563.017 895.379 562.65C896.212 562.283 896.812 561.833 897.179 561.3C897.545 560.8 897.729 560.217 897.729 559.55C897.729 558.883 897.545 558.3 897.179 557.8C896.812 557.267 896.212 556.817 895.379 556.45C894.545 556.083 893.445 555.8 892.079 555.6C890.745 555.4 889.095 555.3 887.129 555.3C885.162 555.3 883.495 555.4 882.129 555.6C880.795 555.8 879.712 556.083 878.879 556.45C878.045 556.817 877.445 557.267 877.079 557.8C876.712 558.3 876.529 558.883 876.529 559.55ZM948.233 567C948.233 567.833 947.816 568.25 946.983 568.25H943.983C943.149 568.25 942.733 567.833 942.733 567V546.95H939.733C939.166 546.95 938.766 547.05 938.533 547.25C938.333 547.45 938.233 547.8 938.233 548.3V567C938.233 567.833 937.816 568.25 936.983 568.25H933.983C933.149 568.25 932.733 567.833 932.733 567V525.7C932.733 524.867 933.149 524.45 933.983 524.45H936.983C937.816 524.45 938.233 524.867 938.233 525.7V542.35C938.599 541.75 939.166 541.45 939.933 541.45H942.733V525.2C942.733 524.367 943.149 523.95 943.983 523.95H946.983C947.816 523.95 948.233 524.367 948.233 525.2V567ZM927.833 549.1C927.833 553.1 927.016 556.167 925.383 558.3C923.783 560.4 921.449 561.45 918.383 561.45C915.349 561.45 913.016 560.4 911.383 558.3C909.783 556.167 908.983 553.1 908.983 549.1C908.983 545.133 909.783 542.1 911.383 540C913.016 537.867 915.349 536.8 918.383 536.8C921.449 536.8 923.783 537.85 925.383 539.95C927.016 542.05 927.833 545.1 927.833 549.1ZM928.083 528.1C928.916 528.1 929.333 528.517 929.333 529.35V532.35C929.333 533.183 928.916 533.6 928.083 533.6H908.733C907.899 533.6 907.483 533.183 907.483 532.35V529.35C907.483 528.517 907.899 528.1 908.733 528.1H916.433C915.933 527.833 915.683 527.383 915.683 526.75V524C915.683 523.167 916.099 522.75 916.933 522.75H919.933C920.766 522.75 921.183 523.167 921.183 524V527.2C921.183 527.8 921.533 528.1 922.233 528.1H928.083ZM918.383 542.3C915.783 542.3 914.483 544.567 914.483 549.1C914.483 553.667 915.783 555.95 918.383 555.95C921.016 555.95 922.333 553.667 922.333 549.1C922.333 544.567 921.016 542.3 918.383 542.3ZM991.935 546.8C991.035 546.9 989.918 546.983 988.585 547.05C987.285 547.117 985.851 547.167 984.285 547.2C982.751 547.233 981.118 547.25 979.385 547.25C977.651 547.25 975.901 547.25 974.135 547.25C969.535 547.217 965.818 547.167 962.985 547.1C960.151 547.033 957.985 546.917 956.485 546.75C955.718 546.65 955.335 546.25 955.335 545.55V543.1C955.335 542.3 955.751 541.933 956.585 542C957.551 542.067 958.651 542.133 959.885 542.2C961.151 542.233 962.485 542.283 963.885 542.35C965.285 542.383 966.685 542.417 968.085 542.45C969.518 542.483 970.851 542.5 972.085 542.5C971.585 542.233 971.335 541.783 971.335 541.15V539.7H964.635C961.501 539.7 959.818 538.317 959.585 535.55L958.835 526.35C958.768 525.483 959.201 525.05 960.135 525.05H963.285C964.085 525.05 964.518 525.483 964.585 526.35L964.685 527.4H983.685L983.785 526.35C983.851 525.483 984.285 525.05 985.085 525.05H988.235C989.168 525.05 989.601 525.483 989.535 526.35L988.785 535.55C988.551 538.317 986.868 539.7 983.735 539.7H977.085V541.2C977.085 542 977.501 542.417 978.335 542.45C979.301 542.483 980.368 542.5 981.535 542.5C982.735 542.5 983.935 542.483 985.135 542.45C986.368 542.417 987.568 542.367 988.735 542.3C989.901 542.233 990.935 542.15 991.835 542.05C992.668 541.95 993.085 542.317 993.085 543.15V545.55C993.085 546.283 992.701 546.7 991.935 546.8ZM990.185 568.15C989.285 568.283 988.251 568.4 987.085 568.5C985.918 568.6 984.718 568.683 983.485 568.75C982.251 568.85 981.051 568.917 979.885 568.95C978.718 568.983 977.651 569 976.685 569C973.051 569 970.068 568.9 967.735 568.7C965.401 568.533 963.568 568.217 962.235 567.75C960.901 567.283 959.985 566.633 959.485 565.8C958.985 565 958.735 563.95 958.735 562.65C958.735 561.45 958.951 560.467 959.385 559.7C959.851 558.9 960.651 558.267 961.785 557.8C962.951 557.3 964.501 556.967 966.435 556.8C968.368 556.6 970.818 556.5 973.785 556.5C975.151 556.5 976.535 556.517 977.935 556.55C979.335 556.583 980.685 556.567 981.985 556.5C982.918 556.467 983.568 556.35 983.935 556.15C984.301 555.95 984.485 555.583 984.485 555.05C984.485 554.483 984.301 554.083 983.935 553.85C983.601 553.617 983.001 553.5 982.135 553.5C980.868 553.5 979.301 553.517 977.435 553.55C975.601 553.583 973.685 553.633 971.685 553.7C969.685 553.767 967.718 553.85 965.785 553.95C963.885 554.017 962.235 554.1 960.835 554.2C960.101 554.233 959.735 553.85 959.735 553.05V550.8C959.735 550.067 960.101 549.683 960.835 549.65C962.735 549.517 964.785 549.417 966.985 549.35C969.185 549.25 971.385 549.183 973.585 549.15C975.818 549.083 977.968 549.05 980.035 549.05C982.135 549.017 983.985 549.017 985.585 549.05C987.285 549.117 988.468 549.433 989.135 550C989.835 550.567 990.185 551.467 990.185 552.7C990.185 553.7 989.885 554.583 989.285 555.35C988.718 556.083 987.935 556.617 986.935 556.95H988.735C989.435 556.95 989.785 557.317 989.785 558.05V560.1C989.785 560.9 989.435 561.267 988.735 561.2C987.168 561.133 985.151 561.083 982.685 561.05C980.251 561.017 977.318 561 973.885 561C971.785 561 970.118 561.017 968.885 561.05C967.651 561.117 966.701 561.2 966.035 561.3C965.401 561.433 964.985 561.617 964.785 561.85C964.585 562.083 964.485 562.383 964.485 562.75C964.485 563.183 964.635 563.517 964.935 563.75C965.268 563.983 965.868 564.15 966.735 564.25C967.635 564.383 968.868 564.45 970.435 564.45C972.035 564.483 974.101 564.5 976.635 564.5C977.568 564.5 978.601 564.483 979.735 564.45C980.868 564.417 982.018 564.35 983.185 564.25C984.385 564.183 985.551 564.1 986.685 564C987.851 563.9 988.901 563.783 989.835 563.65C990.568 563.55 990.968 563.883 991.035 564.65L991.185 566.9C991.218 567.633 990.885 568.05 990.185 568.15ZM965.185 533.5C965.251 534.1 965.401 534.517 965.635 534.75C965.901 534.95 966.368 535.05 967.035 535.05H981.335C982.001 535.05 982.468 534.95 982.735 534.75C983.001 534.517 983.168 534.1 983.235 533.5L983.335 532.05H965.085L965.185 533.5ZM1015.39 560.25C1015.32 560.717 1015.19 561.033 1014.99 561.2C1014.79 561.367 1014.47 561.45 1014.04 561.45H1011.04C1010.11 561.45 1009.71 561.033 1009.84 560.2C1010.47 556.567 1010.94 552.783 1011.24 548.85C1011.57 544.883 1011.74 541.067 1011.74 537.4C1011.74 536.467 1011.67 535.7 1011.54 535.1C1011.44 534.467 1011.22 533.983 1010.89 533.65C1010.59 533.283 1010.17 533.033 1009.64 532.9C1009.11 532.733 1008.44 532.65 1007.64 532.65C1006.04 532.65 1004.49 532.75 1002.99 532.95C1001.52 533.117 1000.21 533.317 999.04 533.55C998.64 533.617 998.324 533.533 998.09 533.3C997.857 533.033 997.74 532.683 997.74 532.25V529.35C997.74 528.583 998.157 528.133 998.99 528C1000.42 527.733 1001.96 527.517 1003.59 527.35C1005.26 527.183 1006.87 527.1 1008.44 527.1C1010.07 527.1 1011.44 527.267 1012.54 527.6C1013.67 527.933 1014.59 528.5 1015.29 529.3C1015.99 530.067 1016.49 531.067 1016.79 532.3C1017.09 533.533 1017.24 535.05 1017.24 536.85C1017.24 537.583 1017.24 538.317 1017.24 539.05C1017.24 539.783 1017.22 540.517 1017.19 541.25H1021.74C1022.31 541.25 1022.69 541.15 1022.89 540.95C1023.12 540.75 1023.24 540.4 1023.24 539.9V525.7C1023.24 524.867 1023.66 524.45 1024.49 524.45H1027.49C1028.32 524.45 1028.74 524.867 1028.74 525.7V567C1028.74 567.833 1028.32 568.25 1027.49 568.25H1024.49C1023.66 568.25 1023.24 567.833 1023.24 567V545.85C1023.07 546.117 1022.84 546.333 1022.54 546.5C1022.24 546.667 1021.91 546.75 1021.54 546.75H1017.44C1017.21 546.75 1017.04 546.733 1016.94 546.7C1016.77 549.033 1016.56 551.333 1016.29 553.6C1016.06 555.867 1015.76 558.083 1015.39 560.25ZM1037.49 567C1037.49 567.833 1037.07 568.25 1036.24 568.25H1033.24C1032.41 568.25 1031.99 567.833 1031.99 567V525.2C1031.99 524.367 1032.41 523.95 1033.24 523.95H1036.24C1037.07 523.95 1037.49 524.367 1037.49 525.2V567ZM1068.59 551.15C1067.06 551.417 1065.48 551.55 1063.84 551.55C1061.91 551.55 1060.08 551.367 1058.34 551V557.4C1058.34 558.433 1058.93 558.95 1060.09 558.95C1060.69 558.95 1061.41 558.95 1062.24 558.95C1063.08 558.95 1063.93 558.95 1064.79 558.95C1065.69 558.95 1066.59 558.95 1067.49 558.95C1068.39 558.917 1069.21 558.9 1069.94 558.9C1069.54 558.733 1069.21 558.467 1068.94 558.1C1068.71 557.7 1068.59 557.233 1068.59 556.7V551.15ZM1063.84 546.2C1067.08 546.2 1069.53 545.567 1071.19 544.3C1072.86 543 1073.69 541.167 1073.69 538.8C1073.69 536.4 1072.88 534.567 1071.24 533.3C1069.61 532.033 1067.14 531.4 1063.84 531.4C1060.54 531.4 1058.08 532.033 1056.44 533.3C1054.81 534.567 1053.99 536.4 1053.99 538.8C1053.99 541.167 1054.83 543 1056.49 544.3C1058.16 545.567 1060.61 546.2 1063.84 546.2ZM1048.24 538.8C1048.24 534.733 1049.59 531.6 1052.29 529.4C1055.03 527.167 1058.88 526.05 1063.84 526.05C1068.81 526.05 1072.64 527.167 1075.34 529.4C1078.08 531.6 1079.44 534.733 1079.44 538.8C1079.44 541.1 1079.01 543.1 1078.14 544.8C1077.28 546.5 1076.01 547.9 1074.34 549V557.1C1074.34 558.133 1074.93 558.65 1076.09 558.65C1076.46 558.65 1076.88 558.633 1077.34 558.6C1077.81 558.567 1078.28 558.533 1078.74 558.5C1079.21 558.433 1079.64 558.383 1080.04 558.35C1080.44 558.283 1080.76 558.233 1080.99 558.2C1081.89 558.1 1082.34 558.5 1082.34 559.4V562.15C1082.34 562.917 1081.93 563.367 1081.09 563.5C1080.26 563.633 1079.23 563.75 1077.99 563.85C1076.76 563.95 1075.38 564.033 1073.84 564.1C1072.31 564.2 1070.66 564.267 1068.89 564.3C1067.13 564.333 1065.29 564.35 1063.39 564.35C1055.46 564.35 1049.61 564.05 1045.84 563.45C1045.01 563.317 1044.59 562.867 1044.59 562.1V559.35C1044.59 558.45 1045.04 558.05 1045.94 558.15C1047.34 558.35 1048.68 558.533 1049.94 558.7C1051.21 558.867 1052.48 558.983 1053.74 559.05C1052.98 558.617 1052.59 557.917 1052.59 556.95V549C1052.59 548.767 1052.61 548.6 1052.64 548.5C1051.21 547.433 1050.11 546.083 1049.34 544.45C1048.61 542.817 1048.24 540.933 1048.24 538.8ZM1089.2 563.4C1089.2 562.5 1089.63 562.05 1090.5 562.05H1093.65C1094.51 562.05 1094.95 562.5 1094.95 563.4V567.9C1094.95 568.8 1094.51 569.25 1093.65 569.25H1090.5C1089.63 569.25 1089.2 568.8 1089.2 567.9V563.4ZM1089.2 524.8C1089.2 523.9 1089.63 523.45 1090.5 523.45H1093.65C1094.51 523.45 1094.95 523.9 1094.95 524.8V558.2C1094.95 559.1 1094.51 559.55 1093.65 559.55H1090.5C1089.63 559.55 1089.2 559.1 1089.2 558.2V524.8ZM291.068 606.6C290.234 606.6 289.818 606.183 289.818 605.35V602.35C289.818 601.517 290.234 601.1 291.068 601.1H311.568C312.401 601.1 312.818 601.517 312.818 602.35V605.35C312.818 606.183 312.401 606.6 311.568 606.6H304.168V618.5C304.168 619.933 304.368 621.317 304.768 622.65C305.201 623.983 305.768 625.167 306.468 626.2C307.168 627.233 307.984 628.083 308.918 628.75C309.851 629.417 310.834 629.817 311.868 629.95C312.634 630.05 313.018 630.5 313.018 631.3V634.3C313.018 635.167 312.601 635.55 311.768 635.45C310.568 635.317 309.401 634.983 308.268 634.45C307.168 633.917 306.151 633.25 305.218 632.45C304.284 631.65 303.468 630.733 302.768 629.7C302.101 628.667 301.618 627.567 301.318 626.4C300.984 627.567 300.468 628.667 299.768 629.7C299.101 630.733 298.301 631.65 297.368 632.45C296.434 633.25 295.401 633.917 294.268 634.45C293.168 634.983 292.018 635.317 290.818 635.45C289.984 635.55 289.568 635.167 289.568 634.3V631.3C289.568 630.5 289.951 630.05 290.718 629.95C291.784 629.817 292.784 629.417 293.718 628.75C294.651 628.083 295.468 627.233 296.168 626.2C296.868 625.167 297.418 623.983 297.818 622.65C298.218 621.317 298.418 619.933 298.418 618.5V606.6H291.068ZM318.968 599.3C318.968 598.4 319.401 597.95 320.268 597.95H323.418C324.284 597.95 324.718 598.4 324.718 599.3V640.9C324.718 641.8 324.284 642.25 323.418 642.25H320.268C319.401 642.25 318.968 641.8 318.968 640.9V599.3ZM366.221 637.25C367.055 637.25 367.471 637.667 367.471 638.5V641.25C367.471 642.083 367.055 642.5 366.221 642.5H340.371C338.771 642.5 337.521 642.133 336.621 641.4C335.755 640.667 335.321 639.6 335.321 638.2V626.8C335.321 625.3 336.055 624.55 337.521 624.55H361.171C362.938 624.55 364.305 625.05 365.271 626.05C366.271 627.05 366.771 628.433 366.771 630.2C366.771 631.733 366.421 633.117 365.721 634.35C365.055 635.617 364.171 636.583 363.071 637.25H366.221ZM333.271 614.8C334.438 614.867 335.721 614.933 337.121 615C338.521 615.033 339.988 615.083 341.521 615.15C343.055 615.183 344.605 615.217 346.171 615.25C347.738 615.283 349.255 615.3 350.721 615.3C352.321 615.3 353.805 615.3 355.171 615.3C356.538 615.3 357.838 615.283 359.071 615.25C359.438 614.283 359.721 613.25 359.921 612.15C360.155 611.017 360.271 610.033 360.271 609.2C360.271 607.467 359.855 606.217 359.021 605.45C358.188 604.683 356.821 604.3 354.921 604.3C353.321 604.3 351.788 604.317 350.321 604.35C348.888 604.383 347.455 604.433 346.021 604.5C344.621 604.567 343.205 604.667 341.771 604.8C340.371 604.9 338.888 605.033 337.321 605.2C336.488 605.3 336.071 604.9 336.071 604V601.2C336.071 600.433 336.488 600 337.321 599.9C340.021 599.633 342.921 599.433 346.021 599.3C349.121 599.133 352.288 599.05 355.521 599.05C362.521 599.05 366.021 601.95 366.021 607.75C366.021 609.05 365.938 610.35 365.771 611.65C365.605 612.917 365.388 614.067 365.121 615.1C365.721 615.067 366.288 615.033 366.821 615C367.355 614.967 367.855 614.917 368.321 614.85C369.221 614.75 369.671 615.15 369.671 616.05V618.75C369.671 619.55 369.255 620 368.421 620.1C367.521 620.2 366.421 620.283 365.121 620.35C363.821 620.417 362.388 620.467 360.821 620.5C359.288 620.533 357.655 620.55 355.921 620.55C354.221 620.55 352.488 620.55 350.721 620.55C346.155 620.517 342.455 620.467 339.621 620.4C336.821 620.333 334.671 620.217 333.171 620.05C332.338 619.95 331.921 619.5 331.921 618.7V616C331.921 615.133 332.371 614.733 333.271 614.8ZM357.221 637.35C358.321 637.35 359.221 636.917 359.921 636.05C360.655 635.183 361.021 634.1 361.021 632.8C361.021 631.833 360.788 631.083 360.321 630.55C359.855 629.983 359.188 629.7 358.321 629.7H342.221C341.455 629.7 341.071 630.083 341.071 630.85V635.85C341.071 636.85 341.688 637.35 342.921 637.35H357.221ZM402.641 617.6C402.908 616.833 403.141 616.017 403.341 615.15C403.574 614.25 403.774 613.383 403.941 612.55C404.141 611.683 404.291 610.867 404.391 610.1C404.491 609.3 404.541 608.6 404.541 608C404.541 606.733 404.274 605.867 403.741 605.4C403.208 604.9 402.358 604.65 401.191 604.65C399.791 604.65 398.574 604.683 397.541 604.75C396.541 604.783 395.624 604.85 394.791 604.95C393.958 605.017 393.174 605.117 392.441 605.25C391.741 605.35 390.974 605.45 390.141 605.55C389.741 605.617 389.424 605.533 389.191 605.3C388.958 605.033 388.841 604.683 388.841 604.25V601.35C388.841 600.55 389.258 600.1 390.091 600C392.024 599.733 393.874 599.517 395.641 599.35C397.408 599.183 399.341 599.1 401.441 599.1C403.041 599.1 404.408 599.267 405.541 599.6C406.674 599.9 407.591 600.417 408.291 601.15C409.024 601.85 409.541 602.767 409.841 603.9C410.174 605 410.341 606.35 410.341 607.95C410.341 608.783 410.274 609.65 410.141 610.55C410.008 611.45 409.841 612.35 409.641 613.25C409.474 614.117 409.274 614.95 409.041 615.75C408.841 616.517 408.658 617.183 408.491 617.75C408.358 618.183 408.191 618.5 407.991 618.7C407.824 618.867 407.524 618.95 407.091 618.95H403.891C403.424 618.95 403.058 618.817 402.791 618.55C402.558 618.283 402.508 617.967 402.641 617.6ZM424.041 642.15C423.008 642.283 421.891 642.4 420.691 642.5C419.491 642.6 418.291 642.683 417.091 642.75C415.924 642.85 414.791 642.917 413.691 642.95C412.624 642.983 411.674 643 410.841 643C407.274 643 404.324 642.9 401.991 642.7C399.658 642.5 397.791 642.133 396.391 641.6C395.024 641.1 394.058 640.417 393.491 639.55C392.924 638.683 392.641 637.583 392.641 636.25C392.641 635.017 392.891 633.983 393.391 633.15C393.891 632.283 394.741 631.6 395.941 631.1C397.141 630.6 398.708 630.25 400.641 630.05C402.608 629.85 405.041 629.75 407.941 629.75C409.308 629.75 410.608 629.75 411.841 629.75C413.108 629.717 414.424 629.7 415.791 629.7C417.524 629.7 418.391 629.167 418.391 628.1C418.391 627 417.574 626.45 415.941 626.45C414.708 626.45 413.158 626.467 411.291 626.5C409.458 626.533 407.541 626.583 405.541 626.65C403.574 626.717 401.641 626.8 399.741 626.9C397.841 626.967 396.191 627.05 394.791 627.15C394.024 627.217 393.641 626.833 393.641 626V623.5C393.641 622.767 394.024 622.383 394.791 622.35C396.658 622.217 398.691 622.117 400.891 622.05C403.091 621.95 405.308 621.883 407.541 621.85C409.774 621.783 411.924 621.75 413.991 621.75C416.091 621.717 417.958 621.733 419.591 621.8C421.158 621.867 422.291 622.233 422.991 622.9C423.724 623.567 424.091 624.533 424.091 625.8C424.091 626.8 423.791 627.7 423.191 628.5C422.624 629.267 421.841 629.833 420.841 630.2H422.591C423.324 630.2 423.691 630.567 423.691 631.3V633.6C423.691 634.333 423.324 634.7 422.591 634.7C420.791 634.633 418.658 634.583 416.191 634.55C413.758 634.517 411.041 634.5 408.041 634.5C406.008 634.5 404.358 634.517 403.091 634.55C401.824 634.617 400.841 634.7 400.141 634.8C399.441 634.933 398.974 635.117 398.741 635.35C398.508 635.617 398.391 635.95 398.391 636.35C398.391 636.783 398.541 637.117 398.841 637.35C399.174 637.617 399.791 637.817 400.691 637.95C401.591 638.083 402.841 638.167 404.441 638.2C406.074 638.233 408.191 638.25 410.791 638.25C411.658 638.25 412.624 638.233 413.691 638.2C414.758 638.167 415.858 638.1 416.991 638C418.158 637.933 419.308 637.85 420.441 637.75C421.608 637.65 422.691 637.533 423.691 637.4C424.458 637.3 424.874 637.633 424.941 638.4L425.091 640.9C425.124 641.633 424.774 642.05 424.041 642.15ZM417.991 615.35C417.691 615.983 417.058 616.3 416.091 616.3H413.191C412.358 616.3 411.941 615.883 411.941 615.05V612.3C411.941 611.467 412.358 611.05 413.191 611.05H416.741C417.574 611.05 417.991 610.617 417.991 609.75V605.95C417.691 606.583 417.058 606.9 416.091 606.9H413.191C412.358 606.9 411.941 606.483 411.941 605.65V602.9C411.941 602.067 412.358 601.65 413.191 601.65H416.741C417.574 601.65 417.991 601.217 417.991 600.35V599.3C417.991 598.4 418.424 597.95 419.291 597.95H422.441C423.308 597.95 423.741 598.4 423.741 599.3V617.9C423.741 618.8 423.308 619.25 422.441 619.25H419.291C418.424 619.25 417.991 618.8 417.991 617.9V615.35ZM433.645 633.55C433.645 627.217 439.095 624.05 449.995 624.05C460.895 624.05 466.345 627.217 466.345 633.55C466.345 639.883 460.895 643.05 449.995 643.05C439.095 643.05 433.645 639.883 433.645 633.55ZM431.595 604.35C430.762 604.35 430.345 603.933 430.345 603.1V600.35C430.345 599.517 430.762 599.1 431.595 599.1H452.095C452.928 599.1 453.345 599.517 453.345 600.35V603.1C453.345 603.933 452.928 604.35 452.095 604.35H444.695V605.9C444.695 607.233 444.878 608.483 445.245 609.65C445.645 610.783 446.178 611.767 446.845 612.6C447.512 613.4 448.312 614.033 449.245 614.5C450.178 614.967 451.195 615.2 452.295 615.2C453.128 615.2 453.545 615.617 453.545 616.45V619.2C453.545 620.033 453.128 620.45 452.295 620.45C450.995 620.45 449.778 620.267 448.645 619.9C447.512 619.5 446.495 618.967 445.595 618.3C444.695 617.633 443.928 616.867 443.295 616C442.662 615.133 442.178 614.217 441.845 613.25C441.512 614.217 441.012 615.133 440.345 616C439.712 616.867 438.945 617.633 438.045 618.3C437.145 618.967 436.128 619.5 434.995 619.9C433.862 620.267 432.645 620.45 431.345 620.45C430.512 620.45 430.095 620.033 430.095 619.2V616.45C430.095 615.617 430.512 615.2 431.345 615.2C432.445 615.2 433.462 614.967 434.395 614.5C435.328 614.033 436.128 613.4 436.795 612.6C437.462 611.767 437.978 610.783 438.345 609.65C438.745 608.483 438.945 607.233 438.945 605.9V604.35H431.595ZM459.495 599.3C459.495 598.4 459.928 597.95 460.795 597.95H463.945C464.812 597.95 465.245 598.4 465.245 599.3V620.4C465.245 621.3 464.812 621.75 463.945 621.75H460.795C459.928 621.75 459.495 621.3 459.495 620.4V611.3C459.128 611.967 458.445 612.3 457.445 612.3H453.945C453.112 612.3 452.695 611.883 452.695 611.05V608.3C452.695 607.467 453.112 607.05 453.945 607.05H457.745C458.912 607.05 459.495 606.517 459.495 605.45V599.3ZM439.395 633.55C439.395 634.217 439.578 634.8 439.945 635.3C440.312 635.833 440.912 636.283 441.745 636.65C442.578 637.017 443.662 637.3 444.995 637.5C446.362 637.7 448.028 637.8 449.995 637.8C451.962 637.8 453.612 637.7 454.945 637.5C456.312 637.3 457.412 637.017 458.245 636.65C459.078 636.283 459.678 635.833 460.045 635.3C460.412 634.8 460.595 634.217 460.595 633.55C460.595 632.883 460.412 632.3 460.045 631.8C459.678 631.267 459.078 630.817 458.245 630.45C457.412 630.083 456.312 629.8 454.945 629.6C453.612 629.4 451.962 629.3 449.995 629.3C448.028 629.3 446.362 629.4 444.995 629.6C443.662 629.8 442.578 630.083 441.745 630.45C440.912 630.817 440.312 631.267 439.945 631.8C439.578 632.3 439.395 632.883 439.395 633.55ZM494.999 616.25C493.499 616.683 492.032 617.017 490.599 617.25C489.199 617.45 487.949 617.567 486.849 617.6V619.85C486.849 620.65 487.315 621.05 488.249 621.05C489.982 621.05 491.665 621.033 493.299 621C494.932 620.933 496.215 620.867 497.149 620.8C498.015 620.733 498.449 621.1 498.449 621.9V624.75C498.449 625.617 498.032 626.067 497.199 626.1C496.399 626.133 495.465 626.183 494.399 626.25C493.365 626.283 492.265 626.317 491.099 626.35C489.932 626.383 488.732 626.417 487.499 626.45C486.265 626.45 485.065 626.45 483.899 626.45C481.465 626.45 479.199 626.417 477.099 626.35C475.032 626.283 473.149 626.183 471.449 626.05C470.615 626.017 470.199 625.583 470.199 624.75V621.8C470.199 621.033 470.649 620.683 471.549 620.75C472.115 620.783 472.799 620.833 473.599 620.9C474.399 620.933 475.249 620.967 476.149 621C477.082 621.033 478.032 621.067 478.999 621.1C479.999 621.133 480.965 621.167 481.899 621.2C481.365 620.867 481.099 620.367 481.099 619.7V617.25C478.199 616.783 476.099 615.833 474.799 614.4C473.499 612.967 472.849 610.933 472.849 608.3C472.849 606.633 473.099 605.217 473.599 604.05C474.132 602.85 474.965 601.883 476.099 601.15C477.232 600.383 478.665 599.833 480.399 599.5C482.165 599.167 484.282 599 486.749 599C488.249 599 489.499 599.033 490.499 599.1C491.499 599.167 492.399 599.283 493.199 599.45C493.932 599.583 494.299 600.033 494.299 600.8V603.5C494.299 604.467 493.882 604.867 493.049 604.7C492.182 604.533 491.282 604.417 490.349 604.35C489.415 604.283 488.365 604.25 487.199 604.25C485.532 604.25 484.132 604.317 482.999 604.45C481.899 604.55 481.015 604.75 480.349 605.05C479.715 605.35 479.265 605.767 478.999 606.3C478.732 606.8 478.599 607.467 478.599 608.3C478.599 609.133 478.715 609.817 478.949 610.35C479.182 610.85 479.599 611.25 480.199 611.55C480.799 611.85 481.615 612.067 482.649 612.2C483.682 612.3 484.999 612.35 486.599 612.35C487.565 612.35 488.682 612.25 489.949 612.05C491.215 611.85 492.482 611.533 493.749 611.1C494.515 610.833 494.999 611.117 495.199 611.95L495.899 614.7C496.099 615.5 495.799 616.017 494.999 616.25ZM475.499 630.15C475.665 629.283 476.165 628.85 476.999 628.85H480.049C480.482 628.85 480.799 628.983 480.999 629.25C481.232 629.483 481.315 629.8 481.249 630.2C481.149 630.733 481.065 631.3 480.999 631.9C480.932 632.467 480.899 633.067 480.899 633.7C480.899 636.4 482.482 637.75 485.649 637.75C487.982 637.75 490.099 637.733 491.999 637.7C493.932 637.667 495.732 637.6 497.399 637.5C499.065 637.433 500.649 637.35 502.149 637.25C503.649 637.15 505.132 637.033 506.599 636.9C507.399 636.8 507.832 637.2 507.899 638.1L508.099 640.85C508.132 641.583 507.732 642 506.899 642.1C504.399 642.367 501.349 642.583 497.749 642.75C494.182 642.917 490.199 643 485.799 643C482.365 643 479.732 642.217 477.899 640.65C476.065 639.083 475.149 636.85 475.149 633.95C475.149 633.183 475.182 632.483 475.249 631.85C475.315 631.217 475.399 630.65 475.499 630.15ZM506.749 628.4C506.749 629.3 506.315 629.75 505.449 629.75H502.299C501.432 629.75 500.999 629.3 500.999 628.4V599.3C500.999 598.4 501.432 597.95 502.299 597.95H505.449C506.315 597.95 506.749 598.4 506.749 599.3V628.4ZM551.966 625.15C550.433 625.417 548.85 625.55 547.216 625.55C545.283 625.55 543.45 625.367 541.716 625V631.4C541.716 632.433 542.3 632.95 543.466 632.95C544.066 632.95 544.783 632.95 545.616 632.95C546.45 632.95 547.3 632.95 548.166 632.95C549.066 632.95 549.966 632.95 550.866 632.95C551.766 632.917 552.583 632.9 553.316 632.9C552.916 632.733 552.583 632.467 552.316 632.1C552.083 631.7 551.966 631.233 551.966 630.7V625.15ZM547.216 620.2C550.45 620.2 552.9 619.567 554.566 618.3C556.233 617 557.066 615.167 557.066 612.8C557.066 610.4 556.25 608.567 554.616 607.3C552.983 606.033 550.516 605.4 547.216 605.4C543.916 605.4 541.45 606.033 539.816 607.3C538.183 608.567 537.366 610.4 537.366 612.8C537.366 615.167 538.2 617 539.866 618.3C541.533 619.567 543.983 620.2 547.216 620.2ZM531.616 612.8C531.616 608.733 532.966 605.6 535.666 603.4C538.4 601.167 542.25 600.05 547.216 600.05C552.183 600.05 556.016 601.167 558.716 603.4C561.45 605.6 562.816 608.733 562.816 612.8C562.816 615.1 562.383 617.1 561.516 618.8C560.65 620.5 559.383 621.9 557.716 623V631.1C557.716 632.133 558.3 632.65 559.466 632.65C559.833 632.65 560.25 632.633 560.716 632.6C561.183 632.567 561.65 632.533 562.116 632.5C562.583 632.433 563.016 632.383 563.416 632.35C563.816 632.283 564.133 632.233 564.366 632.2C565.266 632.1 565.716 632.5 565.716 633.4V636.15C565.716 636.917 565.3 637.367 564.466 637.5C563.633 637.633 562.6 637.75 561.366 637.85C560.133 637.95 558.75 638.033 557.216 638.1C555.683 638.2 554.033 638.267 552.266 638.3C550.5 638.333 548.666 638.35 546.766 638.35C538.833 638.35 532.983 638.05 529.216 637.45C528.383 637.317 527.966 636.867 527.966 636.1V633.35C527.966 632.45 528.416 632.05 529.316 632.15C530.716 632.35 532.05 632.533 533.316 632.7C534.583 632.867 535.85 632.983 537.116 633.05C536.35 632.617 535.966 631.917 535.966 630.95V623C535.966 622.767 535.983 622.6 536.016 622.5C534.583 621.433 533.483 620.083 532.716 618.45C531.983 616.817 531.616 614.933 531.616 612.8ZM572.722 637.45C571.889 637.317 571.472 636.867 571.472 636.1V633.35C571.472 632.45 571.922 632.05 572.822 632.15C573.722 632.25 574.789 632.35 576.022 632.45C577.289 632.55 578.622 632.65 580.022 632.75C581.456 632.817 582.906 632.883 584.372 632.95C585.872 633.017 587.322 633.067 588.722 633.1C588.356 632.933 588.056 632.667 587.822 632.3C587.589 631.9 587.472 631.45 587.472 630.95V625.2C587.472 624.3 587.906 623.85 588.772 623.85H591.922C592.789 623.85 593.222 624.3 593.222 625.2V631.4C593.222 632.433 593.806 632.95 594.972 632.95C596.039 632.95 597.156 632.933 598.322 632.9C599.489 632.867 600.639 632.817 601.772 632.75C602.906 632.683 603.989 632.6 605.022 632.5C606.089 632.4 607.039 632.3 607.872 632.2C608.772 632.1 609.222 632.5 609.222 633.4V636.15C609.222 636.917 608.806 637.367 607.972 637.5C607.139 637.633 606.106 637.75 604.872 637.85C603.639 637.95 602.256 638.033 600.722 638.1C599.189 638.2 597.539 638.267 595.772 638.3C594.006 638.333 592.172 638.35 590.272 638.35C582.339 638.35 576.489 638.05 572.722 637.45ZM590.572 616.65C590.039 617.883 589.289 619.017 588.322 620.05C587.389 621.05 586.322 621.917 585.122 622.65C583.922 623.383 582.606 623.95 581.172 624.35C579.772 624.75 578.339 624.95 576.872 624.95C576.406 624.95 575.989 624.9 575.622 624.8C575.289 624.7 575.122 624.333 575.122 623.7V620.6C575.122 619.833 575.539 619.45 576.372 619.45C578.039 619.45 579.556 619.183 580.922 618.65C582.322 618.117 583.522 617.383 584.522 616.45C585.522 615.517 586.289 614.417 586.822 613.15C587.389 611.85 587.672 610.45 587.672 608.95V601.9C587.672 601 588.106 600.55 588.972 600.55H592.122C592.989 600.55 593.422 601 593.422 601.9V608.95C593.422 610.45 593.689 611.85 594.222 613.15C594.789 614.417 595.572 615.517 596.572 616.45C597.572 617.383 598.756 618.117 600.122 618.65C601.522 619.183 603.056 619.45 604.722 619.45C605.556 619.45 605.972 619.833 605.972 620.6V623.7C605.972 624.333 605.789 624.7 605.422 624.8C605.089 624.9 604.689 624.95 604.222 624.95C602.756 624.95 601.306 624.75 599.872 624.35C598.472 623.95 597.172 623.383 595.972 622.65C594.772 621.917 593.706 621.05 592.772 620.05C591.839 619.017 591.106 617.883 590.572 616.65ZM619.478 600.35C619.578 599.483 620.078 599.05 620.978 599.05H624.028C624.461 599.05 624.778 599.183 624.978 599.45C625.178 599.683 625.261 600 625.228 600.4C625.195 600.967 625.145 601.617 625.078 602.35C625.045 603.05 625.011 603.767 624.978 604.5C624.945 605.2 624.911 605.883 624.878 606.55C624.878 607.183 624.878 607.717 624.878 608.15C624.878 610.85 626.461 612.2 629.628 612.2C631.595 612.2 633.411 612.183 635.078 612.15C636.745 612.117 638.328 612.067 639.828 612C641.328 611.9 642.795 611.8 644.228 611.7C645.661 611.6 647.111 611.483 648.578 611.35C649.378 611.25 649.811 611.65 649.878 612.55L650.078 615.3C650.111 616.033 649.711 616.45 648.878 616.55C646.378 616.817 643.461 617.033 640.128 617.2C636.795 617.367 633.178 617.45 629.278 617.45C625.978 617.45 623.461 616.667 621.728 615.1C619.995 613.533 619.128 611.3 619.128 608.4C619.128 607.9 619.128 607.317 619.128 606.65C619.161 605.95 619.195 605.233 619.228 604.5C619.261 603.733 619.295 603 619.328 602.3C619.395 601.567 619.445 600.917 619.478 600.35ZM618.728 630.15C618.895 629.283 619.395 628.85 620.228 628.85H623.278C623.711 628.85 624.028 628.983 624.228 629.25C624.461 629.483 624.545 629.8 624.478 630.2C624.378 630.733 624.295 631.3 624.228 631.9C624.161 632.467 624.128 633.067 624.128 633.7C624.128 636.4 625.711 637.75 628.878 637.75C631.078 637.75 633.111 637.733 634.978 637.7C636.845 637.667 638.595 637.6 640.228 637.5C641.861 637.433 643.411 637.35 644.878 637.25C646.378 637.15 647.861 637.033 649.328 636.9C650.128 636.8 650.561 637.2 650.628 638.1L650.828 640.85C650.861 641.583 650.461 642 649.628 642.1C647.128 642.367 644.111 642.583 640.578 642.75C637.045 642.917 633.195 643 629.028 643C625.595 643 622.961 642.217 621.128 640.65C619.295 639.083 618.378 636.85 618.378 633.95C618.378 633.183 618.411 632.483 618.478 631.85C618.545 631.217 618.628 630.65 618.728 630.15ZM616.328 620.3C617.495 620.367 618.778 620.433 620.178 620.5C621.578 620.533 623.045 620.583 624.578 620.65C626.111 620.683 627.661 620.717 629.228 620.75C630.795 620.783 632.311 620.8 633.778 620.8C637.878 620.8 641.361 620.783 644.228 620.75C647.128 620.683 649.511 620.55 651.378 620.35C652.278 620.25 652.728 620.65 652.728 621.55V624.25C652.728 625.05 652.311 625.5 651.478 625.6C650.578 625.7 649.478 625.783 648.178 625.85C646.878 625.917 645.445 625.967 643.878 626C642.345 626.033 640.711 626.05 638.978 626.05C637.278 626.05 635.545 626.05 633.778 626.05C629.211 626.017 625.511 625.967 622.678 625.9C619.878 625.833 617.728 625.717 616.228 625.55C615.395 625.45 614.978 625 614.978 624.2V621.5C614.978 620.633 615.428 620.233 616.328 620.3ZM688.098 610.75C688.098 608.65 687.631 606.983 686.698 605.75C685.764 604.483 684.481 603.85 682.848 603.85C681.214 603.85 679.931 604.483 678.998 605.75C678.098 606.983 677.648 608.65 677.648 610.75C677.648 612.85 678.098 614.533 678.998 615.8C679.931 617.067 681.214 617.7 682.848 617.7C684.481 617.7 685.764 617.067 686.698 615.8C687.631 614.533 688.098 612.85 688.098 610.75ZM693.848 610.75C693.848 612.583 693.581 614.267 693.048 615.8C692.548 617.3 691.814 618.583 690.848 619.65C689.881 620.683 688.714 621.5 687.348 622.1C686.014 622.667 684.514 622.95 682.848 622.95C681.181 622.95 679.664 622.667 678.298 622.1C676.964 621.5 675.814 620.683 674.848 619.65C673.914 618.583 673.181 617.3 672.648 615.8C672.148 614.267 671.898 612.583 671.898 610.75C671.898 608.883 672.148 607.217 672.648 605.75C673.181 604.25 673.914 602.967 674.848 601.9C675.814 600.833 676.964 600.017 678.298 599.45C679.664 598.883 681.181 598.6 682.848 598.6C684.514 598.6 686.014 598.883 687.348 599.45C688.714 600.017 689.881 600.833 690.848 601.9C691.814 602.967 692.548 604.25 693.048 605.75C693.581 607.217 693.848 608.883 693.848 610.75ZM701.048 599.3C701.048 598.4 701.481 597.95 702.348 597.95H705.498C706.364 597.95 706.798 598.4 706.798 599.3V627.4C706.798 628.3 706.364 628.75 705.498 628.75H702.348C701.481 628.75 701.048 628.3 701.048 627.4V611.7C700.681 612.367 699.998 612.7 698.998 612.7H696.748C695.914 612.7 695.498 612.283 695.498 611.45V608.7C695.498 607.867 695.914 607.45 696.748 607.45H699.298C700.464 607.45 701.048 606.917 701.048 605.85V599.3ZM676.498 628.15C676.664 627.283 677.148 626.85 677.948 626.85H680.948C681.381 626.85 681.714 626.983 681.948 627.25C682.214 627.483 682.314 627.8 682.248 628.2C682.181 628.8 682.114 629.533 682.048 630.4C681.981 631.267 681.948 632.183 681.948 633.15C681.948 634.65 682.398 635.783 683.298 636.55C684.198 637.35 685.414 637.75 686.948 637.75C689.148 637.75 691.131 637.733 692.898 637.7C694.698 637.667 696.364 637.6 697.898 637.5C699.431 637.433 700.898 637.35 702.298 637.25C703.731 637.15 705.181 637.033 706.648 636.9C707.448 636.8 707.881 637.2 707.948 638.1L708.148 640.85C708.181 641.583 707.781 642 706.948 642.1C704.448 642.367 701.564 642.583 698.298 642.75C695.064 642.917 691.364 643 687.198 643C683.698 643 680.981 642.183 679.048 640.55C677.148 638.917 676.198 636.633 676.198 633.7C676.198 632.633 676.214 631.6 676.248 630.6C676.314 629.6 676.398 628.783 676.498 628.15ZM714.152 606.6C713.318 606.6 712.902 606.183 712.902 605.35V602.35C712.902 601.517 713.318 601.1 714.152 601.1H732.202C733.035 601.1 733.452 601.517 733.452 602.35V605.35C733.452 606.183 733.035 606.6 732.202 606.6H725.902V619.9C725.902 622.933 726.502 625.3 727.702 627C728.935 628.7 730.518 629.683 732.452 629.95C732.885 630.017 733.202 630.133 733.402 630.3C733.602 630.467 733.702 630.767 733.702 631.2V634.2C733.702 635.133 733.285 635.55 732.452 635.45C730.252 635.183 728.318 634.417 726.652 633.15C725.018 631.85 723.852 630.133 723.152 628C722.452 630.133 721.285 631.85 719.652 633.15C718.018 634.417 716.102 635.183 713.902 635.45C713.068 635.55 712.652 635.133 712.652 634.2V631.2C712.652 630.767 712.752 630.467 712.952 630.3C713.152 630.133 713.468 630.017 713.902 629.95C715.835 629.683 717.402 628.7 718.602 627C719.802 625.3 720.402 622.933 720.402 619.9V606.6H714.152ZM736.902 615C737.468 615 737.852 614.9 738.052 614.7C738.285 614.5 738.402 614.15 738.402 613.65V599.7C738.402 598.867 738.818 598.45 739.652 598.45H742.652C743.485 598.45 743.902 598.867 743.902 599.7V641C743.902 641.833 743.485 642.25 742.652 642.25H739.652C738.818 642.25 738.402 641.833 738.402 641V619.6C738.235 619.867 738.002 620.083 737.702 620.25C737.402 620.417 737.068 620.5 736.702 620.5H732.352C731.518 620.5 731.102 620.083 731.102 619.25V616.25C731.102 615.417 731.518 615 732.352 615H736.902ZM752.652 641C752.652 641.833 752.235 642.25 751.402 642.25H748.402C747.568 642.25 747.152 641.833 747.152 641V599.2C747.152 598.367 747.568 597.95 748.402 597.95H751.402C752.235 597.95 752.652 598.367 752.652 599.2V641ZM763.504 630.15C763.67 629.283 764.17 628.85 765.004 628.85H768.054C768.487 628.85 768.804 628.983 769.004 629.25C769.237 629.483 769.32 629.8 769.254 630.2C769.154 630.733 769.07 631.3 769.004 631.9C768.937 632.467 768.904 633.067 768.904 633.7C768.904 636.4 770.487 637.75 773.654 637.75C775.854 637.75 777.887 637.733 779.754 637.7C781.62 637.667 783.37 637.6 785.004 637.5C786.637 637.433 788.187 637.35 789.654 637.25C791.154 637.15 792.637 637.033 794.104 636.9C794.904 636.8 795.337 637.2 795.404 638.1L795.604 640.85C795.637 641.583 795.237 642 794.404 642.1C791.904 642.367 788.887 642.583 785.354 642.75C781.82 642.917 777.97 643 773.804 643C770.37 643 767.737 642.217 765.904 640.65C764.07 639.083 763.154 636.85 763.154 633.95C763.154 633.183 763.187 632.483 763.254 631.85C763.32 631.217 763.404 630.65 763.504 630.15ZM761.104 620.3C762.27 620.367 763.554 620.433 764.954 620.5C766.354 620.533 767.82 620.583 769.354 620.65C770.887 620.683 772.437 620.717 774.004 620.75C775.57 620.783 777.087 620.8 778.554 620.8C782.654 620.8 786.137 620.783 789.004 620.75C791.904 620.683 794.287 620.55 796.154 620.35C797.054 620.25 797.504 620.65 797.504 621.55V624.25C797.504 625.05 797.087 625.5 796.254 625.6C795.354 625.7 794.254 625.783 792.954 625.85C791.654 625.917 790.22 625.967 788.654 626C787.12 626.033 785.487 626.05 783.754 626.05C782.054 626.05 780.32 626.05 778.554 626.05C773.987 626.017 770.287 625.967 767.454 625.9C764.654 625.833 762.504 625.717 761.004 625.55C760.17 625.45 759.754 625 759.754 624.2V621.5C759.754 620.633 760.204 620.233 761.104 620.3ZM791.654 604.75C790.187 604.65 788.887 604.583 787.754 604.55C786.62 604.483 785.604 604.433 784.704 604.4C783.804 604.367 782.987 604.35 782.254 604.35C781.52 604.317 780.82 604.3 780.154 604.3C777.92 604.3 776.07 604.383 774.604 604.55C773.137 604.683 771.954 604.9 771.054 605.2C770.187 605.5 769.57 605.9 769.204 606.4C768.837 606.9 768.654 607.5 768.654 608.2C768.654 608.933 768.804 609.55 769.104 610.05C769.404 610.55 769.937 610.967 770.704 611.3C771.504 611.633 772.554 611.883 773.854 612.05C775.187 612.183 776.854 612.25 778.854 612.25C780.854 612.25 783.004 612.167 785.304 612C787.604 611.833 789.87 611.617 792.104 611.35C792.904 611.25 793.337 611.65 793.404 612.55L793.604 615.3C793.637 616.033 793.237 616.45 792.404 616.55C789.604 616.883 787.17 617.133 785.104 617.3C783.037 617.433 781.204 617.5 779.604 617.5C776.537 617.5 773.937 617.333 771.804 617C769.704 616.633 767.987 616.083 766.654 615.35C765.32 614.583 764.354 613.617 763.754 612.45C763.187 611.283 762.904 609.867 762.904 608.2C762.904 606.533 763.204 605.133 763.804 604C764.404 602.833 765.387 601.883 766.754 601.15C768.12 600.417 769.904 599.883 772.104 599.55C774.337 599.217 777.07 599.05 780.304 599.05C781.004 599.05 781.687 599.067 782.354 599.1C783.054 599.1 783.82 599.133 784.654 599.2C785.52 599.233 786.52 599.283 787.654 599.35C788.787 599.383 790.137 599.45 791.704 599.55C792.537 599.583 792.954 600.017 792.954 600.85V603.55C792.954 604.417 792.52 604.817 791.654 604.75ZM823.123 615.65C823.156 616.683 823.723 617.2 824.823 617.2H830.573C831.673 617.2 832.24 616.683 832.273 615.65L832.473 610.2H822.923L823.123 615.65ZM823.223 622.45C821.423 622.45 820.023 622.017 819.023 621.15C818.056 620.283 817.54 619.05 817.473 617.45L816.723 600.45C816.69 600.05 816.79 599.733 817.023 599.5C817.256 599.233 817.59 599.1 818.023 599.1H821.123C822.023 599.1 822.49 599.5 822.523 600.3L822.723 604.95H832.673L832.873 600.3C832.94 599.5 833.406 599.1 834.273 599.1H837.373C837.806 599.1 838.14 599.233 838.373 599.5C838.606 599.733 838.706 600.05 838.673 600.45L837.923 617.45C837.856 619.05 837.323 620.283 836.323 621.15C835.356 622.017 833.973 622.45 832.173 622.45H823.223ZM851.573 627.4C851.573 628.3 851.14 628.75 850.273 628.75H847.123C846.256 628.75 845.823 628.3 845.823 627.4V617.95C845.423 618.617 844.756 618.95 843.823 618.95H841.523C840.69 618.95 840.273 618.533 840.273 617.7V614.95C840.273 614.117 840.69 613.7 841.523 613.7H844.473C844.973 613.7 845.323 613.6 845.523 613.4C845.723 613.167 845.823 612.8 845.823 612.3V607.1C845.423 607.767 844.756 608.1 843.823 608.1H841.523C840.69 608.1 840.273 607.683 840.273 606.85V604.1C840.273 603.267 840.69 602.85 841.523 602.85H844.473C844.973 602.85 845.323 602.75 845.523 602.55C845.723 602.317 845.823 601.95 845.823 601.45V599.3C845.823 598.4 846.256 597.95 847.123 597.95H850.273C851.14 597.95 851.573 598.4 851.573 599.3V627.4ZM821.273 628.15C821.44 627.283 821.923 626.85 822.723 626.85H825.723C826.156 626.85 826.49 626.983 826.723 627.25C826.99 627.483 827.09 627.8 827.023 628.2C826.956 628.8 826.89 629.533 826.823 630.4C826.756 631.267 826.723 632.183 826.723 633.15C826.723 634.65 827.173 635.783 828.073 636.55C828.973 637.35 830.19 637.75 831.723 637.75C833.923 637.75 835.906 637.733 837.673 637.7C839.473 637.667 841.14 637.6 842.673 637.5C844.206 637.433 845.673 637.35 847.073 637.25C848.506 637.15 849.956 637.033 851.423 636.9C852.223 636.8 852.656 637.2 852.723 638.1L852.923 640.85C852.956 641.583 852.556 642 851.723 642.1C849.223 642.367 846.34 642.583 843.073 642.75C839.84 642.917 836.14 643 831.973 643C828.473 643 825.756 642.183 823.823 640.55C821.923 638.917 820.973 636.633 820.973 633.7C820.973 632.633 820.99 631.6 821.023 630.6C821.09 629.6 821.173 628.783 821.273 628.15ZM867.227 633.55C867.227 634.217 867.41 634.8 867.777 635.3C868.144 635.833 868.744 636.283 869.577 636.65C870.41 637.017 871.494 637.3 872.827 637.5C874.194 637.7 875.86 637.8 877.827 637.8C879.794 637.8 881.444 637.7 882.777 637.5C884.144 637.3 885.244 637.017 886.077 636.65C886.91 636.283 887.51 635.833 887.877 635.3C888.244 634.8 888.427 634.217 888.427 633.55C888.427 632.883 888.244 632.3 887.877 631.8C887.51 631.267 886.91 630.817 886.077 630.45C885.244 630.083 884.144 629.8 882.777 629.6C881.444 629.4 879.794 629.3 877.827 629.3C875.86 629.3 874.194 629.4 872.827 629.6C871.494 629.8 870.41 630.083 869.577 630.45C868.744 630.817 868.144 631.267 867.777 631.8C867.41 632.3 867.227 632.883 867.227 633.55ZM871.977 619.1C872.244 618.267 872.477 617.367 872.677 616.4C872.91 615.433 873.11 614.483 873.277 613.55C873.477 612.583 873.627 611.667 873.727 610.8C873.827 609.9 873.877 609.133 873.877 608.5C873.877 607.1 873.544 606.117 872.877 605.55C872.244 604.95 871.294 604.65 870.027 604.65C868.694 604.65 867.544 604.683 866.577 604.75C865.61 604.783 864.744 604.85 863.977 604.95C863.21 605.017 862.477 605.117 861.777 605.25C861.077 605.35 860.31 605.45 859.477 605.55C859.077 605.617 858.76 605.533 858.527 605.3C858.294 605.033 858.177 604.683 858.177 604.25V601.35C858.177 600.55 858.594 600.1 859.427 600C861.36 599.733 863.16 599.517 864.827 599.35C866.494 599.183 868.31 599.1 870.277 599.1C873.644 599.1 876.044 599.85 877.477 601.35C878.944 602.85 879.677 605.267 879.677 608.6C879.677 609.3 879.61 610.083 879.477 610.95C879.377 611.817 879.244 612.733 879.077 613.7C878.91 614.633 878.71 615.583 878.477 616.55C878.244 617.483 878.027 618.383 877.827 619.25C877.727 619.683 877.577 620 877.377 620.2C877.177 620.367 876.86 620.45 876.427 620.45H873.227C872.76 620.45 872.394 620.317 872.127 620.05C871.894 619.783 871.844 619.467 871.977 619.1ZM861.477 633.55C861.477 627.217 866.927 624.05 877.827 624.05C888.727 624.05 894.177 627.217 894.177 633.55C894.177 639.883 888.727 643.05 877.827 643.05C866.927 643.05 861.477 639.883 861.477 633.55ZM887.327 616.55C886.927 617.217 886.26 617.55 885.327 617.55H882.527C881.694 617.55 881.277 617.133 881.277 616.3V613.55C881.277 612.717 881.694 612.3 882.527 612.3H885.977C886.477 612.3 886.827 612.2 887.027 612C887.227 611.767 887.327 611.4 887.327 610.9V606.4C886.927 607.067 886.26 607.4 885.327 607.4H882.527C881.694 607.4 881.277 606.983 881.277 606.15V603.4C881.277 602.567 881.694 602.15 882.527 602.15H885.977C886.477 602.15 886.827 602.05 887.027 601.85C887.227 601.617 887.327 601.25 887.327 600.75V599.3C887.327 598.4 887.76 597.95 888.627 597.95H891.777C892.644 597.95 893.077 598.4 893.077 599.3V620.4C893.077 621.3 892.644 621.75 891.777 621.75H888.627C887.76 621.75 887.327 621.3 887.327 620.4V616.55ZM911.081 615.65C912.881 615.65 914.181 615.5 914.981 615.2C915.814 614.867 916.231 614.333 916.231 613.6C916.231 612.867 915.814 612.35 914.981 612.05C914.181 611.717 912.881 611.55 911.081 611.55C909.281 611.55 907.964 611.717 907.131 612.05C906.331 612.35 905.931 612.867 905.931 613.6C905.931 614.333 906.331 614.867 907.131 615.2C907.964 615.5 909.281 615.65 911.081 615.65ZM933.881 642.15C932.848 642.283 931.748 642.4 930.581 642.5C929.448 642.6 928.314 642.683 927.181 642.75C926.081 642.85 925.014 642.917 923.981 642.95C922.948 642.983 922.014 643 921.181 643C917.681 643 914.781 642.9 912.481 642.7C910.214 642.533 908.414 642.217 907.081 641.75C905.748 641.283 904.814 640.617 904.281 639.75C903.748 638.917 903.481 637.85 903.481 636.55C903.481 635.317 903.714 634.3 904.181 633.5C904.681 632.7 905.498 632.067 906.631 631.6C907.764 631.133 909.281 630.817 911.181 630.65C913.081 630.45 915.448 630.35 918.281 630.35C919.648 630.35 920.864 630.35 921.931 630.35C923.031 630.317 924.264 630.3 925.631 630.3C927.364 630.3 928.231 629.8 928.231 628.8C928.231 627.767 927.414 627.25 925.781 627.25C924.548 627.25 923.048 627.267 921.281 627.3C919.548 627.333 917.748 627.383 915.881 627.45C914.048 627.517 912.231 627.6 910.431 627.7C908.631 627.767 907.031 627.85 905.631 627.95C904.864 628.017 904.481 627.633 904.481 626.8V624.5C904.481 623.767 904.864 623.383 905.631 623.35C907.498 623.217 909.481 623.117 911.581 623.05C913.681 622.95 915.781 622.883 917.881 622.85C919.981 622.783 922.014 622.75 923.981 622.75C925.981 622.717 927.798 622.733 929.431 622.8C930.998 622.867 932.131 623.2 932.831 623.8C933.564 624.4 933.931 625.3 933.931 626.5C933.931 627.467 933.631 628.333 933.031 629.1C932.464 629.867 931.681 630.433 930.681 630.8H932.431C933.164 630.8 933.531 631.167 933.531 631.9V634C933.531 634.733 933.164 635.1 932.431 635.1C930.631 635.033 928.581 634.983 926.281 634.95C924.014 634.917 921.381 634.9 918.381 634.9C916.381 634.9 914.781 634.917 913.581 634.95C912.381 635.017 911.448 635.1 910.781 635.2C910.148 635.333 909.731 635.517 909.531 635.75C909.331 635.983 909.231 636.283 909.231 636.65C909.231 637.05 909.364 637.367 909.631 637.6C909.931 637.867 910.498 638.05 911.331 638.15C912.198 638.283 913.414 638.367 914.981 638.4C916.548 638.433 918.598 638.45 921.131 638.45C921.998 638.45 922.931 638.433 923.931 638.4C924.964 638.367 926.014 638.3 927.081 638.2C928.181 638.133 929.281 638.05 930.381 637.95C931.481 637.85 932.531 637.733 933.531 637.6C934.298 637.5 934.714 637.833 934.781 638.6L934.931 640.9C934.964 641.633 934.614 642.05 933.881 642.15ZM900.181 613.6C900.181 609.067 903.814 606.8 911.081 606.8C918.348 606.8 921.981 609.067 921.981 613.6C921.981 618.133 918.348 620.4 911.081 620.4C903.814 620.4 900.181 618.133 900.181 613.6ZM922.281 599.6C923.114 599.6 923.531 600.017 923.531 600.85V603.35C923.531 604.183 923.114 604.6 922.281 604.6H899.931C899.098 604.6 898.681 604.183 898.681 603.35V600.85C898.681 600.017 899.098 599.6 899.931 599.6H909.131C908.631 599.333 908.381 598.883 908.381 598.25V597C908.381 596.167 908.798 595.75 909.631 595.75H912.881C913.714 595.75 914.131 596.167 914.131 597V598.7C914.131 599.3 914.481 599.6 915.181 599.6H922.281ZM933.581 618.9C933.581 619.8 933.148 620.25 932.281 620.25H929.131C928.264 620.25 927.831 619.8 927.831 618.9V599.3C927.831 598.4 928.264 597.95 929.131 597.95H932.281C933.148 597.95 933.581 598.4 933.581 599.3V606.7C933.948 606.033 934.631 605.7 935.631 605.7H938.581C939.414 605.7 939.831 606.117 939.831 606.95V609.7C939.831 610.533 939.414 610.95 938.581 610.95H935.331C934.164 610.95 933.581 611.483 933.581 612.55V618.9ZM981.3 630.05C980.134 630.05 979.55 630.567 979.55 631.6V639.15C979.55 640.05 979.117 640.5 978.25 640.5H975.1C974.234 640.5 973.8 640.05 973.8 639.15V632.25C973.8 631.75 973.917 631.317 974.15 630.95C974.384 630.55 974.7 630.267 975.1 630.1C973.7 630.1 972.25 630.083 970.75 630.05C969.25 629.983 967.784 629.917 966.35 629.85C964.917 629.75 963.567 629.65 962.3 629.55C961.034 629.45 959.95 629.35 959.05 629.25C958.217 629.15 957.8 628.683 957.8 627.85V625.1C957.8 624.233 958.25 623.85 959.15 623.95C961.55 624.217 964.184 624.433 967.05 624.6C969.917 624.733 973.1 624.8 976.6 624.8C980.2 624.8 983.534 624.733 986.6 624.6C989.7 624.467 992.234 624.267 994.2 624C995.1 623.9 995.55 624.283 995.55 625.15V627.9C995.55 628.7 995.134 629.167 994.3 629.3C993.467 629.4 992.517 629.5 991.45 629.6C990.384 629.7 989.267 629.783 988.1 629.85C986.967 629.917 985.817 629.967 984.65 630C983.484 630.033 982.367 630.05 981.3 630.05ZM976.9 611.9C976.367 613.1 975.634 614.2 974.7 615.2C973.767 616.167 972.7 617.017 971.5 617.75C970.3 618.45 968.984 619 967.55 619.4C966.15 619.767 964.717 619.95 963.25 619.95C962.75 619.95 962.317 619.9 961.95 619.8C961.617 619.7 961.45 619.333 961.45 618.7V615.6C961.45 614.833 961.867 614.45 962.7 614.45C964.367 614.45 965.884 614.2 967.25 613.7C968.65 613.2 969.85 612.517 970.85 611.65C971.85 610.75 972.617 609.683 973.15 608.45C973.717 607.217 974 605.883 974 604.45V600.4C974 599.5 974.434 599.05 975.3 599.05H978.45C979.317 599.05 979.75 599.5 979.75 600.4V604.45C979.75 605.883 980.017 607.217 980.55 608.45C981.117 609.683 981.9 610.75 982.9 611.65C983.9 612.517 985.084 613.2 986.45 613.7C987.85 614.2 989.384 614.45 991.05 614.45C991.884 614.45 992.3 614.833 992.3 615.6V618.7C992.3 619.333 992.117 619.7 991.75 619.8C991.417 619.9 991 619.95 990.5 619.95C989.034 619.95 987.6 619.767 986.2 619.4C984.8 619 983.5 618.45 982.3 617.75C981.1 617.017 980.034 616.167 979.1 615.2C978.167 614.2 977.434 613.1 976.9 611.9ZM1031.42 610C1031.42 608.1 1030.92 606.6 1029.92 605.5C1028.95 604.4 1027.62 603.85 1025.92 603.85C1024.22 603.85 1022.89 604.4 1021.92 605.5C1020.95 606.6 1020.47 608.1 1020.47 610C1020.47 611.9 1020.95 613.417 1021.92 614.55C1022.92 615.65 1024.25 616.2 1025.92 616.2C1027.62 616.2 1028.95 615.65 1029.92 614.55C1030.92 613.417 1031.42 611.9 1031.42 610ZM1034.22 642.55C1032.49 642.55 1030.94 642.05 1029.57 641.05C1028.24 640.083 1027.27 638.833 1026.67 637.3C1026.34 638.067 1025.87 638.767 1025.27 639.4C1024.7 640.033 1024.05 640.583 1023.32 641.05C1022.59 641.517 1021.79 641.883 1020.92 642.15C1020.05 642.417 1019.15 642.55 1018.22 642.55C1017.75 642.55 1017.35 642.483 1017.02 642.35C1016.69 642.25 1016.52 641.9 1016.52 641.3V638.45C1016.52 637.683 1016.94 637.3 1017.77 637.3C1018.67 637.3 1019.49 637.133 1020.22 636.8C1020.99 636.467 1021.64 636 1022.17 635.4C1022.7 634.833 1023.12 634.167 1023.42 633.4C1023.72 632.6 1023.87 631.75 1023.87 630.85V626.15C1023.87 625.25 1024.3 624.8 1025.17 624.8H1028.32C1029.19 624.8 1029.62 625.25 1029.62 626.15V631.95C1029.62 633.55 1030 634.833 1030.77 635.8C1031.57 636.8 1032.72 637.3 1034.22 637.3C1035.72 637.3 1036.85 636.8 1037.62 635.8C1038.42 634.833 1038.82 633.55 1038.82 631.95V626.15C1038.82 625.25 1039.25 624.8 1040.12 624.8H1043.27C1044.14 624.8 1044.57 625.25 1044.57 626.15V630.85C1044.57 631.75 1044.72 632.6 1045.02 633.4C1045.32 634.167 1045.74 634.833 1046.27 635.4C1046.8 636 1047.44 636.467 1048.17 636.8C1048.94 637.133 1049.77 637.3 1050.67 637.3C1051.5 637.3 1051.92 637.683 1051.92 638.45V641.3C1051.92 641.9 1051.75 642.25 1051.42 642.35C1051.09 642.483 1050.69 642.55 1050.22 642.55C1049.29 642.55 1048.39 642.417 1047.52 642.15C1046.65 641.883 1045.85 641.517 1045.12 641.05C1044.39 640.583 1043.74 640.033 1043.17 639.4C1042.6 638.767 1042.14 638.067 1041.77 637.3C1041.17 638.833 1040.19 640.083 1038.82 641.05C1037.49 642.05 1035.95 642.55 1034.22 642.55ZM1037.17 610C1037.17 611.733 1036.9 613.317 1036.37 614.75C1035.84 616.15 1035.09 617.35 1034.12 618.35C1033.15 619.35 1031.97 620.117 1030.57 620.65C1029.17 621.183 1027.62 621.45 1025.92 621.45C1024.22 621.45 1022.67 621.183 1021.27 620.65C1019.9 620.117 1018.74 619.35 1017.77 618.35C1016.8 617.35 1016.05 616.15 1015.52 614.75C1014.99 613.317 1014.72 611.733 1014.72 610C1014.72 608.267 1014.97 606.7 1015.47 605.3C1016 603.9 1016.75 602.7 1017.72 601.7C1018.72 600.7 1019.9 599.933 1021.27 599.4C1022.67 598.867 1024.22 598.6 1025.92 598.6C1027.62 598.6 1029.17 598.867 1030.57 599.4C1031.97 599.933 1033.15 600.7 1034.12 601.7C1035.09 602.7 1035.84 603.9 1036.37 605.3C1036.9 606.7 1037.17 608.267 1037.17 610ZM1043.87 599.3C1043.87 598.4 1044.3 597.95 1045.17 597.95H1048.32C1049.19 597.95 1049.62 598.4 1049.62 599.3V619.9C1049.62 620.8 1049.19 621.25 1048.32 621.25H1045.17C1044.3 621.25 1043.87 620.8 1043.87 619.9V599.3ZM1067.17 606.1C1065.34 606.1 1064.01 607.067 1063.17 609C1062.37 610.933 1061.97 614.1 1061.97 618.5C1061.97 622.9 1062.37 626.083 1063.17 628.05C1064.01 629.983 1065.34 630.95 1067.17 630.95C1069.04 630.95 1070.37 629.983 1071.17 628.05C1072.01 626.117 1072.42 622.933 1072.42 618.5C1072.42 614.1 1072.01 610.933 1071.17 609C1070.37 607.067 1069.04 606.1 1067.17 606.1ZM1078.17 618.5C1078.17 624.7 1077.29 629.25 1075.52 632.15C1073.79 635.017 1071.01 636.45 1067.17 636.45C1063.37 636.45 1060.59 635 1058.82 632.1C1057.09 629.2 1056.22 624.667 1056.22 618.5C1056.22 612.3 1057.09 607.767 1058.82 604.9C1060.56 602.033 1063.34 600.6 1067.17 600.6C1071.01 600.6 1073.79 602.033 1075.52 604.9C1077.29 607.767 1078.17 612.3 1078.17 618.5ZM1085.37 599.3C1085.37 598.4 1085.81 597.95 1086.67 597.95H1089.82C1090.69 597.95 1091.12 598.4 1091.12 599.3V640.9C1091.12 641.8 1090.69 642.25 1089.82 642.25H1086.67C1085.81 642.25 1085.37 641.8 1085.37 640.9V619.75C1085.01 620.417 1084.32 620.75 1083.32 620.75H1081.07C1080.24 620.75 1079.82 620.333 1079.82 619.5V616.5C1079.82 615.667 1080.24 615.25 1081.07 615.25H1083.62C1084.79 615.25 1085.37 614.717 1085.37 613.65V599.3ZM1122.33 625.15C1120.79 625.417 1119.21 625.55 1117.58 625.55C1115.64 625.55 1113.81 625.367 1112.08 625V631.4C1112.08 632.433 1112.66 632.95 1113.83 632.95C1114.43 632.95 1115.14 632.95 1115.98 632.95C1116.81 632.95 1117.66 632.95 1118.53 632.95C1119.43 632.95 1120.33 632.95 1121.23 632.95C1122.13 632.917 1122.94 632.9 1123.68 632.9C1123.28 632.733 1122.94 632.467 1122.68 632.1C1122.44 631.7 1122.33 631.233 1122.33 630.7V625.15ZM1117.58 620.2C1120.81 620.2 1123.26 619.567 1124.93 618.3C1126.59 617 1127.43 615.167 1127.43 612.8C1127.43 610.4 1126.61 608.567 1124.98 607.3C1123.34 606.033 1120.88 605.4 1117.58 605.4C1114.28 605.4 1111.81 606.033 1110.18 607.3C1108.54 608.567 1107.73 610.4 1107.73 612.8C1107.73 615.167 1108.56 617 1110.23 618.3C1111.89 619.567 1114.34 620.2 1117.58 620.2ZM1101.98 612.8C1101.98 608.733 1103.33 605.6 1106.03 603.4C1108.76 601.167 1112.61 600.05 1117.58 600.05C1122.54 600.05 1126.38 601.167 1129.08 603.4C1131.81 605.6 1133.18 608.733 1133.18 612.8C1133.18 615.1 1132.74 617.1 1131.88 618.8C1131.01 620.5 1129.74 621.9 1128.08 623V631.1C1128.08 632.133 1128.66 632.65 1129.83 632.65C1130.19 632.65 1130.61 632.633 1131.08 632.6C1131.54 632.567 1132.01 632.533 1132.48 632.5C1132.94 632.433 1133.38 632.383 1133.78 632.35C1134.18 632.283 1134.49 632.233 1134.73 632.2C1135.63 632.1 1136.08 632.5 1136.08 633.4V636.15C1136.08 636.917 1135.66 637.367 1134.83 637.5C1133.99 637.633 1132.96 637.75 1131.73 637.85C1130.49 637.95 1129.11 638.033 1127.58 638.1C1126.04 638.2 1124.39 638.267 1122.63 638.3C1120.86 638.333 1119.03 638.35 1117.13 638.35C1109.19 638.35 1103.34 638.05 1099.58 637.45C1098.74 637.317 1098.33 636.867 1098.33 636.1V633.35C1098.33 632.45 1098.78 632.05 1099.68 632.15C1101.08 632.35 1102.41 632.533 1103.68 632.7C1104.94 632.867 1106.21 632.983 1107.48 633.05C1106.71 632.617 1106.33 631.917 1106.33 630.95V623C1106.33 622.767 1106.34 622.6 1106.38 622.5C1104.94 621.433 1103.84 620.083 1103.08 618.45C1102.34 616.817 1101.98 614.933 1101.98 612.8ZM1141.93 639.85C1141.93 638.75 1142.28 637.867 1142.98 637.2C1143.68 636.533 1144.58 636.2 1145.68 636.2C1146.82 636.2 1147.73 636.533 1148.43 637.2C1149.13 637.867 1149.48 638.75 1149.48 639.85C1149.48 640.917 1149.13 641.767 1148.43 642.4C1147.73 643.067 1146.82 643.4 1145.68 643.4C1144.58 643.4 1143.68 643.067 1142.98 642.4C1142.28 641.767 1141.93 640.917 1141.93 639.85Z" fill="black"/>
<g filter="url(#filter0_f_6_29)">
<circle cx="711.857" cy="330.588" r="87.8571" fill="url(#paint0_linear_6_29)"/>
</g>
<g filter="url(#filter1_f_6_29)">
<circle cx="751.714" cy="280.286" r="64.2857" fill="url(#paint1_linear_6_29)"/>
</g>
<defs>
<filter id="filter0_f_6_29" x="584" y="202.73" width="255.714" height="255.714" filterUnits="userSpaceOnUse" color-interpolation-filters="sRGB">
<feFlood flood-opacity="0" result="BackgroundImageFix"/>
<feBlend mode="normal" in="SourceGraphic" in2="BackgroundImageFix" result="shape"/>
<feGaussianBlur stdDeviation="20" result="effect1_foregroundBlur_6_29"/>
</filter>
<filter id="filter1_f_6_29" x="647.429" y="176" width="208.571" height="208.571" filterUnits="userSpaceOnUse" color-interpolation-filters="sRGB">
<feFlood flood-opacity="0" result="BackgroundImageFix"/>
<feBlend mode="normal" in="SourceGraphic" in2="BackgroundImageFix" result="shape"/>
<feGaussianBlur stdDeviation="20" result="effect1_foregroundBlur_6_29"/>
</filter>
<linearGradient id="paint0_linear_6_29" x1="711.857" y1="242.73" x2="711.857" y2="418.445" gradientUnits="userSpaceOnUse">
<stop stop-color="#DC5FFF"/>
<stop offset="1" stop-color="#CECBFF" stop-opacity="0.46"/>
</linearGradient>
<linearGradient id="paint1_linear_6_29" x1="751.714" y1="216" x2="751.714" y2="344.571" gradientUnits="userSpaceOnUse">
<stop stop-color="#E27BFF"/>
<stop offset="1" stop-color="#447FFF" stop-opacity="0"/>
</linearGradient>
</defs>
</svg>
