<svg width="1440" height="1024" viewBox="0 0 1440 1024" fill="none" xmlns="http://www.w3.org/2000/svg">
<rect width="1440" height="1024" fill="#FFFCF7"/>
<path d="M429.919 544.5C429.919 550.7 429.019 555.25 427.219 558.15C425.419 561.017 422.569 562.45 418.669 562.45C414.802 562.45 411.969 561.017 410.169 558.15C408.369 555.25 407.469 550.7 407.469 544.5C407.469 538.3 408.369 533.767 410.169 530.9C411.969 528.033 414.802 526.6 418.669 526.6C422.569 526.6 425.419 528.033 427.219 530.9C429.019 533.767 429.919 538.3 429.919 544.5ZM418.669 532.1C416.769 532.1 415.386 533.067 414.519 535C413.652 536.933 413.219 540.1 413.219 544.5C413.219 548.9 413.652 552.083 414.519 554.05C415.386 555.983 416.769 556.95 418.669 556.95C420.602 556.95 422.002 555.983 422.869 554.05C423.736 552.117 424.169 548.933 424.169 544.5C424.169 540.1 423.736 536.933 422.869 535C422.002 533.067 420.602 532.1 418.669 532.1ZM436.619 525.3C436.619 524.4 437.052 523.95 437.919 523.95H441.069C441.936 523.95 442.369 524.4 442.369 525.3V566.9C442.369 567.8 441.936 568.25 441.069 568.25H437.919C437.052 568.25 436.619 567.8 436.619 566.9V525.3ZM449.723 532.6C448.89 532.6 448.473 532.183 448.473 531.35V528.35C448.473 527.517 448.89 527.1 449.723 527.1H467.773C468.606 527.1 469.023 527.517 469.023 528.35V531.35C469.023 532.183 468.606 532.6 467.773 532.6H461.473V545.9C461.473 548.933 462.073 551.3 463.273 553C464.506 554.7 466.09 555.683 468.023 555.95C468.456 556.017 468.773 556.133 468.973 556.3C469.173 556.467 469.273 556.767 469.273 557.2V560.2C469.273 561.133 468.856 561.55 468.023 561.45C465.823 561.183 463.89 560.417 462.223 559.15C460.59 557.85 459.423 556.133 458.723 554C458.023 556.133 456.856 557.85 455.223 559.15C453.59 560.417 451.673 561.183 449.473 561.45C448.64 561.55 448.223 561.133 448.223 560.2V557.2C448.223 556.767 448.323 556.467 448.523 556.3C448.723 556.133 449.04 556.017 449.473 555.95C451.406 555.683 452.973 554.7 454.173 553C455.373 551.3 455.973 548.933 455.973 545.9V532.6H449.723ZM472.473 541C473.04 541 473.423 540.9 473.623 540.7C473.856 540.5 473.973 540.15 473.973 539.65V525.7C473.973 524.867 474.39 524.45 475.223 524.45H478.223C479.056 524.45 479.473 524.867 479.473 525.7V567C479.473 567.833 479.056 568.25 478.223 568.25H475.223C474.39 568.25 473.973 567.833 473.973 567V545.6C473.806 545.867 473.573 546.083 473.273 546.25C472.973 546.417 472.64 546.5 472.273 546.5H467.923C467.09 546.5 466.673 546.083 466.673 545.25V542.25C466.673 541.417 467.09 541 467.923 541H472.473ZM488.223 567C488.223 567.833 487.806 568.25 486.973 568.25H483.973C483.14 568.25 482.723 567.833 482.723 567V525.2C482.723 524.367 483.14 523.95 483.973 523.95H486.973C487.806 523.95 488.223 524.367 488.223 525.2V567ZM505.175 538.7C505.208 540.033 505.941 540.7 507.375 540.7H520.975C522.441 540.7 523.191 540.033 523.225 538.7L523.375 534.85H504.975L505.175 538.7ZM518.825 556.05C517.658 556.05 517.075 556.567 517.075 557.6V565.15C517.075 566.05 516.641 566.5 515.775 566.5H512.625C511.758 566.5 511.325 566.05 511.325 565.15V558.25C511.325 557.75 511.441 557.317 511.675 556.95C511.908 556.55 512.225 556.267 512.625 556.1C511.225 556.1 509.775 556.083 508.275 556.05C506.775 555.983 505.308 555.917 503.875 555.85C502.441 555.75 501.091 555.65 499.825 555.55C498.558 555.45 497.475 555.35 496.575 555.25C495.741 555.15 495.325 554.683 495.325 553.85V551.1C495.325 550.233 495.775 549.85 496.675 549.95C499.075 550.217 501.708 550.433 504.575 550.6C507.441 550.733 510.625 550.8 514.125 550.8C517.725 550.8 521.058 550.733 524.125 550.6C527.225 550.467 529.758 550.267 531.725 550C532.625 549.9 533.075 550.283 533.075 551.15V553.9C533.075 554.7 532.658 555.167 531.825 555.3C530.991 555.4 530.041 555.5 528.975 555.6C527.908 555.7 526.791 555.783 525.625 555.85C524.491 555.917 523.341 555.967 522.175 556C521.008 556.033 519.891 556.05 518.825 556.05ZM505.625 546.05C503.758 546.05 502.291 545.617 501.225 544.75C500.191 543.85 499.641 542.567 499.575 540.9L498.825 526.35C498.758 525.483 499.191 525.05 500.125 525.05H503.275C504.075 525.05 504.508 525.483 504.575 526.35L504.725 529.5H523.625L523.775 526.35C523.841 525.483 524.275 525.05 525.075 525.05H528.225C529.158 525.05 529.591 525.483 529.525 526.35L528.775 540.9C528.708 542.567 528.141 543.85 527.075 544.75C526.041 545.617 524.591 546.05 522.725 546.05H505.625ZM561.381 559.95C559.881 560.583 558.231 561.067 556.431 561.4C554.631 561.767 552.881 561.95 551.181 561.95C549.247 561.95 547.497 561.65 545.931 561.05C544.364 560.483 543.047 559.667 541.981 558.6C540.914 557.533 540.081 556.233 539.481 554.7C538.914 553.133 538.631 551.4 538.631 549.5C538.631 541.067 543.164 536.85 552.231 536.85C554.764 536.85 556.931 537 558.731 537.3C559.531 537.433 559.931 537.917 559.931 538.75V541.6C559.931 542.5 559.514 542.9 558.681 542.8C557.614 542.667 556.581 542.567 555.581 542.5C554.614 542.433 553.764 542.4 553.031 542.4C549.997 542.4 547.797 543 546.431 544.2C545.064 545.367 544.381 547.167 544.381 549.6C544.381 551.733 545.031 553.417 546.331 554.65C547.631 555.85 549.481 556.45 551.881 556.45C552.847 556.45 553.997 556.317 555.331 556.05C556.664 555.75 558.131 555.333 559.731 554.8C559.897 554.733 560.114 554.7 560.381 554.7C560.914 554.7 561.281 555 561.481 555.6L562.231 558.3C562.464 559.067 562.181 559.617 561.381 559.95ZM567.381 525.3C567.381 524.4 567.814 523.95 568.681 523.95H571.831C572.697 523.95 573.131 524.4 573.131 525.3V566.9C573.131 567.8 572.697 568.25 571.831 568.25H568.681C567.814 568.25 567.381 567.8 567.381 566.9V549.5C567.014 550.167 566.331 550.5 565.331 550.5H562.081C561.247 550.5 560.831 550.083 560.831 549.25V546.25C560.831 545.417 561.247 545 562.081 545H565.631C566.797 545 567.381 544.467 567.381 543.4V525.3ZM540.431 532.6C539.597 532.6 539.181 532.183 539.181 531.35V528.35C539.181 527.517 539.597 527.1 540.431 527.1H559.581C560.414 527.1 560.831 527.517 560.831 528.35V531.35C560.831 532.183 560.414 532.6 559.581 532.6H540.431ZM584.185 562.2C585.351 562.2 586.268 562.55 586.935 563.25C587.635 563.95 587.985 564.933 587.985 566.2C587.985 568.2 587.368 569.783 586.135 570.95C584.935 572.117 583.385 572.7 581.485 572.7C581.151 572.7 580.985 572.517 580.985 572.15V571.1C580.985 570.733 581.151 570.55 581.485 570.55C582.551 570.55 583.218 570.15 583.485 569.35C582.585 569.217 581.851 568.833 581.285 568.2C580.718 567.567 580.435 566.767 580.435 565.8C580.435 564.7 580.768 563.817 581.435 563.15C582.135 562.517 583.051 562.2 584.185 562.2ZM615.347 559.55C615.347 560.217 615.514 560.8 615.847 561.3C616.18 561.833 616.73 562.283 617.497 562.65C618.297 563.017 619.347 563.3 620.647 563.5C621.947 563.7 623.547 563.8 625.447 563.8C627.347 563.8 628.947 563.7 630.247 563.5C631.547 563.3 632.58 563.017 633.347 562.65C634.147 562.283 634.714 561.833 635.047 561.3C635.38 560.8 635.547 560.217 635.547 559.55C635.547 558.883 635.38 558.3 635.047 557.8C634.714 557.267 634.147 556.817 633.347 556.45C632.58 556.083 631.547 555.8 630.247 555.6C628.947 555.4 627.347 555.3 625.447 555.3C623.547 555.3 621.947 555.4 620.647 555.6C619.347 555.8 618.297 556.083 617.497 556.45C616.73 556.817 616.18 557.267 615.847 557.8C615.514 558.3 615.347 558.883 615.347 559.55ZM609.597 559.55C609.597 553.217 614.88 550.05 625.447 550.05C636.014 550.05 641.297 553.217 641.297 559.55C641.297 565.883 636.014 569.05 625.447 569.05C614.88 569.05 609.597 565.883 609.597 559.55ZM629.197 545.5C627.797 545.967 626.28 546.333 624.647 546.6C623.047 546.833 621.614 546.95 620.347 546.95C615.78 546.95 612.33 546.067 609.997 544.3C607.697 542.533 606.547 539.783 606.547 536.05C606.547 532.317 607.747 529.567 610.147 527.8C612.547 526 616.064 525.1 620.697 525.1C621.73 525.1 622.814 525.133 623.947 525.2C625.114 525.267 626.264 525.383 627.397 525.55C628.13 525.683 628.497 526.133 628.497 526.9V529.6C628.497 530.5 628.08 530.9 627.247 530.8C626.28 530.633 625.264 530.517 624.197 530.45C623.164 530.383 622.147 530.35 621.147 530.35C618.214 530.35 615.997 530.817 614.497 531.75C613.03 532.65 612.297 534.083 612.297 536.05C612.297 538.05 612.964 539.5 614.297 540.4C615.63 541.267 617.714 541.7 620.547 541.7C621.514 541.7 622.68 541.583 624.047 541.35C625.447 541.083 626.747 540.75 627.947 540.35C628.714 540.083 629.197 540.367 629.397 541.2L630.097 543.95C630.297 544.75 629.997 545.267 629.197 545.5ZM640.197 546.4C640.197 547.3 639.764 547.75 638.897 547.75H635.747C634.88 547.75 634.447 547.3 634.447 546.4V525.3C634.447 524.4 634.88 523.95 635.747 523.95H638.897C639.764 523.95 640.197 524.4 640.197 525.3V533.45C640.564 532.783 641.247 532.45 642.247 532.45H645.197C646.03 532.45 646.447 532.867 646.447 533.7V536.45C646.447 537.283 646.03 537.7 645.197 537.7H641.947C640.78 537.7 640.197 538.233 640.197 539.3V546.4ZM664.153 533.4C664.153 534.8 664.336 536.1 664.703 537.3C665.103 538.467 665.636 539.5 666.303 540.4C666.97 541.267 667.77 541.95 668.703 542.45C669.636 542.95 670.653 543.2 671.753 543.2C672.586 543.2 673.003 543.617 673.003 544.45V547.2C673.003 548.033 672.586 548.45 671.753 548.45C670.453 548.45 669.236 548.25 668.103 547.85C667.003 547.45 666.003 546.917 665.103 546.25C664.203 545.55 663.42 544.767 662.753 543.9C662.12 543 661.636 542.05 661.303 541.05C660.97 542.05 660.47 543 659.803 543.9C659.17 544.767 658.403 545.55 657.503 546.25C656.603 546.917 655.586 547.45 654.453 547.85C653.32 548.25 652.103 548.45 650.803 548.45C649.97 548.45 649.553 548.033 649.553 547.2V544.45C649.553 543.617 649.97 543.2 650.803 543.2C651.903 543.2 652.92 542.95 653.853 542.45C654.786 541.95 655.586 541.267 656.253 540.4C656.92 539.5 657.436 538.467 657.803 537.3C658.203 536.1 658.403 534.8 658.403 533.4V526.45C658.403 525.55 658.836 525.1 659.703 525.1H662.853C663.72 525.1 664.153 525.55 664.153 526.45V533.4ZM678.953 525.3C678.953 524.4 679.386 523.95 680.253 523.95H683.403C684.27 523.95 684.703 524.4 684.703 525.3V553.4C684.703 554.3 684.27 554.75 683.403 554.75H680.253C679.386 554.75 678.953 554.3 678.953 553.4V525.3ZM654.403 554.15C654.57 553.283 655.053 552.85 655.853 552.85H658.853C659.286 552.85 659.62 552.983 659.853 553.25C660.12 553.483 660.22 553.8 660.153 554.2C660.086 554.8 660.02 555.533 659.953 556.4C659.886 557.267 659.853 558.183 659.853 559.15C659.853 560.65 660.303 561.783 661.203 562.55C662.103 563.35 663.32 563.75 664.853 563.75C667.053 563.75 669.036 563.733 670.803 563.7C672.603 563.667 674.27 563.6 675.803 563.5C677.336 563.433 678.803 563.35 680.203 563.25C681.636 563.15 683.086 563.033 684.553 562.9C685.353 562.8 685.786 563.2 685.853 564.1L686.053 566.85C686.086 567.583 685.686 568 684.853 568.1C682.353 568.367 679.47 568.583 676.203 568.75C672.97 568.917 669.27 569 665.103 569C661.603 569 658.886 568.183 656.953 566.55C655.053 564.917 654.103 562.633 654.103 559.7C654.103 558.633 654.12 557.6 654.153 556.6C654.22 555.6 654.303 554.783 654.403 554.15ZM713.757 544.5C713.757 550.7 712.857 555.25 711.057 558.15C709.257 561.017 706.407 562.45 702.507 562.45C698.64 562.45 695.807 561.017 694.007 558.15C692.207 555.25 691.307 550.7 691.307 544.5C691.307 538.3 692.207 533.767 694.007 530.9C695.807 528.033 698.64 526.6 702.507 526.6C706.407 526.6 709.257 528.033 711.057 530.9C712.857 533.767 713.757 538.3 713.757 544.5ZM702.507 532.1C700.607 532.1 699.224 533.067 698.357 535C697.49 536.933 697.057 540.1 697.057 544.5C697.057 548.9 697.49 552.083 698.357 554.05C699.224 555.983 700.607 556.95 702.507 556.95C704.44 556.95 705.84 555.983 706.707 554.05C707.574 552.117 708.007 548.933 708.007 544.5C708.007 540.1 707.574 536.933 706.707 535C705.84 533.067 704.44 532.1 702.507 532.1ZM720.457 525.3C720.457 524.4 720.89 523.95 721.757 523.95H724.907C725.774 523.95 726.207 524.4 726.207 525.3V566.9C726.207 567.8 725.774 568.25 724.907 568.25H721.757C720.89 568.25 720.457 567.8 720.457 566.9V525.3ZM756.574 554C755.874 556.133 754.708 557.85 753.074 559.15C751.441 560.417 749.524 561.183 747.324 561.45C746.491 561.55 746.074 561.133 746.074 560.2V557.2C746.074 556.767 746.174 556.467 746.374 556.3C746.574 556.133 746.891 556.017 747.324 555.95C749.258 555.683 750.824 554.7 752.024 553C753.224 551.3 753.824 548.933 753.824 545.9V528.35C753.824 527.517 754.241 527.1 755.074 527.1H758.074C758.908 527.1 759.324 527.517 759.324 528.35V545.9C759.324 548.933 759.924 551.3 761.124 553C762.358 554.7 763.941 555.683 765.874 555.95C766.308 556.017 766.624 556.133 766.824 556.3C767.024 556.467 767.124 556.767 767.124 557.2V560.2C767.124 561.133 766.708 561.55 765.874 561.45C763.674 561.183 761.741 560.417 760.074 559.15C758.441 557.85 757.274 556.133 756.574 554ZM770.324 538.75C770.891 538.75 771.274 538.65 771.474 538.45C771.708 538.25 771.824 537.9 771.824 537.4V525.7C771.824 524.867 772.241 524.45 773.074 524.45H776.074C776.908 524.45 777.324 524.867 777.324 525.7V567C777.324 567.833 776.908 568.25 776.074 568.25H773.074C772.241 568.25 771.824 567.833 771.824 567V543.35C771.658 543.617 771.424 543.833 771.124 544C770.824 544.167 770.491 544.25 770.124 544.25H765.024C764.191 544.25 763.774 543.833 763.774 543V540C763.774 539.167 764.191 538.75 765.024 538.75H770.324ZM786.074 567C786.074 567.833 785.658 568.25 784.824 568.25H781.824C780.991 568.25 780.574 567.833 780.574 567V525.2C780.574 524.367 780.991 523.95 781.824 523.95H784.824C785.658 523.95 786.074 524.367 786.074 525.2V567ZM803.14 559.55C803.14 560.217 803.307 560.8 803.64 561.3C803.973 561.833 804.523 562.283 805.29 562.65C806.09 563.017 807.14 563.3 808.44 563.5C809.74 563.7 811.34 563.8 813.24 563.8C815.14 563.8 816.74 563.7 818.04 563.5C819.34 563.3 820.373 563.017 821.14 562.65C821.94 562.283 822.507 561.833 822.84 561.3C823.173 560.8 823.34 560.217 823.34 559.55C823.34 558.883 823.173 558.3 822.84 557.8C822.507 557.267 821.94 556.817 821.14 556.45C820.373 556.083 819.34 555.8 818.04 555.6C816.74 555.4 815.14 555.3 813.24 555.3C811.34 555.3 809.74 555.4 808.44 555.6C807.14 555.8 806.09 556.083 805.29 556.45C804.523 556.817 803.973 557.267 803.64 557.8C803.307 558.3 803.14 558.883 803.14 559.55ZM797.39 559.55C797.39 553.217 802.673 550.05 813.24 550.05C823.807 550.05 829.09 553.217 829.09 559.55C829.09 565.883 823.807 569.05 813.24 569.05C802.673 569.05 797.39 565.883 797.39 559.55ZM808.44 531.9C808.44 533.233 808.623 534.483 808.99 535.65C809.39 536.783 809.923 537.767 810.59 538.6C811.257 539.4 812.057 540.033 812.99 540.5C813.923 540.967 814.94 541.2 816.04 541.2C816.873 541.2 817.29 541.617 817.29 542.45V545.2C817.29 546.033 816.873 546.45 816.04 546.45C814.74 546.45 813.523 546.267 812.39 545.9C811.257 545.5 810.24 544.967 809.34 544.3C808.44 543.633 807.673 542.867 807.04 542C806.407 541.133 805.923 540.217 805.59 539.25C805.257 540.217 804.757 541.133 804.09 542C803.457 542.867 802.69 543.633 801.79 544.3C800.89 544.967 799.873 545.5 798.74 545.9C797.607 546.267 796.39 546.45 795.09 546.45C794.257 546.45 793.84 546.033 793.84 545.2V542.45C793.84 541.617 794.257 541.2 795.09 541.2C796.19 541.2 797.207 540.967 798.14 540.5C799.073 540.033 799.873 539.4 800.54 538.6C801.207 537.767 801.723 536.783 802.09 535.65C802.49 534.483 802.69 533.233 802.69 531.9V526.45C802.69 525.55 803.123 525.1 803.99 525.1H807.14C808.007 525.1 808.44 525.55 808.44 526.45V531.9ZM827.99 546.4C827.99 547.3 827.557 547.75 826.69 547.75H823.54C822.673 547.75 822.24 547.3 822.24 546.4V525.3C822.24 524.4 822.673 523.95 823.54 523.95H826.69C827.557 523.95 827.99 524.4 827.99 525.3V533.45C828.357 532.783 829.04 532.45 830.04 532.45H832.99C833.823 532.45 834.24 532.867 834.24 533.7V536.45C834.24 537.283 833.823 537.7 832.99 537.7H829.74C828.573 537.7 827.99 538.233 827.99 539.3V546.4ZM847.596 532.3C847.596 532.9 847.746 533.4 848.046 533.8C848.379 534.167 848.929 534.483 849.696 534.75C850.463 534.983 851.479 535.15 852.746 535.25C854.013 535.35 855.579 535.4 857.446 535.4C859.313 535.4 860.879 535.35 862.146 535.25C863.413 535.15 864.429 534.983 865.196 534.75C865.963 534.483 866.496 534.167 866.796 533.8C867.129 533.4 867.296 532.9 867.296 532.3C867.296 531.7 867.129 531.217 866.796 530.85C866.496 530.45 865.963 530.133 865.196 529.9C864.429 529.633 863.413 529.45 862.146 529.35C860.879 529.25 859.313 529.2 857.446 529.2C855.579 529.2 854.013 529.25 852.746 529.35C851.479 529.45 850.463 529.633 849.696 529.9C848.929 530.133 848.379 530.45 848.046 530.85C847.746 531.217 847.596 531.7 847.596 532.3ZM873.046 568.15C872.146 568.283 871.113 568.4 869.946 568.5C868.779 568.6 867.579 568.683 866.346 568.75C865.113 568.85 863.913 568.917 862.746 568.95C861.579 568.983 860.513 569 859.546 569C855.913 569 852.929 568.9 850.596 568.7C848.263 568.533 846.429 568.217 845.096 567.75C843.763 567.283 842.846 566.633 842.346 565.8C841.846 565 841.596 563.95 841.596 562.65C841.596 561.45 841.813 560.467 842.246 559.7C842.713 558.9 843.513 558.267 844.646 557.8C845.813 557.3 847.363 556.967 849.296 556.8C851.229 556.6 853.679 556.5 856.646 556.5C858.013 556.5 859.396 556.517 860.796 556.55C862.196 556.583 863.546 556.567 864.846 556.5C865.779 556.467 866.429 556.35 866.796 556.15C867.163 555.95 867.346 555.583 867.346 555.05C867.346 554.483 867.163 554.083 866.796 553.85C866.463 553.617 865.863 553.5 864.996 553.5C863.729 553.5 862.163 553.517 860.296 553.55C858.463 553.583 856.546 553.633 854.546 553.7C852.546 553.767 850.579 553.85 848.646 553.95C846.746 554.017 845.096 554.1 843.696 554.2C842.963 554.233 842.596 553.85 842.596 553.05V550.8C842.596 550.067 842.963 549.683 843.696 549.65C845.596 549.517 847.646 549.417 849.846 549.35C852.046 549.25 854.246 549.183 856.446 549.15C858.679 549.083 860.829 549.05 862.896 549.05C864.996 549.017 866.846 549.017 868.446 549.05C870.146 549.117 871.329 549.433 871.996 550C872.696 550.567 873.046 551.467 873.046 552.7C873.046 553.7 872.746 554.583 872.146 555.35C871.579 556.083 870.796 556.617 869.796 556.95H871.596C872.296 556.95 872.646 557.317 872.646 558.05V560.1C872.646 560.9 872.296 561.267 871.596 561.2C870.029 561.133 868.013 561.083 865.546 561.05C863.113 561.017 860.179 561 856.746 561C854.646 561 852.979 561.017 851.746 561.05C850.513 561.117 849.563 561.2 848.896 561.3C848.263 561.433 847.846 561.617 847.646 561.85C847.446 562.083 847.346 562.383 847.346 562.75C847.346 563.183 847.496 563.517 847.796 563.75C848.129 563.983 848.729 564.15 849.596 564.25C850.496 564.383 851.729 564.45 853.296 564.45C854.896 564.483 856.963 564.5 859.496 564.5C860.429 564.5 861.463 564.483 862.596 564.45C863.729 564.417 864.879 564.35 866.046 564.25C867.246 564.183 868.413 564.1 869.546 564C870.713 563.9 871.763 563.783 872.696 563.65C873.429 563.55 873.829 563.883 873.896 564.65L874.046 566.9C874.079 567.633 873.746 568.05 873.046 568.15ZM874.696 541.65C875.529 541.55 875.946 541.917 875.946 542.75V545.15C875.946 545.883 875.563 546.3 874.796 546.4C873.896 546.5 872.779 546.583 871.446 546.65C870.146 546.717 868.713 546.767 867.146 546.8C865.613 546.833 863.979 546.85 862.246 546.85C860.513 546.85 858.763 546.85 856.996 546.85C852.396 546.817 848.679 546.767 845.846 546.7C843.013 546.633 840.846 546.517 839.346 546.35C838.579 546.25 838.196 545.85 838.196 545.15V542.7C838.196 541.9 838.613 541.533 839.446 541.6C840.613 541.667 841.913 541.733 843.346 541.8C844.779 541.833 846.263 541.883 847.796 541.95C849.329 541.983 850.879 542.017 852.446 542.05C854.013 542.083 855.529 542.1 856.996 542.1C861.096 542.1 864.596 542.083 867.496 542.05C870.396 541.983 872.796 541.85 874.696 541.65ZM841.846 532.3C841.846 530.9 842.129 529.717 842.696 528.75C843.296 527.75 844.213 526.95 845.446 526.35C846.713 525.717 848.329 525.267 850.296 525C852.296 524.7 854.679 524.55 857.446 524.55C860.213 524.55 862.579 524.7 864.546 525C866.546 525.267 868.163 525.717 869.396 526.35C870.663 526.95 871.579 527.75 872.146 528.75C872.746 529.717 873.046 530.9 873.046 532.3C873.046 533.7 872.746 534.9 872.146 535.9C871.579 536.867 870.663 537.667 869.396 538.3C868.163 538.9 866.546 539.35 864.546 539.65C862.579 539.917 860.213 540.05 857.446 540.05C854.679 540.05 852.296 539.917 850.296 539.65C848.329 539.35 846.713 538.9 845.446 538.3C844.213 537.667 843.296 536.867 842.696 535.9C842.129 534.9 841.846 533.7 841.846 532.3ZM908.665 555.6C908.699 555.6 908.715 555.6 908.715 555.6C908.749 555.567 908.782 555.55 908.815 555.55C907.849 552.717 907.365 549.05 907.365 544.55C907.365 541.383 907.532 538.7 907.865 536.5C908.199 534.267 908.715 532.467 909.415 531.1C910.149 529.7 911.099 528.683 912.265 528.05C913.432 527.417 914.849 527.1 916.515 527.1C917.082 527.1 917.582 527.117 918.015 527.15C918.482 527.183 918.899 527.233 919.265 527.3C919.732 527.367 920.049 527.5 920.215 527.7C920.415 527.867 920.515 528.183 920.515 528.65V531.65C920.515 532.583 920.082 532.967 919.215 532.8C918.882 532.733 918.532 532.683 918.165 532.65C917.799 532.583 917.432 532.55 917.065 532.55C916.232 532.55 915.532 532.717 914.965 533.05C914.432 533.383 913.999 534 913.665 534.9C913.365 535.8 913.149 537.033 913.015 538.6C912.915 540.133 912.865 542.117 912.865 544.55C912.865 546.817 912.932 548.717 913.065 550.25C913.232 551.75 913.482 552.967 913.815 553.9C914.149 554.833 914.599 555.5 915.165 555.9C915.732 556.267 916.432 556.45 917.265 556.45C918.165 556.45 919.132 556.25 920.165 555.85C920.432 555.783 920.599 555.75 920.665 555.75C921.132 555.75 921.415 556.1 921.515 556.8L921.965 559.7C922.065 560.433 921.749 560.933 921.015 561.2C920.282 561.467 919.549 561.65 918.815 561.75C918.115 561.883 917.332 561.95 916.465 561.95C913.899 561.95 911.849 560.833 910.315 558.6L910.465 559.45C910.565 560.183 910.249 560.683 909.515 560.95C908.549 561.317 907.632 561.567 906.765 561.7C905.932 561.867 905.082 561.95 904.215 561.95C901.082 561.95 898.699 560.467 897.065 557.5C895.432 554.5 894.615 550.183 894.615 544.55C894.615 541.383 894.765 538.7 895.065 536.5C895.399 534.267 895.932 532.467 896.665 531.1C897.399 529.7 898.332 528.683 899.465 528.05C900.632 527.417 902.032 527.1 903.665 527.1C904.132 527.1 904.565 527.117 904.965 527.15C905.365 527.183 905.749 527.233 906.115 527.3C906.582 527.367 906.899 527.5 907.065 527.7C907.265 527.867 907.365 528.183 907.365 528.65V531.65C907.365 532.583 906.932 532.967 906.065 532.8C905.732 532.733 905.399 532.683 905.065 532.65C904.765 532.583 904.482 532.55 904.215 532.55C903.382 532.55 902.699 532.717 902.165 533.05C901.632 533.383 901.215 534 900.915 534.9C900.615 535.767 900.399 536.983 900.265 538.55C900.165 540.083 900.115 542.083 900.115 544.55C900.115 546.75 900.199 548.6 900.365 550.1C900.532 551.6 900.815 552.833 901.215 553.8C901.615 554.733 902.115 555.417 902.715 555.85C903.349 556.25 904.115 556.45 905.015 556.45C906.049 556.45 907.265 556.167 908.665 555.6ZM924.765 525.3C924.765 524.4 925.199 523.95 926.065 523.95H929.215C930.082 523.95 930.515 524.4 930.515 525.3V566.9C930.515 567.8 930.082 568.25 929.215 568.25H926.065C925.199 568.25 924.765 567.8 924.765 566.9V545.75C924.399 546.417 923.715 546.75 922.715 546.75H919.965C919.132 546.75 918.715 546.333 918.715 545.5V542.5C918.715 541.667 919.132 541.25 919.965 541.25H923.015C924.182 541.25 924.765 540.717 924.765 539.65V525.3ZM959.258 547.2C957.558 547.733 955.724 548.15 953.758 548.45C951.824 548.75 950.058 548.9 948.458 548.9C944.891 548.9 942.191 548.033 940.358 546.3C938.524 544.567 937.608 542 937.608 538.6C937.608 536.333 937.691 534.2 937.858 532.2C938.024 530.2 938.308 528.217 938.708 526.25C938.874 525.483 939.341 525.1 940.108 525.1H943.158C943.624 525.1 943.974 525.233 944.208 525.5C944.474 525.733 944.574 526.067 944.508 526.5C944.074 529.233 943.774 531.583 943.608 533.55C943.441 535.483 943.358 537.35 943.358 539.15C943.358 540.717 943.758 541.867 944.558 542.6C945.391 543.3 946.691 543.65 948.458 543.65C949.058 543.65 949.741 543.617 950.508 543.55C951.308 543.45 952.124 543.333 952.958 543.2C953.824 543.033 954.691 542.85 955.558 542.65C956.458 542.417 957.308 542.167 958.108 541.9C958.808 541.667 959.274 541.983 959.508 542.85L960.308 545.6C960.508 546.367 960.158 546.9 959.258 547.2ZM971.008 553.4C971.008 554.3 970.574 554.75 969.708 554.75H966.558C965.691 554.75 965.258 554.3 965.258 553.4V525.3C965.258 524.4 965.691 523.95 966.558 523.95H969.708C970.574 523.95 971.008 524.4 971.008 525.3V536.95C971.374 536.283 972.058 535.95 973.058 535.95H976.008C976.841 535.95 977.258 536.367 977.258 537.2V539.95C977.258 540.783 976.841 541.2 976.008 541.2H972.758C971.591 541.2 971.008 541.733 971.008 542.8V553.4ZM941.708 554.15C941.874 553.283 942.358 552.85 943.158 552.85H946.158C946.591 552.85 946.924 552.983 947.158 553.25C947.424 553.483 947.524 553.8 947.458 554.2C947.391 554.8 947.324 555.533 947.258 556.4C947.191 557.267 947.158 558.183 947.158 559.15C947.158 560.65 947.608 561.783 948.508 562.55C949.408 563.35 950.624 563.75 952.158 563.75C954.258 563.75 956.124 563.733 957.758 563.7C959.424 563.667 960.974 563.6 962.408 563.5C963.874 563.433 965.274 563.35 966.608 563.25C967.974 563.15 969.391 563.033 970.858 562.9C971.658 562.8 972.091 563.2 972.158 564.1L972.358 566.85C972.391 567.583 971.991 568 971.158 568.1C968.658 568.367 965.874 568.583 962.808 568.75C959.774 568.917 956.308 569 952.408 569C948.908 569 946.191 568.183 944.258 566.55C942.358 564.917 941.408 562.633 941.408 559.7C941.408 558.633 941.424 557.6 941.458 556.6C941.524 555.6 941.608 554.783 941.708 554.15ZM1004.98 556.3C1003.11 556.233 1001.19 556.133 999.227 556C997.26 555.867 995.594 555.7 994.227 555.5C993.394 555.367 992.977 554.933 992.977 554.2V551.25C992.977 550.383 993.427 550.033 994.327 550.2C997.694 550.7 1001.81 550.95 1006.68 550.95C1009.04 550.95 1011.41 550.9 1013.78 550.8C1016.18 550.7 1018.23 550.517 1019.93 550.25C1020.79 550.083 1021.23 550.45 1021.23 551.35V554.2C1021.23 555 1020.81 555.45 1019.98 555.55C1019.48 555.617 1018.88 555.683 1018.18 555.75C1017.48 555.817 1016.73 555.883 1015.93 555.95C1015.13 556.017 1014.31 556.067 1013.48 556.1C1012.68 556.133 1011.89 556.15 1011.13 556.15C1009.96 556.15 1009.38 556.667 1009.38 557.7V566.15C1009.38 567.05 1008.94 567.5 1008.08 567.5H1004.93C1004.06 567.5 1003.63 567.05 1003.63 566.15V558.45C1003.63 557.917 1003.74 557.467 1003.98 557.1C1004.24 556.733 1004.58 556.467 1004.98 556.3ZM1029.53 566.9C1029.53 567.8 1029.09 568.25 1028.23 568.25H1025.08C1024.21 568.25 1023.78 567.8 1023.78 566.9V525.3C1023.78 524.4 1024.21 523.95 1025.08 523.95H1028.23C1029.09 523.95 1029.53 524.4 1029.53 525.3V566.9ZM1017.78 545.1C1016.28 545.533 1014.76 545.867 1013.23 546.1C1011.69 546.3 1010.34 546.4 1009.18 546.4C1004.74 546.4 1001.38 545.567 999.077 543.9C996.777 542.233 995.627 539.517 995.627 535.75C995.627 531.983 996.794 529.267 999.127 527.6C1001.49 525.9 1004.96 525.05 1009.53 525.05C1010.93 525.05 1012.13 525.083 1013.13 525.15C1014.16 525.217 1015.11 525.333 1015.98 525.5C1016.71 525.633 1017.08 526.083 1017.08 526.85V529.55C1017.08 530.517 1016.66 530.917 1015.83 530.75C1014.19 530.45 1012.24 530.3 1009.98 530.3C1007.08 530.3 1004.91 530.683 1003.48 531.45C1002.08 532.183 1001.38 533.617 1001.38 535.75C1001.38 536.817 1001.53 537.7 1001.83 538.4C1002.16 539.1 1002.66 539.65 1003.33 540.05C1003.99 540.45 1004.83 540.733 1005.83 540.9C1006.83 541.067 1008.01 541.15 1009.38 541.15C1010.31 541.15 1011.41 541.067 1012.68 540.9C1013.98 540.7 1015.26 540.383 1016.53 539.95C1017.29 539.683 1017.78 539.967 1017.98 540.8L1018.68 543.55C1018.88 544.35 1018.58 544.867 1017.78 545.1ZM351.83 626.4C351.497 627.567 350.98 628.667 350.28 629.7C349.614 630.733 348.814 631.65 347.88 632.45C346.947 633.25 345.914 633.917 344.78 634.45C343.68 634.983 342.53 635.317 341.33 635.45C340.497 635.55 340.08 635.167 340.08 634.3V631.3C340.08 630.5 340.464 630.05 341.23 629.95C342.297 629.817 343.297 629.417 344.23 628.75C345.164 628.083 345.98 627.233 346.68 626.2C347.38 625.167 347.93 623.983 348.33 622.65C348.73 621.317 348.93 619.933 348.93 618.5V602.45C348.93 601.55 349.364 601.1 350.23 601.1H353.38C354.247 601.1 354.68 601.55 354.68 602.45V618.5C354.68 619.933 354.88 621.317 355.28 622.65C355.714 623.983 356.28 625.167 356.98 626.2C357.68 627.233 358.497 628.083 359.43 628.75C360.364 629.417 361.347 629.817 362.38 629.95C363.147 630.05 363.53 630.5 363.53 631.3V634.3C363.53 635.167 363.114 635.55 362.28 635.45C361.08 635.317 359.914 634.983 358.78 634.45C357.68 633.917 356.664 633.25 355.73 632.45C354.797 631.65 353.98 630.733 353.28 629.7C352.614 628.667 352.13 627.567 351.83 626.4ZM374.23 640.9C374.23 641.8 373.797 642.25 372.93 642.25H369.78C368.914 642.25 368.48 641.8 368.48 640.9V599.3C368.48 598.4 368.914 597.95 369.78 597.95H372.93C373.797 597.95 374.23 598.4 374.23 599.3V616.45C374.597 615.783 375.28 615.45 376.28 615.45H379.23C380.064 615.45 380.48 615.867 380.48 616.7V619.7C380.48 620.533 380.064 620.95 379.23 620.95H375.98C374.814 620.95 374.23 621.483 374.23 622.55V640.9ZM407.836 637.25C409.103 637.25 410.169 636.867 411.036 636.1C411.903 635.333 412.336 634.35 412.336 633.15C412.336 632.117 412.069 631.433 411.536 631.1C411.003 630.733 410.153 630.55 408.986 630.55H394.586C393.786 630.55 393.386 630.95 393.386 631.75V635.65C393.386 636.15 393.553 636.533 393.886 636.8C394.253 637.1 394.736 637.25 395.336 637.25H407.836ZM406.886 620.15C406.286 620.383 405.553 620.617 404.686 620.85C403.819 621.083 402.886 621.283 401.886 621.45C400.919 621.583 399.903 621.7 398.836 621.8C397.803 621.9 396.803 621.95 395.836 621.95C393.736 621.95 391.953 621.817 390.486 621.55C389.019 621.283 387.819 620.867 386.886 620.3C385.953 619.733 385.269 619 384.836 618.1C384.436 617.167 384.236 616.033 384.236 614.7C384.236 613.367 384.453 612.25 384.886 611.35C385.353 610.417 386.086 609.667 387.086 609.1C388.086 608.533 389.386 608.133 390.986 607.9C392.586 607.633 394.553 607.5 396.886 607.5C399.353 607.5 400.586 606.917 400.586 605.75C400.586 605.15 400.286 604.75 399.686 604.55C399.119 604.317 398.086 604.2 396.586 604.2C395.619 604.2 394.269 604.25 392.536 604.35C390.836 604.45 389.003 604.633 387.036 604.9C386.169 605 385.736 604.633 385.736 603.8V601.05C385.736 600.65 385.819 600.35 385.986 600.15C386.153 599.95 386.469 599.817 386.936 599.75C388.603 599.483 390.253 599.3 391.886 599.2C393.553 599.1 395.469 599.067 397.636 599.1C400.803 599.133 403.036 599.5 404.336 600.2C405.669 600.867 406.336 602 406.336 603.6C406.336 605.6 405.453 607.083 403.686 608.05H404.836C405.569 608.05 405.936 608.417 405.936 609.15V611.55C405.936 612.283 405.569 612.65 404.836 612.65C403.636 612.617 402.503 612.6 401.436 612.6C400.369 612.6 399.369 612.6 398.436 612.6C396.803 612.6 395.436 612.633 394.336 612.7C393.269 612.767 392.403 612.883 391.736 613.05C391.103 613.217 390.653 613.45 390.386 613.75C390.119 614.017 389.986 614.367 389.986 614.8C389.986 615.2 390.086 615.533 390.286 615.8C390.519 616.033 390.903 616.233 391.436 616.4C391.969 616.533 392.686 616.633 393.586 616.7C394.486 616.767 395.619 616.8 396.986 616.8C398.219 616.8 399.636 616.65 401.236 616.35C402.836 616.05 404.269 615.667 405.536 615.2C405.803 615.1 406.003 615.05 406.136 615.05C406.569 615.05 406.869 615.333 407.036 615.9L407.736 618.55C407.869 618.983 407.869 619.317 407.736 619.55C407.603 619.783 407.319 619.983 406.886 620.15ZM417.536 637.25C418.369 637.25 418.786 637.667 418.786 638.5V641.25C418.786 642.083 418.369 642.5 417.536 642.5H392.786C391.186 642.5 389.919 642.117 388.986 641.35C388.086 640.583 387.636 639.5 387.636 638.1V627.65C387.636 626.083 388.403 625.3 389.936 625.3H411.986C413.953 625.3 415.453 625.733 416.486 626.6C417.553 627.433 418.086 628.75 418.086 630.55C418.086 631.983 417.703 633.283 416.936 634.45C416.169 635.65 415.186 636.583 413.986 637.25H417.536ZM417.736 620.4C417.736 621.3 417.303 621.75 416.436 621.75H413.286C412.419 621.75 411.986 621.3 411.986 620.4V599.3C411.986 598.4 412.419 597.95 413.286 597.95H416.436C417.303 597.95 417.736 598.4 417.736 599.3V607.45C418.103 606.783 418.786 606.45 419.786 606.45H422.736C423.569 606.45 423.986 606.867 423.986 607.7V610.45C423.986 611.283 423.569 611.7 422.736 611.7H419.486C418.319 611.7 417.736 612.233 417.736 613.3V620.4ZM462.792 642.15C461.892 642.283 460.859 642.4 459.692 642.5C458.525 642.6 457.325 642.683 456.092 642.75C454.859 642.85 453.659 642.917 452.492 642.95C451.325 642.983 450.259 643 449.292 643C445.659 643 442.675 642.9 440.342 642.7C438.009 642.533 436.175 642.217 434.842 641.75C433.509 641.283 432.592 640.633 432.092 639.8C431.592 639 431.342 637.95 431.342 636.65C431.342 635.45 431.559 634.467 431.992 633.7C432.459 632.9 433.259 632.267 434.392 631.8C435.559 631.3 437.109 630.967 439.042 630.8C440.975 630.6 443.425 630.5 446.392 630.5C447.759 630.5 449.142 630.517 450.542 630.55C451.942 630.583 453.292 630.567 454.592 630.5C455.525 630.467 456.175 630.35 456.542 630.15C456.909 629.95 457.092 629.583 457.092 629.05C457.092 628.483 456.909 628.083 456.542 627.85C456.209 627.617 455.609 627.5 454.742 627.5C453.475 627.5 451.909 627.517 450.042 627.55C448.209 627.583 446.292 627.633 444.292 627.7C442.292 627.767 440.325 627.85 438.392 627.95C436.492 628.017 434.842 628.1 433.442 628.2C432.709 628.233 432.342 627.85 432.342 627.05V624.8C432.342 624.067 432.709 623.683 433.442 623.65C435.342 623.517 437.392 623.417 439.592 623.35C441.792 623.25 443.992 623.183 446.192 623.15C448.425 623.083 450.575 623.05 452.642 623.05C454.742 623.017 456.592 623.017 458.192 623.05C459.892 623.117 461.075 623.433 461.742 624C462.442 624.567 462.792 625.467 462.792 626.7C462.792 627.7 462.492 628.583 461.892 629.35C461.325 630.083 460.542 630.617 459.542 630.95H461.342C462.042 630.95 462.392 631.317 462.392 632.05V634.1C462.392 634.9 462.042 635.267 461.342 635.2C459.775 635.133 457.759 635.083 455.292 635.05C452.859 635.017 449.925 635 446.492 635C444.392 635 442.725 635.017 441.492 635.05C440.259 635.117 439.309 635.2 438.642 635.3C438.009 635.433 437.592 635.617 437.392 635.85C437.192 636.083 437.092 636.383 437.092 636.75C437.092 637.183 437.242 637.517 437.542 637.75C437.875 637.983 438.475 638.15 439.342 638.25C440.242 638.383 441.475 638.45 443.042 638.45C444.642 638.483 446.709 638.5 449.242 638.5C450.175 638.5 451.209 638.483 452.342 638.45C453.475 638.417 454.625 638.35 455.792 638.25C456.992 638.183 458.159 638.1 459.292 638C460.459 637.9 461.509 637.783 462.442 637.65C463.175 637.55 463.575 637.883 463.642 638.65L463.792 640.9C463.825 641.633 463.492 642.05 462.792 642.15ZM464.442 615.65C465.275 615.55 465.692 615.917 465.692 616.75V619.15C465.692 619.883 465.309 620.3 464.542 620.4C463.642 620.5 462.525 620.583 461.192 620.65C459.892 620.717 458.459 620.767 456.892 620.8C455.359 620.833 453.725 620.85 451.992 620.85C450.259 620.85 448.509 620.85 446.742 620.85C442.142 620.817 438.425 620.767 435.592 620.7C432.759 620.633 430.592 620.517 429.092 620.35C428.325 620.25 427.942 619.85 427.942 619.15V616.7C427.942 615.9 428.359 615.533 429.192 615.6C430.359 615.667 431.659 615.733 433.092 615.8C434.525 615.833 436.009 615.883 437.542 615.95C439.075 615.983 440.625 616.017 442.192 616.05C443.759 616.083 445.275 616.1 446.742 616.1C450.842 616.1 454.342 616.083 457.242 616.05C460.142 615.983 462.542 615.85 464.442 615.65ZM459.942 604.25C458.342 604.15 456.959 604.083 455.792 604.05C454.625 603.983 453.592 603.933 452.692 603.9C451.792 603.867 450.992 603.85 450.292 603.85C449.625 603.817 448.975 603.8 448.342 603.8C446.109 603.8 444.242 603.85 442.742 603.95C441.275 604.017 440.092 604.15 439.192 604.35C438.325 604.55 437.709 604.833 437.342 605.2C437.009 605.533 436.842 605.95 436.842 606.45C436.842 606.983 436.992 607.433 437.292 607.8C437.592 608.167 438.125 608.467 438.892 608.7C439.659 608.9 440.692 609.05 441.992 609.15C443.325 609.217 445.009 609.25 447.042 609.25C449.042 609.25 451.192 609.167 453.492 609C455.825 608.833 458.109 608.617 460.342 608.35C461.142 608.25 461.559 608.6 461.592 609.4L461.792 611.9C461.825 612.567 461.459 612.95 460.692 613.05C457.892 613.383 455.442 613.633 453.342 613.8C451.242 613.933 449.392 614 447.792 614C444.659 614 442.025 613.883 439.892 613.65C437.759 613.383 436.042 612.95 434.742 612.35C433.442 611.75 432.509 610.967 431.942 610C431.375 609.033 431.092 607.85 431.092 606.45C431.092 605.05 431.375 603.883 431.942 602.95C432.542 601.983 433.509 601.217 434.842 600.65C436.209 600.083 437.992 599.683 440.192 599.45C442.425 599.183 445.192 599.05 448.492 599.05C449.192 599.05 449.875 599.067 450.542 599.1C451.242 599.1 452.025 599.133 452.892 599.2C453.792 599.233 454.809 599.283 455.942 599.35C457.075 599.383 458.425 599.45 459.992 599.55C460.759 599.583 461.142 599.983 461.142 600.75V603.15C461.142 603.917 460.742 604.283 459.942 604.25ZM493.298 618.5C493.298 624.7 492.398 629.25 490.598 632.15C488.798 635.017 485.948 636.45 482.048 636.45C478.181 636.45 475.348 635.017 473.548 632.15C471.748 629.25 470.848 624.7 470.848 618.5C470.848 612.3 471.748 607.767 473.548 604.9C475.348 602.033 478.181 600.6 482.048 600.6C485.948 600.6 488.798 602.033 490.598 604.9C492.398 607.767 493.298 612.3 493.298 618.5ZM482.048 606.1C480.148 606.1 478.765 607.067 477.898 609C477.031 610.933 476.598 614.1 476.598 618.5C476.598 622.9 477.031 626.083 477.898 628.05C478.765 629.983 480.148 630.95 482.048 630.95C483.981 630.95 485.381 629.983 486.248 628.05C487.115 626.117 487.548 622.933 487.548 618.5C487.548 614.1 487.115 610.933 486.248 609C485.381 607.067 483.981 606.1 482.048 606.1ZM499.998 599.3C499.998 598.4 500.431 597.95 501.298 597.95H504.448C505.315 597.95 505.748 598.4 505.748 599.3V640.9C505.748 641.8 505.315 642.25 504.448 642.25H501.298C500.431 642.25 499.998 641.8 499.998 640.9V599.3ZM531.665 629.55C530.832 629.55 530.415 629.133 530.415 628.3V625.55C530.415 624.717 530.832 624.3 531.665 624.3H559.015C559.849 624.3 560.265 624.717 560.265 625.55V628.3C560.265 629.133 559.849 629.55 559.015 629.55H548.265V630.05C548.265 631.083 548.549 632.05 549.115 632.95C549.682 633.85 550.465 634.617 551.465 635.25C552.499 635.883 553.715 636.383 555.115 636.75C556.549 637.117 558.099 637.3 559.765 637.3C560.599 637.3 561.015 637.683 561.015 638.45V641.3C561.015 642.1 560.599 642.517 559.765 642.55C558.365 642.617 556.932 642.5 555.465 642.2C554.032 641.933 552.649 641.517 551.315 640.95C550.015 640.383 548.832 639.683 547.765 638.85C546.732 638.017 545.915 637.1 545.315 636.1C544.715 637.1 543.882 638.017 542.815 638.85C541.782 639.683 540.615 640.383 539.315 640.95C538.015 641.517 536.632 641.933 535.165 642.2C533.732 642.5 532.315 642.617 530.915 642.55C530.082 642.517 529.665 642.1 529.665 641.3V638.45C529.665 637.683 530.082 637.3 530.915 637.3C532.582 637.3 534.115 637.117 535.515 636.75C536.949 636.383 538.182 635.883 539.215 635.25C540.249 634.617 541.049 633.85 541.615 632.95C542.215 632.05 542.515 631.083 542.515 630.05V629.55H531.665ZM548.115 600.35C548.949 600.35 549.365 600.767 549.365 601.6V604.35C549.365 605.183 548.949 605.6 548.115 605.6H540.715V606.15C540.715 607.483 540.899 608.733 541.265 609.9C541.665 611.033 542.199 612.017 542.865 612.85C543.532 613.65 544.332 614.283 545.265 614.75C546.199 615.217 547.215 615.45 548.315 615.45C549.149 615.45 549.565 615.867 549.565 616.7V619.45C549.565 620.283 549.149 620.7 548.315 620.7C547.015 620.7 545.799 620.517 544.665 620.15C543.532 619.75 542.515 619.217 541.615 618.55C540.715 617.883 539.949 617.117 539.315 616.25C538.682 615.383 538.199 614.467 537.865 613.5C537.532 614.467 537.032 615.383 536.365 616.25C535.732 617.117 534.965 617.883 534.065 618.55C533.165 619.217 532.149 619.75 531.015 620.15C529.882 620.517 528.665 620.7 527.365 620.7C526.532 620.7 526.115 620.283 526.115 619.45V616.7C526.115 615.867 526.532 615.45 527.365 615.45C528.465 615.45 529.482 615.217 530.415 614.75C531.349 614.283 532.149 613.65 532.815 612.85C533.482 612.017 533.999 611.033 534.365 609.9C534.765 608.733 534.965 607.483 534.965 606.15V605.6H527.615C526.782 605.6 526.365 605.183 526.365 604.35V601.6C526.365 600.767 526.782 600.35 527.615 600.35H535.865C535.365 600.083 535.115 599.633 535.115 599V597C535.115 596.167 535.532 595.75 536.365 595.75H539.615C540.449 595.75 540.865 596.167 540.865 597V599.45C540.865 600.05 541.215 600.35 541.915 600.35H548.115ZM560.265 619.4C560.265 620.3 559.832 620.75 558.965 620.75H555.815C554.949 620.75 554.515 620.3 554.515 619.4V599.3C554.515 598.4 554.949 597.95 555.815 597.95H558.965C559.832 597.95 560.265 598.4 560.265 599.3V606.95C560.632 606.283 561.315 605.95 562.315 605.95H565.265C566.099 605.95 566.515 606.367 566.515 607.2V609.95C566.515 610.783 566.099 611.2 565.265 611.2H562.015C560.849 611.2 560.265 611.733 560.265 612.8V619.4ZM581.071 606.1C579.171 606.1 577.788 607.067 576.921 609C576.055 610.933 575.621 614.1 575.621 618.5C575.621 622.9 576.055 626.083 576.921 628.05C577.788 629.983 579.171 630.95 581.071 630.95C583.005 630.95 584.405 629.983 585.271 628.05C586.138 626.117 586.571 622.933 586.571 618.5C586.571 614.1 586.138 610.933 585.271 609C584.405 607.067 583.005 606.1 581.071 606.1ZM592.321 618.5C592.321 624.7 591.421 629.25 589.621 632.15C587.821 635.017 584.971 636.45 581.071 636.45C577.205 636.45 574.371 635.017 572.571 632.15C570.771 629.25 569.871 624.7 569.871 618.5C569.871 612.3 570.771 607.767 572.571 604.9C574.371 602.033 577.205 600.6 581.071 600.6C584.971 600.6 587.821 602.033 589.621 604.9C591.421 607.767 592.321 612.3 592.321 618.5ZM603.771 640.9C603.771 641.8 603.338 642.25 602.471 642.25H599.321C598.455 642.25 598.021 641.8 598.021 640.9V599.3C598.021 598.4 598.455 597.95 599.321 597.95H602.471C603.338 597.95 603.771 598.4 603.771 599.3V616.45C604.138 615.783 604.821 615.45 605.821 615.45H608.771C609.605 615.45 610.021 615.867 610.021 616.7V619.7C610.021 620.533 609.605 620.95 608.771 620.95H605.521C604.355 620.95 603.771 621.483 603.771 622.55V640.9ZM617.627 606.3C617.627 604.9 617.91 603.717 618.477 602.75C619.077 601.75 619.994 600.95 621.227 600.35C622.494 599.717 624.11 599.267 626.077 599C628.077 598.7 630.46 598.55 633.227 598.55C635.994 598.55 638.36 598.7 640.327 599C642.327 599.267 643.944 599.717 645.177 600.35C646.444 600.95 647.36 601.75 647.927 602.75C648.527 603.717 648.827 604.9 648.827 606.3C648.827 607.6 648.577 608.717 648.077 609.65C647.577 610.583 646.794 611.367 645.727 612C644.694 612.6 643.344 613.067 641.677 613.4C640.044 613.733 638.06 613.933 635.727 614V615.2C635.727 616 636.144 616.417 636.977 616.45C637.944 616.483 639.01 616.5 640.177 616.5C641.377 616.5 642.577 616.483 643.777 616.45C645.01 616.417 646.21 616.367 647.377 616.3C648.544 616.233 649.577 616.15 650.477 616.05C651.31 615.95 651.727 616.317 651.727 617.15V619.55C651.727 620.283 651.344 620.7 650.577 620.8C649.677 620.9 648.56 620.983 647.227 621.05C645.927 621.117 644.494 621.167 642.927 621.2C641.394 621.233 639.76 621.25 638.027 621.25C636.294 621.25 634.544 621.25 632.777 621.25C628.177 621.217 624.46 621.167 621.627 621.1C618.794 621.033 616.627 620.917 615.127 620.75C614.36 620.65 613.977 620.25 613.977 619.55V617.1C613.977 616.3 614.394 615.933 615.227 616C616.194 616.067 617.294 616.133 618.527 616.2C619.794 616.233 621.127 616.283 622.527 616.35C623.927 616.383 625.327 616.417 626.727 616.45C628.16 616.483 629.494 616.5 630.727 616.5C630.227 616.233 629.977 615.783 629.977 615.15V614C625.61 613.767 622.46 613.05 620.527 611.85C618.594 610.65 617.627 608.8 617.627 606.3ZM648.827 642.15C647.927 642.283 646.894 642.4 645.727 642.5C644.56 642.6 643.36 642.683 642.127 642.75C640.894 642.85 639.694 642.917 638.527 642.95C637.36 642.983 636.294 643 635.327 643C631.694 643 628.71 642.9 626.377 642.7C624.044 642.533 622.21 642.217 620.877 641.75C619.544 641.283 618.627 640.633 618.127 639.8C617.627 639 617.377 637.95 617.377 636.65C617.377 635.45 617.594 634.467 618.027 633.7C618.494 632.9 619.294 632.267 620.427 631.8C621.594 631.3 623.144 630.967 625.077 630.8C627.01 630.6 629.46 630.5 632.427 630.5C633.794 630.5 635.177 630.517 636.577 630.55C637.977 630.583 639.327 630.567 640.627 630.5C641.56 630.467 642.21 630.35 642.577 630.15C642.944 629.95 643.127 629.583 643.127 629.05C643.127 628.483 642.944 628.083 642.577 627.85C642.244 627.617 641.644 627.5 640.777 627.5C639.51 627.5 637.944 627.517 636.077 627.55C634.244 627.583 632.327 627.633 630.327 627.7C628.327 627.767 626.36 627.85 624.427 627.95C622.527 628.017 620.877 628.1 619.477 628.2C618.744 628.233 618.377 627.85 618.377 627.05V624.8C618.377 624.067 618.744 623.683 619.477 623.65C621.377 623.517 623.427 623.417 625.627 623.35C627.827 623.25 630.027 623.183 632.227 623.15C634.46 623.083 636.61 623.05 638.677 623.05C640.777 623.017 642.627 623.017 644.227 623.05C645.927 623.117 647.11 623.433 647.777 624C648.477 624.567 648.827 625.467 648.827 626.7C648.827 627.7 648.527 628.583 647.927 629.35C647.36 630.083 646.577 630.617 645.577 630.95H647.377C648.077 630.95 648.427 631.317 648.427 632.05V634.1C648.427 634.9 648.077 635.267 647.377 635.2C645.81 635.133 643.794 635.083 641.327 635.05C638.894 635.017 635.96 635 632.527 635C630.427 635 628.76 635.017 627.527 635.05C626.294 635.117 625.344 635.2 624.677 635.3C624.044 635.433 623.627 635.617 623.427 635.85C623.227 636.083 623.127 636.383 623.127 636.75C623.127 637.183 623.277 637.517 623.577 637.75C623.91 637.983 624.51 638.15 625.377 638.25C626.277 638.383 627.51 638.45 629.077 638.45C630.677 638.483 632.744 638.5 635.277 638.5C636.21 638.5 637.244 638.483 638.377 638.45C639.51 638.417 640.66 638.35 641.827 638.25C643.027 638.183 644.194 638.1 645.327 638C646.494 637.9 647.544 637.783 648.477 637.65C649.21 637.55 649.61 637.883 649.677 638.65L649.827 640.9C649.86 641.633 649.527 642.05 648.827 642.15ZM623.377 606.3C623.377 606.9 623.527 607.4 623.827 607.8C624.16 608.167 624.71 608.483 625.477 608.75C626.244 608.983 627.26 609.15 628.527 609.25C629.794 609.35 631.36 609.4 633.227 609.4C635.094 609.4 636.66 609.35 637.927 609.25C639.194 609.15 640.21 608.983 640.977 608.75C641.744 608.483 642.277 608.167 642.577 607.8C642.91 607.4 643.077 606.9 643.077 606.3C643.077 605.7 642.91 605.217 642.577 604.85C642.277 604.45 641.744 604.133 640.977 603.9C640.21 603.633 639.194 603.45 637.927 603.35C636.66 603.25 635.094 603.2 633.227 603.2C631.36 603.2 629.794 603.25 628.527 603.35C627.26 603.45 626.244 603.633 625.477 603.9C624.71 604.133 624.16 604.45 623.827 604.85C623.527 605.217 623.377 605.7 623.377 606.3ZM703.997 600.05C704.83 600.05 705.247 600.467 705.247 601.3V604.3C705.247 605.133 704.83 605.55 703.997 605.55H693.497C693.63 606.85 693.997 608.05 694.597 609.15C695.197 610.217 695.98 611.15 696.947 611.95C697.947 612.75 699.097 613.367 700.397 613.8C701.73 614.233 703.18 614.45 704.747 614.45C705.58 614.45 705.997 614.833 705.997 615.6V618.7C705.997 619.333 705.813 619.7 705.447 619.8C705.113 619.9 704.697 619.95 704.197 619.95C702.73 619.95 701.297 619.767 699.897 619.4C698.497 619 697.197 618.45 695.997 617.75C694.797 617.017 693.73 616.167 692.797 615.2C691.863 614.2 691.13 613.1 690.597 611.9C690.063 613.1 689.33 614.2 688.397 615.2C687.463 616.167 686.397 617.017 685.197 617.75C683.997 618.45 682.68 619 681.247 619.4C679.847 619.767 678.413 619.95 676.947 619.95C676.447 619.95 676.013 619.9 675.647 619.8C675.313 619.7 675.147 619.333 675.147 618.7V615.6C675.147 614.833 675.563 614.45 676.397 614.45C677.963 614.45 679.397 614.233 680.697 613.8C682.03 613.367 683.18 612.75 684.147 611.95C685.147 611.15 685.947 610.217 686.547 609.15C687.147 608.05 687.513 606.85 687.647 605.55H677.147C676.313 605.55 675.897 605.133 675.897 604.3V601.3C675.897 600.467 676.313 600.05 677.147 600.05H688.597C688.03 599.75 687.747 599.167 687.747 598.3V596.7C687.747 595.867 688.163 595.45 688.997 595.45H692.247C693.08 595.45 693.497 595.867 693.497 596.7V599.1C693.497 599.733 693.863 600.05 694.597 600.05H703.997ZM694.997 630.05C693.83 630.05 693.247 630.567 693.247 631.6V639.15C693.247 640.05 692.813 640.5 691.947 640.5H688.797C687.93 640.5 687.497 640.05 687.497 639.15V632.25C687.497 631.75 687.613 631.317 687.847 630.95C688.08 630.55 688.397 630.267 688.797 630.1C687.397 630.1 685.947 630.083 684.447 630.05C682.947 629.983 681.48 629.917 680.047 629.85C678.613 629.75 677.263 629.65 675.997 629.55C674.73 629.45 673.647 629.35 672.747 629.25C671.913 629.15 671.497 628.683 671.497 627.85V625.1C671.497 624.233 671.947 623.85 672.847 623.95C675.247 624.217 677.88 624.433 680.747 624.6C683.613 624.733 686.797 624.8 690.297 624.8C693.897 624.8 697.23 624.733 700.297 624.6C703.397 624.467 705.93 624.267 707.897 624C708.797 623.9 709.247 624.283 709.247 625.15V627.9C709.247 628.7 708.83 629.167 707.997 629.3C707.163 629.4 706.213 629.5 705.147 629.6C704.08 629.7 702.963 629.783 701.797 629.85C700.663 629.917 699.513 629.967 698.347 630C697.18 630.033 696.063 630.05 694.997 630.05ZM716.253 637.45C715.419 637.317 715.003 636.867 715.003 636.1V633.35C715.003 632.45 715.453 632.05 716.353 632.15C717.253 632.25 718.319 632.35 719.553 632.45C720.819 632.55 722.153 632.65 723.553 632.75C724.986 632.817 726.436 632.883 727.903 632.95C729.403 633.017 730.853 633.067 732.253 633.1C731.886 632.933 731.586 632.667 731.353 632.3C731.119 631.9 731.003 631.45 731.003 630.95V625.05H724.303C722.703 625.05 721.436 624.667 720.503 623.9C719.603 623.133 719.153 622.05 719.153 620.65V602.95C719.153 601.383 719.919 600.6 721.453 600.6H741.303C746.503 600.6 749.103 603.367 749.103 608.9C749.103 611.3 748.636 613.483 747.703 615.45C746.769 617.417 745.553 618.833 744.053 619.7H748.553C749.386 619.7 749.803 620.15 749.803 621.05V623.8C749.803 624.633 749.386 625.05 748.553 625.05H736.753V631.4C736.753 632.433 737.336 632.95 738.503 632.95C739.569 632.95 740.686 632.933 741.853 632.9C743.019 632.867 744.169 632.817 745.303 632.75C746.436 632.683 747.519 632.6 748.553 632.5C749.619 632.4 750.569 632.3 751.403 632.2C752.303 632.1 752.753 632.5 752.753 633.4V636.15C752.753 636.917 752.336 637.367 751.503 637.5C750.669 637.633 749.636 637.75 748.403 637.85C747.169 637.95 745.786 638.033 744.253 638.1C742.719 638.2 741.069 638.267 739.303 638.3C737.536 638.333 735.703 638.35 733.803 638.35C725.869 638.35 720.019 638.05 716.253 637.45ZM737.753 619.7C738.519 619.7 739.236 619.483 739.903 619.05C740.603 618.617 741.203 618.033 741.703 617.3C742.203 616.533 742.603 615.65 742.903 614.65C743.203 613.65 743.353 612.583 743.353 611.45C743.353 609.517 742.986 608.117 742.253 607.25C741.519 606.383 740.353 605.95 738.753 605.95H726.103C725.303 605.95 724.903 606.35 724.903 607.15V618.1C724.903 618.6 725.069 619 725.403 619.3C725.769 619.567 726.253 619.7 726.853 619.7H737.753ZM765.558 620.7C765.025 620.367 764.758 619.867 764.758 619.2V612.55C764.758 611.65 765.192 611.2 766.058 611.2H769.208C770.075 611.2 770.508 611.65 770.508 612.55V619.35C770.508 620.15 770.975 620.55 771.908 620.55C772.775 620.55 773.708 620.55 774.708 620.55C775.708 620.517 776.692 620.5 777.658 620.5C778.625 620.467 779.508 620.433 780.308 620.4C781.108 620.367 781.742 620.333 782.208 620.3C783.075 620.233 783.508 620.6 783.508 621.4V624.25C783.508 625.117 783.092 625.567 782.258 625.6C780.625 625.7 778.675 625.783 776.408 625.85C774.142 625.917 771.825 625.95 769.458 625.95C767.025 625.95 764.842 625.917 762.908 625.85C761.008 625.783 759.208 625.683 757.508 625.55C756.675 625.517 756.258 625.083 756.258 624.25V621.3C756.258 620.533 756.708 620.183 757.608 620.25C758.675 620.35 759.842 620.433 761.108 620.5C762.408 620.567 763.892 620.633 765.558 620.7ZM771.508 604.55C767.475 604.55 763.858 604.85 760.658 605.45C759.825 605.617 759.408 605.217 759.408 604.25V601.2C759.408 600.833 759.492 600.55 759.658 600.35C759.858 600.15 760.192 600 760.658 599.9C761.925 599.633 763.558 599.433 765.558 599.3C767.592 599.133 769.775 599.05 772.108 599.05C778.275 599.05 781.358 601.883 781.358 607.55C781.358 608.15 781.325 608.833 781.258 609.6C781.225 610.333 781.158 611.1 781.058 611.9C780.958 612.7 780.842 613.5 780.708 614.3C780.575 615.067 780.408 615.8 780.208 616.5C780.108 616.9 779.958 617.167 779.758 617.3C779.592 617.433 779.292 617.467 778.858 617.4L775.458 616.9C774.625 616.767 774.308 616.35 774.508 615.65C774.875 614.45 775.142 613.183 775.308 611.85C775.508 610.483 775.608 609.367 775.608 608.5C775.608 607.233 775.242 606.267 774.508 605.6C773.808 604.9 772.808 604.55 771.508 604.55ZM791.808 628.4C791.808 629.3 791.375 629.75 790.508 629.75H787.358C786.492 629.75 786.058 629.3 786.058 628.4V599.3C786.058 598.4 786.492 597.95 787.358 597.95H790.508C791.375 597.95 791.808 598.4 791.808 599.3V610.95C792.175 610.283 792.858 609.95 793.858 609.95H796.808C797.642 609.95 798.058 610.367 798.058 611.2V613.95C798.058 614.783 797.642 615.2 796.808 615.2H793.558C792.392 615.2 791.808 615.733 791.808 616.8V628.4ZM761.558 629.65C761.725 628.783 762.225 628.35 763.058 628.35H766.108C766.542 628.35 766.858 628.483 767.058 628.75C767.292 628.983 767.375 629.3 767.308 629.7C767.208 630.233 767.125 630.883 767.058 631.65C766.992 632.383 766.958 633.067 766.958 633.7C766.958 636.4 768.542 637.75 771.708 637.75C773.908 637.75 775.908 637.733 777.708 637.7C779.508 637.667 781.192 637.6 782.758 637.5C784.358 637.433 785.875 637.35 787.308 637.25C788.742 637.15 790.192 637.033 791.658 636.9C792.458 636.8 792.892 637.2 792.958 638.1L793.158 640.85C793.192 641.583 792.792 642 791.958 642.1C789.458 642.367 786.525 642.583 783.158 642.75C779.792 642.917 776.025 643 771.858 643C768.425 643 765.792 642.217 763.958 640.65C762.125 639.083 761.208 636.85 761.208 633.95C761.208 633.183 761.242 632.4 761.308 631.6C761.375 630.8 761.458 630.15 761.558 629.65ZM811.414 606.3C811.414 606.9 811.564 607.4 811.864 607.8C812.198 608.167 812.748 608.483 813.514 608.75C814.281 608.983 815.298 609.15 816.564 609.25C817.831 609.35 819.398 609.4 821.264 609.4C823.131 609.4 824.698 609.35 825.964 609.25C827.231 609.15 828.248 608.983 829.014 608.75C829.781 608.483 830.314 608.167 830.614 607.8C830.948 607.4 831.114 606.9 831.114 606.3C831.114 605.7 830.948 605.217 830.614 604.85C830.314 604.45 829.781 604.133 829.014 603.9C828.248 603.633 827.231 603.45 825.964 603.35C824.698 603.25 823.131 603.2 821.264 603.2C819.398 603.2 817.831 603.25 816.564 603.35C815.298 603.45 814.281 603.633 813.514 603.9C812.748 604.133 812.198 604.45 811.864 604.85C811.564 605.217 811.414 605.7 811.414 606.3ZM836.864 642.15C835.964 642.283 834.931 642.4 833.764 642.5C832.598 642.6 831.398 642.683 830.164 642.75C828.931 642.85 827.731 642.917 826.564 642.95C825.398 642.983 824.331 643 823.364 643C819.731 643 816.748 642.9 814.414 642.7C812.081 642.533 810.248 642.217 808.914 641.75C807.581 641.283 806.664 640.633 806.164 639.8C805.664 639 805.414 637.95 805.414 636.65C805.414 635.45 805.631 634.467 806.064 633.7C806.531 632.9 807.331 632.267 808.464 631.8C809.631 631.3 811.181 630.967 813.114 630.8C815.048 630.6 817.498 630.5 820.464 630.5C821.831 630.5 823.214 630.517 824.614 630.55C826.014 630.583 827.364 630.567 828.664 630.5C829.598 630.467 830.248 630.35 830.614 630.15C830.981 629.95 831.164 629.583 831.164 629.05C831.164 628.483 830.981 628.083 830.614 627.85C830.281 627.617 829.681 627.5 828.814 627.5C827.548 627.5 825.981 627.517 824.114 627.55C822.281 627.583 820.364 627.633 818.364 627.7C816.364 627.767 814.398 627.85 812.464 627.95C810.564 628.017 808.914 628.1 807.514 628.2C806.781 628.233 806.414 627.85 806.414 627.05V624.8C806.414 624.067 806.781 623.683 807.514 623.65C809.414 623.517 811.464 623.417 813.664 623.35C815.864 623.25 818.064 623.183 820.264 623.15C822.498 623.083 824.648 623.05 826.714 623.05C828.814 623.017 830.664 623.017 832.264 623.05C833.964 623.117 835.148 623.433 835.814 624C836.514 624.567 836.864 625.467 836.864 626.7C836.864 627.7 836.564 628.583 835.964 629.35C835.398 630.083 834.614 630.617 833.614 630.95H835.414C836.114 630.95 836.464 631.317 836.464 632.05V634.1C836.464 634.9 836.114 635.267 835.414 635.2C833.848 635.133 831.831 635.083 829.364 635.05C826.931 635.017 823.998 635 820.564 635C818.464 635 816.798 635.017 815.564 635.05C814.331 635.117 813.381 635.2 812.714 635.3C812.081 635.433 811.664 635.617 811.464 635.85C811.264 636.083 811.164 636.383 811.164 636.75C811.164 637.183 811.314 637.517 811.614 637.75C811.948 637.983 812.548 638.15 813.414 638.25C814.314 638.383 815.548 638.45 817.114 638.45C818.714 638.483 820.781 638.5 823.314 638.5C824.248 638.5 825.281 638.483 826.414 638.45C827.548 638.417 828.698 638.35 829.864 638.25C831.064 638.183 832.231 638.1 833.364 638C834.531 637.9 835.581 637.783 836.514 637.65C837.248 637.55 837.648 637.883 837.714 638.65L837.864 640.9C837.898 641.633 837.564 642.05 836.864 642.15ZM838.514 615.65C839.348 615.55 839.764 615.917 839.764 616.75V619.15C839.764 619.883 839.381 620.3 838.614 620.4C837.714 620.5 836.598 620.583 835.264 620.65C833.964 620.717 832.531 620.767 830.964 620.8C829.431 620.833 827.798 620.85 826.064 620.85C824.331 620.85 822.581 620.85 820.814 620.85C816.214 620.817 812.498 620.767 809.664 620.7C806.831 620.633 804.664 620.517 803.164 620.35C802.398 620.25 802.014 619.85 802.014 619.15V616.7C802.014 615.9 802.431 615.533 803.264 615.6C804.431 615.667 805.731 615.733 807.164 615.8C808.598 615.833 810.081 615.883 811.614 615.95C813.148 615.983 814.698 616.017 816.264 616.05C817.831 616.083 819.348 616.1 820.814 616.1C824.914 616.1 828.414 616.083 831.314 616.05C834.214 615.983 836.614 615.85 838.514 615.65ZM805.664 606.3C805.664 604.9 805.948 603.717 806.514 602.75C807.114 601.75 808.031 600.95 809.264 600.35C810.531 599.717 812.148 599.267 814.114 599C816.114 598.7 818.498 598.55 821.264 598.55C824.031 598.55 826.398 598.7 828.364 599C830.364 599.267 831.981 599.717 833.214 600.35C834.481 600.95 835.398 601.75 835.964 602.75C836.564 603.717 836.864 604.9 836.864 606.3C836.864 607.7 836.564 608.9 835.964 609.9C835.398 610.867 834.481 611.667 833.214 612.3C831.981 612.9 830.364 613.35 828.364 613.65C826.398 613.917 824.031 614.05 821.264 614.05C818.498 614.05 816.114 613.917 814.114 613.65C812.148 613.35 810.531 612.9 809.264 612.3C808.031 611.667 807.114 610.867 806.514 609.9C805.948 608.9 805.664 607.7 805.664 606.3ZM870.234 617.2C871.834 617.2 873.134 616.533 874.134 615.2C875.134 613.833 875.634 612.067 875.634 609.9C875.634 608.1 875.284 606.733 874.584 605.8C873.884 604.833 872.817 604.35 871.384 604.35H866.384C865.584 604.35 865.184 604.75 865.184 605.55V615.6C865.184 616.1 865.35 616.5 865.684 616.8C866.05 617.067 866.534 617.2 867.134 617.2H870.234ZM864.584 622.45C862.984 622.45 861.717 622.067 860.784 621.3C859.884 620.533 859.434 619.45 859.434 618.05V601.45C859.434 599.883 860.2 599.1 861.734 599.1H874.334C876.634 599.1 878.384 599.817 879.584 601.25C880.784 602.683 881.384 604.7 881.384 607.3C881.384 609.5 880.934 611.5 880.034 613.3C879.134 615.067 877.95 616.367 876.484 617.2H879.834C880.667 617.2 881.084 617.617 881.084 618.45V621.2C881.084 622.033 880.667 622.45 879.834 622.45H864.584ZM892.834 627.4C892.834 628.3 892.4 628.75 891.534 628.75H888.384C887.517 628.75 887.084 628.3 887.084 627.4V599.3C887.084 598.4 887.517 597.95 888.384 597.95H891.534C892.4 597.95 892.834 598.4 892.834 599.3V610.95C893.2 610.283 893.884 609.95 894.884 609.95H897.834C898.667 609.95 899.084 610.367 899.084 611.2V613.95C899.084 614.783 898.667 615.2 897.834 615.2H894.584C893.417 615.2 892.834 615.733 892.834 616.8V627.4ZM863.534 628.15C863.7 627.283 864.184 626.85 864.984 626.85H867.984C868.417 626.85 868.75 626.983 868.984 627.25C869.25 627.483 869.35 627.8 869.284 628.2C869.217 628.8 869.15 629.533 869.084 630.4C869.017 631.267 868.984 632.183 868.984 633.15C868.984 634.65 869.434 635.783 870.334 636.55C871.234 637.35 872.45 637.75 873.984 637.75C876.084 637.75 877.95 637.733 879.584 637.7C881.25 637.667 882.8 637.6 884.234 637.5C885.7 637.433 887.1 637.35 888.434 637.25C889.8 637.15 891.217 637.033 892.684 636.9C893.484 636.8 893.917 637.2 893.984 638.1L894.184 640.85C894.217 641.583 893.817 642 892.984 642.1C890.484 642.367 887.7 642.583 884.634 642.75C881.6 642.917 878.134 643 874.234 643C870.734 643 868.017 642.183 866.084 640.55C864.184 638.917 863.234 636.633 863.234 633.7C863.234 632.633 863.25 631.6 863.284 630.6C863.35 629.6 863.434 628.783 863.534 628.15ZM937.89 642.15C936.99 642.283 935.956 642.4 934.79 642.5C933.623 642.6 932.423 642.683 931.19 642.75C929.956 642.85 928.756 642.917 927.59 642.95C926.423 642.983 925.356 643 924.39 643C920.756 643 917.773 642.9 915.44 642.7C913.106 642.533 911.273 642.217 909.94 641.75C908.606 641.283 907.69 640.633 907.19 639.8C906.69 639 906.44 637.95 906.44 636.65C906.44 635.45 906.656 634.467 907.09 633.7C907.556 632.9 908.356 632.267 909.49 631.8C910.656 631.3 912.206 630.967 914.14 630.8C916.073 630.6 918.523 630.5 921.49 630.5C922.856 630.5 924.24 630.517 925.64 630.55C927.04 630.583 928.39 630.567 929.69 630.5C930.623 630.467 931.273 630.35 931.64 630.15C932.006 629.95 932.19 629.583 932.19 629.05C932.19 628.483 932.006 628.083 931.64 627.85C931.306 627.617 930.706 627.5 929.84 627.5C928.573 627.5 927.006 627.517 925.14 627.55C923.306 627.583 921.39 627.633 919.39 627.7C917.39 627.767 915.423 627.85 913.49 627.95C911.59 628.017 909.94 628.1 908.54 628.2C907.806 628.233 907.44 627.85 907.44 627.05V624.8C907.44 624.067 907.806 623.683 908.54 623.65C910.44 623.517 912.49 623.417 914.69 623.35C916.89 623.25 919.09 623.183 921.29 623.15C923.523 623.083 925.673 623.05 927.74 623.05C929.84 623.017 931.69 623.017 933.29 623.05C934.99 623.117 936.173 623.433 936.84 624C937.54 624.567 937.89 625.467 937.89 626.7C937.89 627.7 937.59 628.583 936.99 629.35C936.423 630.083 935.64 630.617 934.64 630.95H936.44C937.14 630.95 937.49 631.317 937.49 632.05V634.1C937.49 634.9 937.14 635.267 936.44 635.2C934.873 635.133 932.856 635.083 930.39 635.05C927.956 635.017 925.023 635 921.59 635C919.49 635 917.823 635.017 916.59 635.05C915.356 635.117 914.406 635.2 913.74 635.3C913.106 635.433 912.69 635.617 912.49 635.85C912.29 636.083 912.19 636.383 912.19 636.75C912.19 637.183 912.34 637.517 912.64 637.75C912.973 637.983 913.573 638.15 914.44 638.25C915.34 638.383 916.573 638.45 918.14 638.45C919.74 638.483 921.806 638.5 924.34 638.5C925.273 638.5 926.306 638.483 927.44 638.45C928.573 638.417 929.723 638.35 930.89 638.25C932.09 638.183 933.256 638.1 934.39 638C935.556 637.9 936.606 637.783 937.54 637.65C938.273 637.55 938.673 637.883 938.74 638.65L938.89 640.9C938.923 641.633 938.59 642.05 937.89 642.15ZM939.54 615.65C940.373 615.55 940.79 615.917 940.79 616.75V619.15C940.79 619.883 940.406 620.3 939.64 620.4C938.74 620.5 937.623 620.583 936.29 620.65C934.99 620.717 933.556 620.767 931.99 620.8C930.456 620.833 928.823 620.85 927.09 620.85C925.356 620.85 923.606 620.85 921.84 620.85C917.24 620.817 913.523 620.767 910.69 620.7C907.856 620.633 905.69 620.517 904.19 620.35C903.423 620.25 903.04 619.85 903.04 619.15V616.7C903.04 615.9 903.456 615.533 904.29 615.6C905.456 615.667 906.756 615.733 908.19 615.8C909.623 615.833 911.106 615.883 912.64 615.95C914.173 615.983 915.723 616.017 917.29 616.05C918.856 616.083 920.373 616.1 921.84 616.1C925.94 616.1 929.44 616.083 932.34 616.05C935.24 615.983 937.64 615.85 939.54 615.65ZM935.04 604.25C933.44 604.15 932.056 604.083 930.89 604.05C929.723 603.983 928.69 603.933 927.79 603.9C926.89 603.867 926.09 603.85 925.39 603.85C924.723 603.817 924.073 603.8 923.44 603.8C921.206 603.8 919.34 603.85 917.84 603.95C916.373 604.017 915.19 604.15 914.29 604.35C913.423 604.55 912.806 604.833 912.44 605.2C912.106 605.533 911.94 605.95 911.94 606.45C911.94 606.983 912.09 607.433 912.39 607.8C912.69 608.167 913.223 608.467 913.99 608.7C914.756 608.9 915.79 609.05 917.09 609.15C918.423 609.217 920.106 609.25 922.14 609.25C924.14 609.25 926.29 609.167 928.59 609C930.923 608.833 933.206 608.617 935.44 608.35C936.24 608.25 936.656 608.6 936.69 609.4L936.89 611.9C936.923 612.567 936.556 612.95 935.79 613.05C932.99 613.383 930.54 613.633 928.44 613.8C926.34 613.933 924.49 614 922.89 614C919.756 614 917.123 613.883 914.99 613.65C912.856 613.383 911.14 612.95 909.84 612.35C908.54 611.75 907.606 610.967 907.04 610C906.473 609.033 906.19 607.85 906.19 606.45C906.19 605.05 906.473 603.883 907.04 602.95C907.64 601.983 908.606 601.217 909.94 600.65C911.306 600.083 913.09 599.683 915.29 599.45C917.523 599.183 920.29 599.05 923.59 599.05C924.29 599.05 924.973 599.067 925.64 599.1C926.34 599.1 927.123 599.133 927.99 599.2C928.89 599.233 929.906 599.283 931.04 599.35C932.173 599.383 933.523 599.45 935.09 599.55C935.856 599.583 936.24 599.983 936.24 600.75V603.15C936.24 603.917 935.84 604.283 935.04 604.25ZM979.609 634.25C979.476 635.05 979.009 635.45 978.209 635.45H975.009C974.543 635.45 974.193 635.317 973.959 635.05C973.759 634.817 973.693 634.5 973.759 634.1C974.426 630.467 974.909 626.867 975.209 623.3C975.509 619.7 975.659 616.067 975.659 612.4C975.659 610.267 975.276 608.783 974.509 607.95C973.743 607.083 972.426 606.65 970.559 606.65C969.659 606.65 968.809 606.683 968.009 606.75C967.243 606.783 966.493 606.85 965.759 606.95C965.059 607.017 964.343 607.117 963.609 607.25C962.876 607.35 962.093 607.45 961.259 607.55C960.859 607.617 960.543 607.533 960.309 607.3C960.076 607.033 959.959 606.683 959.959 606.25V603.35C959.959 602.55 960.376 602.1 961.209 602C963.143 601.733 964.909 601.517 966.509 601.35C968.143 601.183 969.859 601.1 971.659 601.1C973.426 601.1 974.926 601.3 976.159 601.7C977.393 602.1 978.393 602.733 979.159 603.6C979.959 604.467 980.543 605.583 980.909 606.95C981.276 608.283 981.459 609.917 981.459 611.85C981.459 615.817 981.309 619.617 981.009 623.25C980.709 626.883 980.243 630.55 979.609 634.25ZM989.109 599.3C989.109 598.4 989.543 597.95 990.409 597.95H993.559C994.426 597.95 994.859 598.4 994.859 599.3V640.9C994.859 641.8 994.426 642.25 993.559 642.25H990.409C989.543 642.25 989.109 641.8 989.109 640.9V619.75C988.743 620.417 988.059 620.75 987.059 620.75H984.809C983.976 620.75 983.559 620.333 983.559 619.5V616.5C983.559 615.667 983.976 615.25 984.809 615.25H987.359C988.526 615.25 989.109 614.717 989.109 613.65V599.3ZM1010.91 606.1C1009.38 606.1 1008.25 607.083 1007.51 609.05C1006.81 610.983 1006.46 614.133 1006.46 618.5C1006.46 622.9 1006.81 626.083 1007.51 628.05C1008.21 629.983 1009.35 630.95 1010.91 630.95C1012.48 630.95 1013.61 629.983 1014.31 628.05C1015.05 626.083 1015.41 622.9 1015.41 618.5C1015.41 614.1 1015.05 610.933 1014.31 609C1013.61 607.067 1012.48 606.1 1010.91 606.1ZM1020.91 618.5C1020.91 618.967 1020.91 619.433 1020.91 619.9C1020.91 620.333 1020.9 620.783 1020.86 621.25H1025.21C1026.05 621.25 1026.46 620.85 1026.46 620.05V612.1C1026.13 612.533 1025.68 612.75 1025.11 612.75H1020.61C1020.81 614.45 1020.91 616.367 1020.91 618.5ZM1020.26 626.75C1019.6 630.083 1018.5 632.533 1016.96 634.1C1015.43 635.667 1013.41 636.45 1010.91 636.45C1007.58 636.45 1005.08 635.017 1003.41 632.15C1001.78 629.25 1000.96 624.7 1000.96 618.5C1000.96 612.3 1001.78 607.767 1003.41 604.9C1005.08 602.033 1007.58 600.6 1010.91 600.6C1013.01 600.6 1014.78 601.15 1016.21 602.25C1017.65 603.317 1018.75 605 1019.51 607.3C1019.58 607.267 1019.71 607.25 1019.91 607.25H1025.21C1026.05 607.25 1026.46 606.85 1026.46 606.05V599.7C1026.46 598.867 1026.88 598.45 1027.71 598.45H1030.71C1031.55 598.45 1031.96 598.867 1031.96 599.7V641C1031.96 641.833 1031.55 642.25 1030.71 642.25H1027.71C1026.88 642.25 1026.46 641.833 1026.46 641V626.1C1026.13 626.533 1025.68 626.75 1025.11 626.75H1020.26ZM1040.71 641C1040.71 641.833 1040.3 642.25 1039.46 642.25H1036.46C1035.63 642.25 1035.21 641.833 1035.21 641V599.2C1035.21 598.367 1035.63 597.95 1036.46 597.95H1039.46C1040.3 597.95 1040.71 598.367 1040.71 599.2V641ZM1071.82 625.15C1070.28 625.417 1068.7 625.55 1067.07 625.55C1065.13 625.55 1063.3 625.367 1061.57 625V631.4C1061.57 632.433 1062.15 632.95 1063.32 632.95C1063.92 632.95 1064.63 632.95 1065.47 632.95C1066.3 632.95 1067.15 632.95 1068.02 632.95C1068.92 632.95 1069.82 632.95 1070.72 632.95C1071.62 632.917 1072.43 632.9 1073.17 632.9C1072.77 632.733 1072.43 632.467 1072.17 632.1C1071.93 631.7 1071.82 631.233 1071.82 630.7V625.15ZM1067.07 620.2C1070.3 620.2 1072.75 619.567 1074.42 618.3C1076.08 617 1076.92 615.167 1076.92 612.8C1076.92 610.4 1076.1 608.567 1074.47 607.3C1072.83 606.033 1070.37 605.4 1067.07 605.4C1063.77 605.4 1061.3 606.033 1059.67 607.3C1058.03 608.567 1057.22 610.4 1057.22 612.8C1057.22 615.167 1058.05 617 1059.72 618.3C1061.38 619.567 1063.83 620.2 1067.07 620.2ZM1051.47 612.8C1051.47 608.733 1052.82 605.6 1055.52 603.4C1058.25 601.167 1062.1 600.05 1067.07 600.05C1072.03 600.05 1075.87 601.167 1078.57 603.4C1081.3 605.6 1082.67 608.733 1082.67 612.8C1082.67 615.1 1082.23 617.1 1081.37 618.8C1080.5 620.5 1079.23 621.9 1077.57 623V631.1C1077.57 632.133 1078.15 632.65 1079.32 632.65C1079.68 632.65 1080.1 632.633 1080.57 632.6C1081.03 632.567 1081.5 632.533 1081.97 632.5C1082.43 632.433 1082.87 632.383 1083.27 632.35C1083.67 632.283 1083.98 632.233 1084.22 632.2C1085.12 632.1 1085.57 632.5 1085.57 633.4V636.15C1085.57 636.917 1085.15 637.367 1084.32 637.5C1083.48 637.633 1082.45 637.75 1081.22 637.85C1079.98 637.95 1078.6 638.033 1077.07 638.1C1075.53 638.2 1073.88 638.267 1072.12 638.3C1070.35 638.333 1068.52 638.35 1066.62 638.35C1058.68 638.35 1052.83 638.05 1049.07 637.45C1048.23 637.317 1047.82 636.867 1047.82 636.1V633.35C1047.82 632.45 1048.27 632.05 1049.17 632.15C1050.57 632.35 1051.9 632.533 1053.17 632.7C1054.43 632.867 1055.7 632.983 1056.97 633.05C1056.2 632.617 1055.82 631.917 1055.82 630.95V623C1055.82 622.767 1055.83 622.6 1055.87 622.5C1054.43 621.433 1053.33 620.083 1052.57 618.45C1051.83 616.817 1051.47 614.933 1051.47 612.8ZM1091.42 639.85C1091.42 638.75 1091.77 637.867 1092.47 637.2C1093.17 636.533 1094.07 636.2 1095.17 636.2C1096.3 636.2 1097.22 636.533 1097.92 637.2C1098.62 637.867 1098.97 638.75 1098.97 639.85C1098.97 640.917 1098.62 641.767 1097.92 642.4C1097.22 643.067 1096.3 643.4 1095.17 643.4C1094.07 643.4 1093.17 643.067 1092.47 642.4C1091.77 641.767 1091.42 640.917 1091.42 639.85Z" fill="black"/>
<g filter="url(#filter0_f_6_11)">
<circle cx="711.857" cy="330.588" r="87.8571" fill="url(#paint0_linear_6_11)"/>
</g>
<g filter="url(#filter1_f_6_11)">
<circle cx="751.714" cy="280.286" r="64.2857" fill="url(#paint1_linear_6_11)"/>
</g>
<defs>
<filter id="filter0_f_6_11" x="584" y="202.731" width="255.714" height="255.714" filterUnits="userSpaceOnUse" color-interpolation-filters="sRGB">
<feFlood flood-opacity="0" result="BackgroundImageFix"/>
<feBlend mode="normal" in="SourceGraphic" in2="BackgroundImageFix" result="shape"/>
<feGaussianBlur stdDeviation="20" result="effect1_foregroundBlur_6_11"/>
</filter>
<filter id="filter1_f_6_11" x="647.429" y="176" width="208.571" height="208.571" filterUnits="userSpaceOnUse" color-interpolation-filters="sRGB">
<feFlood flood-opacity="0" result="BackgroundImageFix"/>
<feBlend mode="normal" in="SourceGraphic" in2="BackgroundImageFix" result="shape"/>
<feGaussianBlur stdDeviation="20" result="effect1_foregroundBlur_6_11"/>
</filter>
<linearGradient id="paint0_linear_6_11" x1="711.857" y1="242.731" x2="711.857" y2="418.445" gradientUnits="userSpaceOnUse">
<stop stop-color="#DC5FFF"/>
<stop offset="1" stop-color="#CECBFF" stop-opacity="0.46"/>
</linearGradient>
<linearGradient id="paint1_linear_6_11" x1="751.714" y1="216" x2="751.714" y2="344.571" gradientUnits="userSpaceOnUse">
<stop stop-color="#E27BFF"/>
<stop offset="1" stop-color="#447FFF" stop-opacity="0"/>
</linearGradient>
</defs>
</svg>
