<svg width="1440" height="1024" viewBox="0 0 1440 1024" fill="none" xmlns="http://www.w3.org/2000/svg">
<rect width="1440" height="1024" fill="#FFFCF7"/>
<g filter="url(#filter0_f_187_302)">
<circle cx="711.357" cy="453.588" r="87.8571" fill="url(#paint0_linear_187_302)"/>
</g>
<g filter="url(#filter1_f_187_302)">
<circle cx="751.214" cy="403.286" r="64.2857" fill="url(#paint1_linear_187_302)"/>
</g>
<path d="M517.165 659.895C517.199 661.161 517.949 661.795 519.415 661.795H532.865C534.365 661.795 535.132 661.161 535.165 659.895L535.315 656.695H516.965L517.165 659.895ZM517.165 666.945C515.399 666.945 514.032 666.528 513.065 665.695C512.099 664.861 511.582 663.695 511.515 662.195L510.815 649.295C510.749 648.428 511.182 647.995 512.115 647.995H515.265C516.065 647.995 516.499 648.428 516.565 649.295L516.715 651.545H535.615L535.715 649.295C535.782 648.428 536.215 647.995 537.015 647.995H540.165C541.099 647.995 541.532 648.428 541.465 649.295L540.765 662.195C540.699 663.695 540.182 664.861 539.215 665.695C538.249 666.528 536.882 666.945 535.115 666.945H517.165ZM530.515 643.445C529.115 643.911 527.599 644.278 525.965 644.545C524.365 644.778 522.932 644.895 521.665 644.895C517.099 644.895 513.649 644.045 511.315 642.345C509.015 640.645 507.865 637.945 507.865 634.245C507.865 630.545 509.065 627.845 511.465 626.145C513.865 624.411 517.382 623.545 522.015 623.545C523.049 623.545 524.132 623.578 525.265 623.645C526.432 623.711 527.582 623.828 528.715 623.995C529.449 624.128 529.815 624.578 529.815 625.345V628.045C529.815 628.945 529.399 629.345 528.565 629.245C527.599 629.078 526.582 628.961 525.515 628.895C524.482 628.828 523.465 628.795 522.465 628.795C519.532 628.795 517.315 629.228 515.815 630.095C514.349 630.961 513.615 632.345 513.615 634.245C513.615 636.178 514.282 637.561 515.615 638.395C516.949 639.228 519.032 639.645 521.865 639.645C522.832 639.645 523.999 639.528 525.365 639.295C526.765 639.028 528.065 638.695 529.265 638.295C530.032 638.028 530.515 638.311 530.715 639.145L531.415 641.895C531.615 642.695 531.315 643.211 530.515 643.445ZM541.515 643.345C541.515 644.245 541.082 644.695 540.215 644.695H537.065C536.199 644.695 535.765 644.245 535.765 643.345V623.745C535.765 622.845 536.199 622.395 537.065 622.395H540.215C541.082 622.395 541.515 622.845 541.515 623.745V631.195C541.882 630.528 542.565 630.195 543.565 630.195H546.515C547.349 630.195 547.765 630.611 547.765 631.445V634.195C547.765 635.028 547.349 635.445 546.515 635.445H543.265C542.099 635.445 541.515 635.978 541.515 637.045V643.345ZM557.571 640.095C557.605 641.128 558.171 641.645 559.271 641.645H565.021C566.121 641.645 566.688 641.128 566.721 640.095L566.921 634.645H557.371L557.571 640.095ZM557.671 646.895C555.871 646.895 554.471 646.461 553.471 645.595C552.505 644.728 551.988 643.495 551.921 641.895L551.171 624.895C551.138 624.495 551.238 624.178 551.471 623.945C551.705 623.678 552.038 623.545 552.471 623.545H555.571C556.471 623.545 556.938 623.945 556.971 624.745L557.171 629.395H567.121L567.321 624.745C567.388 623.945 567.855 623.545 568.721 623.545H571.821C572.255 623.545 572.588 623.678 572.821 623.945C573.055 624.178 573.155 624.495 573.121 624.895L572.371 641.895C572.305 643.495 571.771 644.728 570.771 645.595C569.805 646.461 568.421 646.895 566.621 646.895H557.671ZM586.021 651.845C586.021 652.745 585.588 653.195 584.721 653.195H581.571C580.705 653.195 580.271 652.745 580.271 651.845V642.395C579.871 643.061 579.205 643.395 578.271 643.395H575.971C575.138 643.395 574.721 642.978 574.721 642.145V639.395C574.721 638.561 575.138 638.145 575.971 638.145H578.921C579.421 638.145 579.771 638.045 579.971 637.845C580.171 637.611 580.271 637.245 580.271 636.745V631.545C579.871 632.211 579.205 632.545 578.271 632.545H575.971C575.138 632.545 574.721 632.128 574.721 631.295V628.545C574.721 627.711 575.138 627.295 575.971 627.295H578.921C579.421 627.295 579.771 627.195 579.971 626.995C580.171 626.761 580.271 626.395 580.271 625.895V623.745C580.271 622.845 580.705 622.395 581.571 622.395H584.721C585.588 622.395 586.021 622.845 586.021 623.745V651.845ZM555.721 652.595C555.888 651.728 556.371 651.295 557.171 651.295H560.171C560.605 651.295 560.938 651.428 561.171 651.695C561.438 651.928 561.538 652.245 561.471 652.645C561.405 653.245 561.338 653.978 561.271 654.845C561.205 655.711 561.171 656.628 561.171 657.595C561.171 659.095 561.621 660.228 562.521 660.995C563.421 661.795 564.638 662.195 566.171 662.195C568.371 662.195 570.355 662.178 572.121 662.145C573.921 662.111 575.588 662.045 577.121 661.945C578.655 661.878 580.121 661.795 581.521 661.695C582.955 661.595 584.405 661.478 585.871 661.345C586.671 661.245 587.105 661.645 587.171 662.545L587.371 665.295C587.405 666.028 587.005 666.445 586.171 666.545C583.671 666.811 580.788 667.028 577.521 667.195C574.288 667.361 570.588 667.445 566.421 667.445C562.921 667.445 560.205 666.628 558.271 664.995C556.371 663.361 555.421 661.078 555.421 658.145C555.421 657.078 555.438 656.045 555.471 655.045C555.538 654.045 555.621 653.228 555.721 652.595ZM602.625 630.745C602.625 631.345 602.775 631.845 603.075 632.245C603.409 632.611 603.959 632.928 604.725 633.195C605.492 633.428 606.509 633.595 607.775 633.695C609.042 633.795 610.609 633.845 612.475 633.845C614.342 633.845 615.909 633.795 617.175 633.695C618.442 633.595 619.459 633.428 620.225 633.195C620.992 632.928 621.525 632.611 621.825 632.245C622.159 631.845 622.325 631.345 622.325 630.745C622.325 630.145 622.159 629.661 621.825 629.295C621.525 628.895 620.992 628.578 620.225 628.345C619.459 628.078 618.442 627.895 617.175 627.795C615.909 627.695 614.342 627.645 612.475 627.645C610.609 627.645 609.042 627.695 607.775 627.795C606.509 627.895 605.492 628.078 604.725 628.345C603.959 628.578 603.409 628.895 603.075 629.295C602.775 629.661 602.625 630.145 602.625 630.745ZM628.075 666.595C627.175 666.728 626.142 666.845 624.975 666.945C623.809 667.045 622.609 667.128 621.375 667.195C620.142 667.295 618.942 667.361 617.775 667.395C616.609 667.428 615.542 667.445 614.575 667.445C610.942 667.445 607.959 667.345 605.625 667.145C603.292 666.978 601.459 666.661 600.125 666.195C598.792 665.728 597.875 665.078 597.375 664.245C596.875 663.445 596.625 662.395 596.625 661.095C596.625 659.895 596.842 658.911 597.275 658.145C597.742 657.345 598.542 656.711 599.675 656.245C600.842 655.745 602.392 655.411 604.325 655.245C606.259 655.045 608.709 654.945 611.675 654.945C613.042 654.945 614.425 654.961 615.825 654.995C617.225 655.028 618.575 655.011 619.875 654.945C620.809 654.911 621.459 654.795 621.825 654.595C622.192 654.395 622.375 654.028 622.375 653.495C622.375 652.928 622.192 652.528 621.825 652.295C621.492 652.061 620.892 651.945 620.025 651.945C618.759 651.945 617.192 651.961 615.325 651.995C613.492 652.028 611.575 652.078 609.575 652.145C607.575 652.211 605.609 652.295 603.675 652.395C601.775 652.461 600.125 652.545 598.725 652.645C597.992 652.678 597.625 652.295 597.625 651.495V649.245C597.625 648.511 597.992 648.128 598.725 648.095C600.625 647.961 602.675 647.861 604.875 647.795C607.075 647.695 609.275 647.628 611.475 647.595C613.709 647.528 615.859 647.495 617.925 647.495C620.025 647.461 621.875 647.461 623.475 647.495C625.175 647.561 626.359 647.878 627.025 648.445C627.725 649.011 628.075 649.911 628.075 651.145C628.075 652.145 627.775 653.028 627.175 653.795C626.609 654.528 625.825 655.061 624.825 655.395H626.625C627.325 655.395 627.675 655.761 627.675 656.495V658.545C627.675 659.345 627.325 659.711 626.625 659.645C625.059 659.578 623.042 659.528 620.575 659.495C618.142 659.461 615.209 659.445 611.775 659.445C609.675 659.445 608.009 659.461 606.775 659.495C605.542 659.561 604.592 659.645 603.925 659.745C603.292 659.878 602.875 660.061 602.675 660.295C602.475 660.528 602.375 660.828 602.375 661.195C602.375 661.628 602.525 661.961 602.825 662.195C603.159 662.428 603.759 662.595 604.625 662.695C605.525 662.828 606.759 662.895 608.325 662.895C609.925 662.928 611.992 662.945 614.525 662.945C615.459 662.945 616.492 662.928 617.625 662.895C618.759 662.861 619.909 662.795 621.075 662.695C622.275 662.628 623.442 662.545 624.575 662.445C625.742 662.345 626.792 662.228 627.725 662.095C628.459 661.995 628.859 662.328 628.925 663.095L629.075 665.345C629.109 666.078 628.775 666.495 628.075 666.595ZM629.725 640.095C630.559 639.995 630.975 640.361 630.975 641.195V643.595C630.975 644.328 630.592 644.745 629.825 644.845C628.925 644.945 627.809 645.028 626.475 645.095C625.175 645.161 623.742 645.211 622.175 645.245C620.642 645.278 619.009 645.295 617.275 645.295C615.542 645.295 613.792 645.295 612.025 645.295C607.425 645.261 603.709 645.211 600.875 645.145C598.042 645.078 595.875 644.961 594.375 644.795C593.609 644.695 593.225 644.295 593.225 643.595V641.145C593.225 640.345 593.642 639.978 594.475 640.045C595.642 640.111 596.942 640.178 598.375 640.245C599.809 640.278 601.292 640.328 602.825 640.395C604.359 640.428 605.909 640.461 607.475 640.495C609.042 640.528 610.559 640.545 612.025 640.545C616.125 640.545 619.625 640.528 622.525 640.495C625.425 640.428 627.825 640.295 629.725 640.095ZM596.875 630.745C596.875 629.345 597.159 628.161 597.725 627.195C598.325 626.195 599.242 625.395 600.475 624.795C601.742 624.161 603.359 623.711 605.325 623.445C607.325 623.145 609.709 622.995 612.475 622.995C615.242 622.995 617.609 623.145 619.575 623.445C621.575 623.711 623.192 624.161 624.425 624.795C625.692 625.395 626.609 626.195 627.175 627.195C627.775 628.161 628.075 629.345 628.075 630.745C628.075 632.145 627.775 633.345 627.175 634.345C626.609 635.311 625.692 636.111 624.425 636.745C623.192 637.345 621.575 637.795 619.575 638.095C617.609 638.361 615.242 638.495 612.475 638.495C609.709 638.495 607.325 638.361 605.325 638.095C603.359 637.795 601.742 637.345 600.475 636.745C599.242 636.111 598.325 635.311 597.725 634.345C597.159 633.345 596.875 632.145 596.875 630.745ZM660.595 634.645C660.661 635.311 660.861 635.795 661.195 636.095C661.528 636.395 662.078 636.545 662.845 636.545H676.345C677.845 636.545 678.611 635.911 678.645 634.645L678.795 632.295H660.445L660.595 634.645ZM668.345 649.895C666.911 649.895 665.428 649.895 663.895 649.895C662.361 649.861 660.878 649.828 659.445 649.795C658.011 649.728 656.645 649.661 655.345 649.595C654.078 649.528 652.961 649.461 651.995 649.395C651.161 649.361 650.745 648.911 650.745 648.045V645.345C650.745 644.478 651.195 644.078 652.095 644.145C653.661 644.278 655.811 644.395 658.545 644.495C661.311 644.561 664.978 644.611 669.545 644.645C671.311 644.645 673.045 644.645 674.745 644.645C676.445 644.645 678.061 644.628 679.595 644.595C681.161 644.561 682.578 644.511 683.845 644.445C685.145 644.378 686.245 644.295 687.145 644.195C688.045 644.095 688.495 644.495 688.495 645.395V648.095C688.495 648.895 688.078 649.345 687.245 649.445C686.345 649.545 685.311 649.628 684.145 649.695C683.011 649.728 681.861 649.761 680.695 649.795C679.561 649.828 678.461 649.861 677.395 649.895C676.361 649.895 675.478 649.895 674.745 649.895C673.911 649.895 673.495 650.311 673.495 651.145V656.695C673.495 657.595 673.061 658.045 672.195 658.045H669.045C668.178 658.045 667.745 657.595 667.745 656.695V651.145C667.745 650.545 667.945 650.128 668.345 649.895ZM660.645 641.695C658.878 641.695 657.511 641.278 656.545 640.445C655.611 639.611 655.095 638.445 654.995 636.945L654.245 624.795C654.178 623.928 654.611 623.495 655.545 623.495H658.695C659.495 623.495 659.928 623.928 659.995 624.795L660.145 627.145H679.045L679.195 624.795C679.261 623.928 679.695 623.495 680.495 623.495H683.645C684.578 623.495 685.011 623.928 684.945 624.795L684.195 636.945C684.095 638.445 683.561 639.611 682.595 640.445C681.661 641.278 680.311 641.695 678.545 641.695H660.645ZM654.495 654.595C654.661 653.728 655.161 653.295 655.995 653.295H659.045C659.478 653.295 659.795 653.428 659.995 653.695C660.228 653.928 660.311 654.245 660.245 654.645C660.145 655.178 660.061 655.745 659.995 656.345C659.928 656.911 659.895 657.511 659.895 658.145C659.895 660.845 661.478 662.195 664.645 662.195C666.845 662.195 668.878 662.178 670.745 662.145C672.611 662.111 674.361 662.045 675.995 661.945C677.628 661.878 679.178 661.795 680.645 661.695C682.145 661.595 683.628 661.478 685.095 661.345C685.895 661.245 686.328 661.645 686.395 662.545L686.595 665.295C686.628 666.028 686.228 666.445 685.395 666.545C682.895 666.811 679.878 667.028 676.345 667.195C672.811 667.361 668.961 667.445 664.795 667.445C661.361 667.445 658.728 666.661 656.895 665.095C655.061 663.528 654.145 661.295 654.145 658.395C654.145 657.628 654.178 656.928 654.245 656.295C654.311 655.661 654.395 655.095 654.495 654.595ZM728.151 665.645C728.051 666.511 727.567 666.945 726.701 666.945H723.701C723.267 666.945 722.917 666.811 722.651 666.545C722.417 666.311 722.334 665.995 722.401 665.595C722.467 665.161 722.501 664.678 722.501 664.145C722.534 663.611 722.567 663.061 722.601 662.495C722.634 661.928 722.651 661.361 722.651 660.795C722.651 660.228 722.651 659.695 722.651 659.195C722.651 657.595 722.317 656.511 721.651 655.945C721.017 655.345 719.817 655.045 718.051 655.045C714.451 655.045 711.101 655.128 708.001 655.295C704.901 655.428 701.801 655.628 698.701 655.895C697.867 655.995 697.451 655.595 697.451 654.695V651.945C697.451 651.178 697.867 650.745 698.701 650.645C701.367 650.378 704.351 650.178 707.651 650.045C710.951 649.878 714.617 649.795 718.651 649.795C722.117 649.795 724.601 650.411 726.101 651.645C727.634 652.878 728.401 654.911 728.401 657.745C728.401 659.445 728.384 660.961 728.351 662.295C728.317 663.661 728.251 664.778 728.151 665.645ZM708.001 630.845C708.001 632.245 708.184 633.545 708.551 634.745C708.951 635.911 709.484 636.945 710.151 637.845C710.817 638.711 711.617 639.395 712.551 639.895C713.484 640.395 714.501 640.645 715.601 640.645C716.434 640.645 716.851 641.061 716.851 641.895V644.645C716.851 645.478 716.434 645.895 715.601 645.895C714.301 645.895 713.084 645.695 711.951 645.295C710.851 644.895 709.851 644.361 708.951 643.695C708.051 642.995 707.267 642.211 706.601 641.345C705.967 640.445 705.484 639.495 705.151 638.495C704.817 639.495 704.317 640.445 703.651 641.345C703.017 642.211 702.251 642.995 701.351 643.695C700.451 644.361 699.434 644.895 698.301 645.295C697.167 645.695 695.951 645.895 694.651 645.895C693.817 645.895 693.401 645.478 693.401 644.645V641.895C693.401 641.061 693.817 640.645 694.651 640.645C695.751 640.645 696.767 640.395 697.701 639.895C698.634 639.395 699.434 638.711 700.101 637.845C700.767 636.945 701.284 635.911 701.651 634.745C702.051 633.545 702.251 632.245 702.251 630.845V624.895C702.251 623.995 702.684 623.545 703.551 623.545H706.701C707.567 623.545 708.001 623.995 708.001 624.895V630.845ZM722.801 623.745C722.801 622.845 723.234 622.395 724.101 622.395H727.251C728.117 622.395 728.551 622.845 728.551 623.745V644.845C728.551 645.745 728.117 646.195 727.251 646.195H724.101C723.234 646.195 722.801 645.745 722.801 644.845V634.145C722.434 634.811 721.751 635.145 720.751 635.145H715.501C714.667 635.145 714.251 634.728 714.251 633.895V631.145C714.251 630.311 714.667 629.895 715.501 629.895H721.051C722.217 629.895 722.801 629.361 722.801 628.295V623.745ZM752.668 658.895C752.668 656.295 753.735 654.311 755.868 652.945C758.001 651.545 761.301 650.711 765.768 650.445V648.645C765.768 648.045 765.968 647.628 766.368 647.395C765.135 647.395 763.818 647.378 762.418 647.345C761.018 647.311 759.618 647.278 758.218 647.245C756.851 647.211 755.551 647.161 754.318 647.095C753.085 647.028 751.985 646.961 751.018 646.895C750.185 646.861 749.768 646.411 749.768 645.545V642.845C749.768 641.978 750.218 641.578 751.118 641.645C752.685 641.778 754.835 641.895 757.568 641.995C760.335 642.061 764.001 642.111 768.568 642.145C770.335 642.145 772.068 642.145 773.768 642.145C775.468 642.145 777.085 642.128 778.618 642.095C780.185 642.061 781.601 642.011 782.868 641.945C784.168 641.878 785.268 641.795 786.168 641.695C787.068 641.595 787.518 641.995 787.518 642.895V645.595C787.518 646.395 787.101 646.845 786.268 646.945C785.368 647.045 784.335 647.128 783.168 647.195C782.001 647.228 780.801 647.261 779.568 647.295C778.368 647.328 777.168 647.361 775.968 647.395C774.801 647.395 773.735 647.395 772.768 647.395C771.935 647.395 771.518 647.811 771.518 648.645V650.395C776.218 650.595 779.701 651.395 781.968 652.795C784.235 654.161 785.368 656.195 785.368 658.895C785.368 661.828 784.035 663.995 781.368 665.395C778.701 666.795 774.585 667.495 769.018 667.495C763.451 667.495 759.335 666.795 756.668 665.395C754.001 663.995 752.668 661.828 752.668 658.895ZM754.668 639.645C753.835 639.611 753.418 639.195 753.418 638.395V635.545C753.418 634.778 753.835 634.395 754.668 634.395C756.301 634.395 757.785 634.261 759.118 633.995C760.485 633.695 761.651 633.295 762.618 632.795C763.585 632.261 764.351 631.661 764.918 630.995C765.485 630.295 765.818 629.545 765.918 628.745H755.418C754.585 628.745 754.168 628.328 754.168 627.495V624.745C754.168 623.911 754.585 623.495 755.418 623.495H782.268C783.101 623.495 783.518 623.911 783.518 624.745V627.495C783.518 628.328 783.101 628.745 782.268 628.745H771.768C771.868 629.545 772.201 630.295 772.768 630.995C773.335 631.661 774.101 632.261 775.068 632.795C776.035 633.295 777.185 633.695 778.518 633.995C779.885 634.261 781.385 634.395 783.018 634.395C783.851 634.395 784.268 634.778 784.268 635.545V638.395C784.268 639.195 783.851 639.611 783.018 639.645C781.485 639.745 779.968 639.645 778.468 639.345C777.001 639.011 775.635 638.561 774.368 637.995C773.135 637.395 772.035 636.711 771.068 635.945C770.101 635.145 769.351 634.295 768.818 633.395C768.285 634.295 767.535 635.145 766.568 635.945C765.635 636.711 764.535 637.395 763.268 637.995C762.035 638.561 760.685 639.011 759.218 639.345C757.751 639.645 756.235 639.745 754.668 639.645ZM758.418 658.895C758.418 660.128 759.235 661.011 760.868 661.545C762.535 662.078 765.251 662.345 769.018 662.345C772.785 662.345 775.485 662.078 777.118 661.545C778.785 661.011 779.618 660.128 779.618 658.895C779.618 657.661 778.801 656.795 777.168 656.295C775.535 655.761 772.818 655.495 769.018 655.495C765.218 655.495 762.501 655.761 760.868 656.295C759.235 656.795 758.418 657.661 758.418 658.895ZM815.124 642.945C815.124 649.145 814.224 653.695 812.424 656.595C810.624 659.461 807.774 660.895 803.874 660.895C800.007 660.895 797.174 659.461 795.374 656.595C793.574 653.695 792.674 649.145 792.674 642.945C792.674 636.745 793.574 632.211 795.374 629.345C797.174 626.478 800.007 625.045 803.874 625.045C807.774 625.045 810.624 626.478 812.424 629.345C814.224 632.211 815.124 636.745 815.124 642.945ZM803.874 630.545C801.974 630.545 800.591 631.511 799.724 633.445C798.857 635.378 798.424 638.545 798.424 642.945C798.424 647.345 798.857 650.528 799.724 652.495C800.591 654.428 801.974 655.395 803.874 655.395C805.807 655.395 807.207 654.428 808.074 652.495C808.941 650.561 809.374 647.378 809.374 642.945C809.374 638.545 808.941 635.378 808.074 633.445C807.207 631.511 805.807 630.545 803.874 630.545ZM821.824 623.745C821.824 622.845 822.257 622.395 823.124 622.395H826.274C827.141 622.395 827.574 622.845 827.574 623.745V665.345C827.574 666.245 827.141 666.695 826.274 666.695H823.124C822.257 666.695 821.824 666.245 821.824 665.345V623.745ZM853.578 645.195C853.378 650.628 852.461 654.611 850.828 657.145C849.195 659.645 846.795 660.895 843.628 660.895C840.295 660.895 837.795 659.461 836.128 656.595C834.495 653.695 833.678 649.145 833.678 642.945C833.678 636.745 834.495 632.211 836.128 629.345C837.795 626.478 840.295 625.045 843.628 625.045C846.728 625.045 849.078 626.228 850.678 628.595C852.311 630.928 853.261 634.628 853.528 639.695H857.678C858.245 639.695 858.628 639.595 858.828 639.395C859.061 639.195 859.178 638.845 859.178 638.345V624.145C859.178 623.311 859.595 622.895 860.428 622.895H863.428C864.261 622.895 864.678 623.311 864.678 624.145V665.445C864.678 666.278 864.261 666.695 863.428 666.695H860.428C859.595 666.695 859.178 666.278 859.178 665.445V644.295C859.011 644.561 858.778 644.778 858.478 644.945C858.178 645.111 857.845 645.195 857.478 645.195H853.578ZM873.428 665.445C873.428 666.278 873.011 666.695 872.178 666.695H869.178C868.345 666.695 867.928 666.278 867.928 665.445V623.645C867.928 622.811 868.345 622.395 869.178 622.395H872.178C873.011 622.395 873.428 622.811 873.428 623.645V665.445ZM843.628 630.545C842.095 630.545 840.961 631.528 840.228 633.495C839.528 635.428 839.178 638.578 839.178 642.945C839.178 647.345 839.528 650.528 840.228 652.495C840.928 654.428 842.061 655.395 843.628 655.395C845.195 655.395 846.328 654.428 847.028 652.495C847.761 650.528 848.128 647.345 848.128 642.945C848.128 638.545 847.761 635.378 847.028 633.445C846.328 631.511 845.195 630.545 843.628 630.545ZM904.53 649.595C902.997 649.861 901.413 649.995 899.78 649.995C897.847 649.995 896.013 649.811 894.28 649.445V655.845C894.28 656.878 894.863 657.395 896.03 657.395C896.63 657.395 897.347 657.395 898.18 657.395C899.013 657.395 899.863 657.395 900.73 657.395C901.63 657.395 902.53 657.395 903.43 657.395C904.33 657.361 905.147 657.345 905.88 657.345C905.48 657.178 905.147 656.911 904.88 656.545C904.647 656.145 904.53 655.678 904.53 655.145V649.595ZM899.78 644.645C903.013 644.645 905.463 644.011 907.13 642.745C908.797 641.445 909.63 639.611 909.63 637.245C909.63 634.845 908.813 633.011 907.18 631.745C905.547 630.478 903.08 629.845 899.78 629.845C896.48 629.845 894.013 630.478 892.38 631.745C890.747 633.011 889.93 634.845 889.93 637.245C889.93 639.611 890.763 641.445 892.43 642.745C894.097 644.011 896.547 644.645 899.78 644.645ZM884.18 637.245C884.18 633.178 885.53 630.045 888.23 627.845C890.963 625.611 894.813 624.495 899.78 624.495C904.747 624.495 908.58 625.611 911.28 627.845C914.013 630.045 915.38 633.178 915.38 637.245C915.38 639.545 914.947 641.545 914.08 643.245C913.213 644.945 911.947 646.345 910.28 647.445V655.545C910.28 656.578 910.863 657.095 912.03 657.095C912.397 657.095 912.813 657.078 913.28 657.045C913.747 657.011 914.213 656.978 914.68 656.945C915.147 656.878 915.58 656.828 915.98 656.795C916.38 656.728 916.697 656.678 916.93 656.645C917.83 656.545 918.28 656.945 918.28 657.845V660.595C918.28 661.361 917.863 661.811 917.03 661.945C916.197 662.078 915.163 662.195 913.93 662.295C912.697 662.395 911.313 662.478 909.78 662.545C908.247 662.645 906.597 662.711 904.83 662.745C903.063 662.778 901.23 662.795 899.33 662.795C891.397 662.795 885.547 662.495 881.78 661.895C880.947 661.761 880.53 661.311 880.53 660.545V657.795C880.53 656.895 880.98 656.495 881.88 656.595C883.28 656.795 884.613 656.978 885.88 657.145C887.147 657.311 888.413 657.428 889.68 657.495C888.913 657.061 888.53 656.361 888.53 655.395V647.445C888.53 647.211 888.547 647.045 888.58 646.945C887.147 645.878 886.047 644.528 885.28 642.895C884.547 641.261 884.18 639.378 884.18 637.245ZM924.136 664.295C924.136 663.195 924.486 662.311 925.186 661.645C925.886 660.978 926.786 660.645 927.886 660.645C929.019 660.645 929.936 660.978 930.636 661.645C931.336 662.311 931.686 663.195 931.686 664.295C931.686 665.361 931.336 666.211 930.636 666.845C929.936 667.511 929.019 667.845 927.886 667.845C926.786 667.845 925.886 667.511 925.186 666.845C924.486 666.211 924.136 665.361 924.136 664.295Z" fill="black"/>
<defs>
<filter id="filter0_f_187_302" x="583.5" y="325.731" width="255.714" height="255.714" filterUnits="userSpaceOnUse" color-interpolation-filters="sRGB">
<feFlood flood-opacity="0" result="BackgroundImageFix"/>
<feBlend mode="normal" in="SourceGraphic" in2="BackgroundImageFix" result="shape"/>
<feGaussianBlur stdDeviation="20" result="effect1_foregroundBlur_187_302"/>
</filter>
<filter id="filter1_f_187_302" x="646.929" y="299" width="208.571" height="208.571" filterUnits="userSpaceOnUse" color-interpolation-filters="sRGB">
<feFlood flood-opacity="0" result="BackgroundImageFix"/>
<feBlend mode="normal" in="SourceGraphic" in2="BackgroundImageFix" result="shape"/>
<feGaussianBlur stdDeviation="20" result="effect1_foregroundBlur_187_302"/>
</filter>
<linearGradient id="paint0_linear_187_302" x1="711.357" y1="365.731" x2="711.357" y2="541.445" gradientUnits="userSpaceOnUse">
<stop stop-color="#DC5FFF"/>
<stop offset="1" stop-color="#CECBFF" stop-opacity="0.46"/>
</linearGradient>
<linearGradient id="paint1_linear_187_302" x1="751.214" y1="339" x2="751.214" y2="467.571" gradientUnits="userSpaceOnUse">
<stop stop-color="#E27BFF"/>
<stop offset="1" stop-color="#447FFF" stop-opacity="0"/>
</linearGradient>
</defs>
</svg>
