<svg width="1440" height="1024" viewBox="0 0 1440 1024" fill="none" xmlns="http://www.w3.org/2000/svg">
<g clip-path="url(#clip0_6_2)">
<path d="M1440 0H0V1024H1440V0Z" fill="#FFFCF7"/>
<g filter="url(#filter0_f_6_2)">
<path d="M711.357 541.445C759.879 541.445 799.214 502.11 799.214 453.588C799.214 405.066 759.879 365.731 711.357 365.731C662.835 365.731 623.5 405.066 623.5 453.588C623.5 502.11 662.835 541.445 711.357 541.445Z" fill="url(#paint0_linear_6_2)"/>
</g>
<g filter="url(#filter1_f_6_2)">
<path d="M751.214 467.572C786.718 467.572 815.5 438.79 815.5 403.286C815.5 367.782 786.718 339 751.214 339C715.71 339 686.928 367.782 686.928 403.286C686.928 438.79 715.71 467.572 751.214 467.572Z" fill="url(#paint1_linear_6_2)"/>
</g>
<path d="M568.207 641.645C569.807 641.645 571.107 640.978 572.107 639.645C573.107 638.278 573.607 636.511 573.607 634.345C573.607 632.545 573.257 631.178 572.557 630.245C571.857 629.278 570.791 628.795 569.357 628.795H564.357C563.557 628.795 563.157 629.195 563.157 629.995V640.045C563.157 640.545 563.324 640.945 563.657 641.245C564.024 641.511 564.507 641.645 565.107 641.645H568.207ZM562.557 646.895C560.957 646.895 559.691 646.511 558.757 645.745C557.857 644.978 557.407 643.895 557.407 642.495V625.895C557.407 624.328 558.174 623.545 559.707 623.545H572.307C574.607 623.545 576.357 624.261 577.557 625.695C578.757 627.128 579.357 629.145 579.357 631.745C579.357 633.945 578.907 635.945 578.007 637.745C577.107 639.511 575.924 640.811 574.457 641.645H577.807C578.641 641.645 579.057 642.061 579.057 642.895V645.645C579.057 646.478 578.641 646.895 577.807 646.895H562.557ZM590.807 651.845C590.807 652.745 590.374 653.195 589.507 653.195H586.357C585.491 653.195 585.057 652.745 585.057 651.845V623.745C585.057 622.845 585.491 622.395 586.357 622.395H589.507C590.374 622.395 590.807 622.845 590.807 623.745V635.395C591.174 634.728 591.857 634.395 592.857 634.395H595.807C596.641 634.395 597.057 634.811 597.057 635.645V638.395C597.057 639.228 596.641 639.645 595.807 639.645H592.557C591.391 639.645 590.807 640.178 590.807 641.245V651.845ZM561.507 652.595C561.674 651.728 562.157 651.295 562.957 651.295H565.957C566.391 651.295 566.724 651.428 566.957 651.695C567.224 651.928 567.324 652.245 567.257 652.645C567.191 653.245 567.124 653.978 567.057 654.845C566.991 655.711 566.957 656.628 566.957 657.595C566.957 659.095 567.407 660.228 568.307 660.995C569.207 661.795 570.424 662.195 571.957 662.195C574.057 662.195 575.924 662.178 577.557 662.145C579.224 662.111 580.774 662.045 582.207 661.945C583.674 661.878 585.074 661.795 586.407 661.695C587.774 661.595 589.191 661.478 590.657 661.345C591.457 661.245 591.891 661.645 591.957 662.545L592.157 665.295C592.191 666.028 591.791 666.445 590.957 666.545C588.457 666.811 585.674 667.028 582.607 667.195C579.574 667.361 576.107 667.445 572.207 667.445C568.707 667.445 565.991 666.628 564.057 664.995C562.157 663.361 561.207 661.078 561.207 658.145C561.207 657.078 561.224 656.045 561.257 655.045C561.324 654.045 561.407 653.228 561.507 652.595ZM622.413 658.445C620.713 659.111 619.097 659.611 617.563 659.945C616.063 660.278 614.63 660.445 613.263 660.445C609.197 660.445 606.113 659.228 604.013 656.795C601.947 654.361 600.913 650.761 600.913 645.995C600.913 644.061 600.93 642.261 600.963 640.595C600.997 638.928 601.063 637.328 601.163 635.795C601.263 634.228 601.38 632.711 601.513 631.245C601.647 629.745 601.813 628.228 602.013 626.695C602.113 625.928 602.58 625.545 603.413 625.545H606.463C607.463 625.545 607.913 626.011 607.813 626.945C607.413 630.311 607.113 633.561 606.913 636.695C606.747 639.795 606.663 643.061 606.663 646.495C606.663 649.528 607.197 651.695 608.263 652.995C609.33 654.261 611.113 654.895 613.613 654.895C615.88 654.895 618.413 654.278 621.213 653.045C621.413 652.978 621.563 652.945 621.663 652.945C622.063 652.945 622.38 653.295 622.613 653.995L623.463 656.845C623.697 657.545 623.347 658.078 622.413 658.445ZM634.313 665.345C634.313 666.245 633.88 666.695 633.013 666.695H629.863C628.997 666.695 628.563 666.245 628.563 665.345V623.745C628.563 622.845 628.997 622.395 629.863 622.395H633.013C633.88 622.395 634.313 622.845 634.313 623.745V640.895C634.68 640.228 635.363 639.895 636.363 639.895H639.313C640.147 639.895 640.563 640.311 640.563 641.145V644.145C640.563 644.978 640.147 645.395 639.313 645.395H636.063C634.897 645.395 634.313 645.928 634.313 646.995V665.345ZM655.419 650.845C655.086 652.011 654.569 653.111 653.869 654.145C653.202 655.178 652.402 656.095 651.469 656.895C650.536 657.695 649.502 658.361 648.369 658.895C647.269 659.428 646.119 659.761 644.919 659.895C644.086 659.995 643.669 659.611 643.669 658.745V655.745C643.669 654.945 644.052 654.495 644.819 654.395C645.886 654.261 646.886 653.861 647.819 653.195C648.752 652.528 649.569 651.678 650.269 650.645C650.969 649.611 651.519 648.428 651.919 647.095C652.319 645.761 652.519 644.378 652.519 642.945V626.895C652.519 625.995 652.952 625.545 653.819 625.545H656.969C657.836 625.545 658.269 625.995 658.269 626.895V642.945C658.269 644.378 658.469 645.761 658.869 647.095C659.302 648.428 659.869 649.611 660.569 650.645C661.269 651.678 662.086 652.528 663.019 653.195C663.952 653.861 664.936 654.261 665.969 654.395C666.736 654.495 667.119 654.945 667.119 655.745V658.745C667.119 659.611 666.702 659.995 665.869 659.895C664.669 659.761 663.502 659.428 662.369 658.895C661.269 658.361 660.252 657.695 659.319 656.895C658.386 656.095 657.569 655.178 656.869 654.145C656.202 653.111 655.719 652.011 655.419 650.845ZM673.069 623.745C673.069 622.845 673.502 622.395 674.369 622.395H677.519C678.386 622.395 678.819 622.845 678.819 623.745V665.345C678.819 666.245 678.386 666.695 677.519 666.695H674.369C673.502 666.695 673.069 666.245 673.069 665.345V641.695C672.702 642.361 672.019 642.695 671.019 642.695H665.769C664.936 642.695 664.519 642.278 664.519 641.445V638.445C664.519 637.611 664.936 637.195 665.769 637.195H671.319C672.486 637.195 673.069 636.661 673.069 635.595V623.745ZM705.887 640.095C705.92 641.128 706.487 641.645 707.587 641.645H713.837C714.937 641.645 715.503 641.128 715.537 640.095L715.737 634.645H705.687L705.887 640.095ZM705.987 646.895C704.187 646.895 702.787 646.461 701.787 645.595C700.82 644.728 700.303 643.495 700.237 641.895L699.487 624.895C699.453 624.495 699.553 624.178 699.787 623.945C700.02 623.678 700.353 623.545 700.787 623.545H703.887C704.787 623.545 705.253 623.945 705.287 624.745L705.487 629.395H715.937L716.137 624.745C716.203 623.945 716.67 623.545 717.537 623.545H720.637C721.07 623.545 721.403 623.678 721.637 623.945C721.87 624.178 721.97 624.495 721.937 624.895L721.187 641.895C721.12 643.495 720.587 644.728 719.587 645.595C718.62 646.461 717.237 646.895 715.437 646.895H705.987ZM733.337 651.845C733.337 652.745 732.903 653.195 732.037 653.195H728.887C728.02 653.195 727.587 652.745 727.587 651.845V623.745C727.587 622.845 728.02 622.395 728.887 622.395H732.037C732.903 622.395 733.337 622.845 733.337 623.745V635.395C733.703 634.728 734.387 634.395 735.387 634.395H738.337C739.17 634.395 739.587 634.811 739.587 635.645V638.395C739.587 639.228 739.17 639.645 738.337 639.645H735.087C733.92 639.645 733.337 640.178 733.337 641.245V651.845ZM704.037 652.595C704.203 651.728 704.687 651.295 705.487 651.295H708.487C708.92 651.295 709.253 651.428 709.487 651.695C709.753 651.928 709.853 652.245 709.787 652.645C709.72 653.245 709.653 653.978 709.587 654.845C709.52 655.711 709.487 656.628 709.487 657.595C709.487 659.095 709.937 660.228 710.837 660.995C711.737 661.795 712.953 662.195 714.487 662.195C716.587 662.195 718.453 662.178 720.087 662.145C721.753 662.111 723.303 662.045 724.737 661.945C726.203 661.878 727.603 661.795 728.937 661.695C730.303 661.595 731.72 661.478 733.187 661.345C733.987 661.245 734.42 661.645 734.487 662.545L734.687 665.295C734.72 666.028 734.32 666.445 733.487 666.545C730.987 666.811 728.203 667.028 725.137 667.195C722.103 667.361 718.637 667.445 714.737 667.445C711.237 667.445 708.52 666.628 706.587 664.995C704.687 663.361 703.737 661.078 703.737 658.145C703.737 657.078 703.753 656.045 703.787 655.045C703.853 654.045 703.937 653.228 704.037 652.595ZM763.593 658.695C763.459 659.495 762.993 659.895 762.193 659.895H758.993C758.526 659.895 758.176 659.761 757.943 659.495C757.743 659.261 757.676 658.945 757.743 658.545C758.409 654.911 758.893 651.311 759.193 647.745C759.493 644.145 759.643 640.511 759.643 636.845C759.643 634.711 759.259 633.228 758.493 632.395C757.726 631.528 756.409 631.095 754.543 631.095C752.709 631.095 751.026 631.195 749.493 631.395C747.993 631.561 746.409 631.761 744.743 631.995C744.343 632.061 744.026 631.978 743.793 631.745C743.559 631.478 743.443 631.128 743.443 630.695V627.795C743.443 626.995 743.859 626.545 744.693 626.445C746.626 626.178 748.476 625.961 750.243 625.795C752.043 625.628 753.843 625.545 755.643 625.545C757.409 625.545 758.909 625.745 760.143 626.145C761.376 626.545 762.376 627.178 763.143 628.045C763.943 628.911 764.526 630.028 764.893 631.395C765.259 632.728 765.443 634.361 765.443 636.295C765.443 640.261 765.293 644.061 764.993 647.695C764.693 651.328 764.226 654.995 763.593 658.695ZM776.843 665.345C776.843 666.245 776.409 666.695 775.543 666.695H772.393C771.526 666.695 771.093 666.245 771.093 665.345V623.745C771.093 622.845 771.526 622.395 772.393 622.395H775.543C776.409 622.395 776.843 622.845 776.843 623.745V640.895C777.209 640.228 777.893 639.895 778.893 639.895H781.843C782.676 639.895 783.093 640.311 783.093 641.145V644.145C783.093 644.978 782.676 645.395 781.843 645.395H778.593C777.426 645.395 776.843 645.928 776.843 646.995V665.345ZM798.698 639.745C800.398 639.745 801.732 639.211 802.698 638.145C803.698 637.078 804.198 635.695 804.198 633.995C804.198 632.295 803.698 630.928 802.698 629.895C801.732 628.828 800.398 628.295 798.698 628.295C796.998 628.295 795.648 628.828 794.648 629.895C793.682 630.928 793.198 632.295 793.198 633.995C793.198 635.695 793.682 637.078 794.648 638.145C795.648 639.211 796.998 639.745 798.698 639.745ZM796.798 654.745C794.932 654.678 793.015 654.578 791.048 654.445C789.082 654.311 787.415 654.145 786.048 653.945C785.215 653.811 784.798 653.378 784.798 652.645V649.695C784.798 648.828 785.248 648.478 786.148 648.645C789.515 649.145 793.632 649.395 798.498 649.395C800.865 649.395 803.232 649.345 805.598 649.245C807.998 649.145 810.048 648.961 811.748 648.695C812.615 648.528 813.048 648.895 813.048 649.795V652.645C813.048 653.445 812.632 653.895 811.798 653.995C811.298 654.061 810.698 654.128 809.998 654.195C809.298 654.261 808.548 654.328 807.748 654.395C806.948 654.461 806.132 654.511 805.298 654.545C804.498 654.578 803.715 654.595 802.948 654.595C801.782 654.595 801.198 655.111 801.198 656.145V664.595C801.198 665.495 800.765 665.945 799.898 665.945H796.748C795.882 665.945 795.448 665.495 795.448 664.595V656.895C795.448 656.361 795.565 655.911 795.798 655.545C796.065 655.178 796.398 654.911 796.798 654.745ZM815.598 623.745C815.598 622.845 816.032 622.395 816.898 622.395H820.048C820.915 622.395 821.348 622.845 821.348 623.745V665.595C821.348 666.495 820.915 666.945 820.048 666.945H816.898C816.032 666.945 815.598 666.495 815.598 665.595V662.695C815.232 663.361 814.548 663.695 813.548 663.695H807.348C806.515 663.695 806.098 663.278 806.098 662.445V659.445C806.098 658.611 806.515 658.195 807.348 658.195H813.848C815.015 658.195 815.598 657.661 815.598 656.595V623.745ZM787.448 633.995C787.448 632.361 787.715 630.878 788.248 629.545C788.782 628.178 789.532 627.028 790.498 626.095C791.498 625.128 792.682 624.378 794.048 623.845C795.448 623.311 796.998 623.045 798.698 623.045C800.398 623.045 801.932 623.311 803.298 623.845C804.698 624.378 805.882 625.128 806.848 626.095C807.848 627.028 808.615 628.178 809.148 629.545C809.682 630.878 809.948 632.361 809.948 633.995C809.948 635.628 809.682 637.128 809.148 638.495C808.615 639.828 807.848 640.978 806.848 641.945C805.882 642.911 804.698 643.661 803.298 644.195C801.932 644.728 800.398 644.995 798.698 644.995C796.998 644.995 795.448 644.728 794.048 644.195C792.682 643.661 791.498 642.911 790.498 641.945C789.532 640.978 788.782 639.828 788.248 638.495C787.715 637.128 787.448 635.628 787.448 633.995ZM852.552 649.595C851.019 649.861 849.436 649.995 847.802 649.995C845.869 649.995 844.036 649.811 842.302 649.445V655.845C842.302 656.878 842.886 657.395 844.052 657.395C844.652 657.395 845.369 657.395 846.202 657.395C847.036 657.395 847.886 657.395 848.752 657.395C849.652 657.395 850.552 657.395 851.452 657.395C852.352 657.361 853.169 657.345 853.902 657.345C853.502 657.178 853.169 656.911 852.902 656.545C852.669 656.145 852.552 655.678 852.552 655.145V649.595ZM847.802 644.645C851.036 644.645 853.486 644.011 855.152 642.745C856.819 641.445 857.652 639.611 857.652 637.245C857.652 634.845 856.836 633.011 855.202 631.745C853.569 630.478 851.102 629.845 847.802 629.845C844.502 629.845 842.036 630.478 840.402 631.745C838.769 633.011 837.952 634.845 837.952 637.245C837.952 639.611 838.786 641.445 840.452 642.745C842.119 644.011 844.569 644.645 847.802 644.645ZM832.202 637.245C832.202 633.178 833.552 630.045 836.252 627.845C838.986 625.611 842.836 624.495 847.802 624.495C852.769 624.495 856.602 625.611 859.302 627.845C862.036 630.045 863.402 633.178 863.402 637.245C863.402 639.545 862.969 641.545 862.102 643.245C861.236 644.945 859.969 646.345 858.302 647.445V655.545C858.302 656.578 858.886 657.095 860.052 657.095C860.419 657.095 860.836 657.078 861.302 657.045C861.769 657.011 862.236 656.978 862.702 656.945C863.169 656.878 863.602 656.828 864.002 656.795C864.402 656.728 864.719 656.678 864.952 656.645C865.852 656.545 866.302 656.945 866.302 657.845V660.595C866.302 661.361 865.886 661.811 865.052 661.945C864.219 662.078 863.186 662.195 861.952 662.295C860.719 662.395 859.336 662.478 857.802 662.545C856.269 662.645 854.619 662.711 852.852 662.745C851.086 662.778 849.252 662.795 847.352 662.795C839.419 662.795 833.569 662.495 829.802 661.895C828.969 661.761 828.552 661.311 828.552 660.545V657.795C828.552 656.895 829.002 656.495 829.902 656.595C831.302 656.795 832.636 656.978 833.902 657.145C835.169 657.311 836.436 657.428 837.702 657.495C836.936 657.061 836.552 656.361 836.552 655.395V647.445C836.552 647.211 836.569 647.045 836.602 646.945C835.169 645.878 834.069 644.528 833.302 642.895C832.569 641.261 832.202 639.378 832.202 637.245ZM873.158 661.845C873.158 660.945 873.592 660.495 874.458 660.495H877.608C878.475 660.495 878.908 660.945 878.908 661.845V666.345C878.908 667.245 878.475 667.695 877.608 667.695H874.458C873.592 667.695 873.158 667.245 873.158 666.345V661.845ZM873.158 623.245C873.158 622.345 873.592 621.895 874.458 621.895H877.608C878.475 621.895 878.908 622.345 878.908 623.245V656.645C878.908 657.545 878.475 657.995 877.608 657.995H874.458C873.592 657.995 873.158 657.545 873.158 656.645V623.245Z" fill="black"/>
</g>
<defs>
<filter id="filter0_f_6_2" x="583.5" y="325.731" width="255.714" height="255.714" filterUnits="userSpaceOnUse" color-interpolation-filters="sRGB">
<feFlood flood-opacity="0" result="BackgroundImageFix"/>
<feBlend mode="normal" in="SourceGraphic" in2="BackgroundImageFix" result="shape"/>
<feGaussianBlur stdDeviation="20" result="effect1_foregroundBlur_6_2"/>
</filter>
<filter id="filter1_f_6_2" x="646.928" y="299" width="208.571" height="208.571" filterUnits="userSpaceOnUse" color-interpolation-filters="sRGB">
<feFlood flood-opacity="0" result="BackgroundImageFix"/>
<feBlend mode="normal" in="SourceGraphic" in2="BackgroundImageFix" result="shape"/>
<feGaussianBlur stdDeviation="20" result="effect1_foregroundBlur_6_2"/>
</filter>
<linearGradient id="paint0_linear_6_2" x1="711.357" y1="365.731" x2="711.357" y2="541.445" gradientUnits="userSpaceOnUse">
<stop stop-color="#DC5FFF"/>
<stop offset="1" stop-color="#CECBFF" stop-opacity="0.46"/>
</linearGradient>
<linearGradient id="paint1_linear_6_2" x1="751.214" y1="339" x2="751.214" y2="467.571" gradientUnits="userSpaceOnUse">
<stop stop-color="#E27BFF"/>
<stop offset="1" stop-color="#447FFF" stop-opacity="0"/>
</linearGradient>
<clipPath id="clip0_6_2">
<rect width="1440" height="1024" fill="white"/>
</clipPath>
</defs>
</svg>
