<svg width="79" height="36" viewBox="0 0 79 36" fill="none" xmlns="http://www.w3.org/2000/svg">
<rect x="0.5" y="0.5" width="64" height="35" rx="9.5" fill="white" stroke="black"/>
<path d="M19.395 22.335L14.625 13.68V22.32C14.625 22.575 14.475 22.725 14.235 22.725H13.29C13.05 22.725 12.9 22.575 12.9 22.32V11.79C12.9 11.34 13.14 11.085 13.59 11.085H14.55C14.88 11.085 15.12 11.22 15.255 11.475L20.025 20.145V11.49C20.025 11.235 20.175 11.085 20.415 11.085H21.36C21.6 11.085 21.75 11.235 21.75 11.49V22.02C21.75 22.47 21.51 22.725 21.06 22.725H20.1C19.77 22.725 19.53 22.59 19.395 22.335ZM24.2394 11.085H31.1244C31.3794 11.085 31.4994 11.205 31.4994 11.46V12.36C31.4994 12.615 31.3794 12.735 31.1244 12.735H25.2744V15.9H30.8244C31.0794 15.9 31.1994 16.02 31.1994 16.275V17.175C31.1994 17.43 31.0794 17.55 30.8244 17.55H25.2744V21.075H31.4244C31.6794 21.075 31.7994 21.195 31.7994 21.45V22.35C31.7994 22.605 31.6794 22.725 31.4244 22.725H24.2394C23.7894 22.725 23.5494 22.47 23.5494 22.02V11.79C23.5494 11.34 23.7894 11.085 24.2394 11.085ZM36.4103 20.58L38.5703 11.535C38.6453 11.235 38.8103 11.085 39.1403 11.085H40.0403C40.3703 11.085 40.5353 11.235 40.6103 11.535L42.7703 20.58L44.7653 11.415C44.8103 11.19 44.9303 11.085 45.1703 11.085H46.1603C46.4003 11.085 46.5053 11.19 46.4603 11.415L44.0153 22.275C43.9553 22.545 43.7303 22.725 43.4453 22.725H42.2153C41.9303 22.725 41.7053 22.545 41.6453 22.275L39.5903 13.635L37.5353 22.275C37.4753 22.545 37.2503 22.725 36.9653 22.725H35.7353C35.4503 22.725 35.2253 22.545 35.1653 22.275L32.7203 11.415C32.6753 11.19 32.7803 11.085 33.0203 11.085H34.0103C34.2503 11.085 34.3703 11.19 34.4153 11.415L36.4103 20.58ZM47.9754 22.02C47.9754 21.765 48.1254 21.615 48.3654 21.615H49.3104C49.5504 21.615 49.7004 21.765 49.7004 22.02V23.37C49.7004 23.625 49.5504 23.775 49.3104 23.775H48.3654C48.1254 23.775 47.9754 23.625 47.9754 23.37V22.02ZM47.9754 10.44C47.9754 10.185 48.1254 10.035 48.3654 10.035H49.3104C49.5504 10.035 49.7004 10.185 49.7004 10.44V20.46C49.7004 20.715 49.5504 20.865 49.3104 20.865H48.3654C48.1254 20.865 47.9754 20.715 47.9754 20.46V10.44Z" fill="black"/>
<path d="M78 18L63.75 8.47372V27.5263L78 18Z" fill="white"/>
<path d="M64.5 8.76025L78 18.0003L64.5 27.6803" stroke="black" stroke-linecap="round"/>
</svg>
