<svg width="1440" height="1024" viewBox="0 0 1440 1024" fill="none" xmlns="http://www.w3.org/2000/svg">
<g clip-path="url(#clip0_7_41)">
<rect width="1440" height="1024" fill="url(#paint0_linear_7_41)"/>
<path d="M872.1 394.5C872.1 392.433 873.133 391.4 875.2 391.4H882.5C884.567 391.4 885.6 392.433 885.6 394.5V477.9C885.6 479.967 884.567 481 882.5 481H875.2C873.133 481 872.1 479.967 872.1 477.9V439.4H868C866.867 439.4 865.933 439.767 865.2 440.5C864.467 441.167 864.1 442.067 864.1 443.2V477.9C864.1 479.967 863.067 481 861 481H853.7C851.633 481 850.6 479.967 850.6 477.9V395.5C850.6 393.433 851.633 392.4 853.7 392.4H861C863.067 392.4 864.1 393.433 864.1 395.5V427.3C865.033 426.033 866.433 425.4 868.3 425.4H872.1V394.5ZM817.6 442C817.6 446.733 818.4 450.067 820 452C821.6 453.933 824.3 454.9 828.1 454.9C831.233 454.9 835 453.867 839.4 451.8C839.933 451.6 840.4 451.5 840.8 451.5C841.867 451.5 842.6 452.267 843 453.8L845 460.8C845.267 461.733 845.233 462.5 844.9 463.1C844.633 463.633 844 464.167 843 464.7C840.6 465.9 838.033 466.8 835.3 467.4C832.567 468.067 830.033 468.4 827.7 468.4C819.5 468.4 813.5 466.367 809.7 462.3C805.967 458.167 804.1 451.633 804.1 442.7C804.1 438.9 804.133 435.3 804.2 431.9C804.333 428.433 804.5 425.033 804.7 421.7C804.9 418.367 805.133 415 805.4 411.6C805.667 408.133 805.967 404.467 806.3 400.6C806.5 398.533 807.567 397.5 809.5 397.5H816.8C819 397.5 820 398.533 819.8 400.6C819.467 404.267 819.167 407.8 818.9 411.2C818.633 414.6 818.4 418 818.2 421.4C818 424.733 817.833 428.1 817.7 431.5C817.633 434.9 817.6 438.4 817.6 442ZM911.857 414C911.857 416.667 912.657 418.833 914.257 420.5C915.924 422.1 918.157 422.9 920.957 422.9C923.757 422.9 925.99 422.1 927.657 420.5C929.324 418.833 930.157 416.667 930.157 414C930.157 411.333 929.324 409.2 927.657 407.6C925.99 406 923.757 405.2 920.957 405.2C918.157 405.2 915.924 406 914.257 407.6C912.657 409.2 911.857 411.333 911.857 414ZM936.957 466C933.29 466 930.324 466.033 928.057 466.1C925.79 466.233 924.024 466.4 922.757 466.6C921.557 466.8 920.724 467.067 920.257 467.4C919.857 467.733 919.657 468.167 919.657 468.7C919.657 469.233 919.924 469.667 920.457 470C920.99 470.333 922.057 470.6 923.657 470.8C925.257 471 927.557 471.133 930.557 471.2C933.557 471.267 937.524 471.3 942.457 471.3C944.524 471.3 946.79 471.267 949.257 471.2C951.724 471.133 954.19 471 956.657 470.8C959.19 470.667 961.59 470.5 963.857 470.3C966.124 470.1 968.09 469.833 969.757 469.5C971.49 469.167 972.424 469.867 972.557 471.6L973.057 478.1C973.19 479.633 972.424 480.5 970.757 480.7C968.957 480.967 966.857 481.2 964.457 481.4C962.057 481.6 959.557 481.767 956.957 481.9C954.424 482.1 951.89 482.233 949.357 482.3C946.89 482.433 944.624 482.5 942.557 482.5C935.357 482.5 929.357 482.267 924.557 481.8C919.757 481.333 915.924 480.533 913.057 479.4C910.19 478.333 908.157 476.9 906.957 475.1C905.757 473.367 905.157 471.167 905.157 468.5C905.157 465.9 905.757 463.733 906.957 462C908.224 460.2 910.157 458.767 912.757 457.7C915.357 456.633 918.624 455.9 922.557 455.5C926.557 455.033 931.29 454.8 936.757 454.8C939.557 454.8 942.39 454.8 945.257 454.8C948.19 454.733 950.757 454.7 952.957 454.7C955.424 454.7 956.657 454 956.657 452.6C956.657 451.133 955.49 450.4 953.157 450.4C950.757 450.4 947.69 450.433 943.957 450.5C940.29 450.567 936.39 450.7 932.257 450.9C928.19 451.033 924.157 451.2 920.157 451.4C916.157 451.6 912.69 451.833 909.757 452.1C908.024 452.233 907.157 451.433 907.157 449.7V443.2C907.157 441.667 908.024 440.867 909.757 440.8C913.557 440.533 917.624 440.3 921.957 440.1C926.357 439.9 930.79 439.733 935.257 439.6C939.79 439.467 944.257 439.4 948.657 439.4C953.057 439.4 957.19 439.467 961.057 439.6C964.257 439.733 966.724 440.467 968.457 441.8C970.19 443.133 971.057 445 971.057 447.4C971.057 449.333 970.524 451.033 969.457 452.5C968.457 453.967 967.057 455.033 965.257 455.7H967.657C968.39 455.7 968.99 455.9 969.457 456.3C969.99 456.7 970.257 457.267 970.257 458V463.9C970.257 464.633 970.024 465.2 969.557 465.6C969.09 466.067 968.457 466.3 967.657 466.3C965.857 466.3 964.09 466.267 962.357 466.2C960.624 466.2 958.624 466.167 956.357 466.1C954.157 466.1 951.524 466.067 948.457 466C945.39 466 941.557 466 936.957 466ZM920.957 392.7C924.557 392.7 927.79 393.2 930.657 394.2C933.59 395.2 936.057 396.633 938.057 398.5C940.124 400.3 941.69 402.533 942.757 405.2C943.89 407.8 944.457 410.733 944.457 414C944.457 417.267 943.89 420.233 942.757 422.9C941.69 425.5 940.124 427.733 938.057 429.6C935.99 431.467 933.524 432.9 930.657 433.9C927.79 434.9 924.557 435.4 920.957 435.4C917.424 435.4 914.19 434.9 911.257 433.9C908.39 432.9 905.924 431.467 903.857 429.6C901.857 427.733 900.29 425.5 899.157 422.9C898.09 420.233 897.557 417.267 897.557 414C897.557 410.733 898.09 407.8 899.157 405.2C900.29 402.533 901.857 400.3 903.857 398.5C905.924 396.633 908.39 395.2 911.257 394.2C914.124 393.2 917.357 392.7 920.957 392.7ZM955.857 394.7C955.857 392.5 956.957 391.4 959.157 391.4H967.057C969.257 391.4 970.357 392.5 970.357 394.7V431.7C970.357 433.9 969.257 435 967.057 435H959.157C956.957 435 955.857 433.9 955.857 431.7V394.7ZM980.218 462.9C980.218 461.833 980.485 461.033 981.018 460.5C981.618 459.967 982.451 459.767 983.518 459.9C985.185 460.167 986.851 460.4 988.518 460.6C990.251 460.733 992.085 460.867 994.018 461C995.951 461.133 998.051 461.233 1000.32 461.3C1002.58 461.367 1005.08 461.4 1007.82 461.4C1010.22 461.4 1012.65 461.367 1015.12 461.3C1017.65 461.233 1020.05 461.133 1022.32 461C1024.58 460.867 1026.62 460.7 1028.42 460.5C1030.28 460.3 1031.75 460.1 1032.82 459.9C1033.88 459.7 1034.72 459.9 1035.32 460.5C1035.92 461.033 1036.22 461.833 1036.22 462.9V470.3C1036.22 471.967 1035.12 473.033 1032.92 473.5C1031.85 473.7 1030.38 473.9 1028.52 474.1C1026.72 474.3 1024.68 474.467 1022.42 474.6C1020.15 474.733 1017.75 474.833 1015.22 474.9C1012.75 474.967 1010.32 475 1007.92 475C1002.45 475 997.851 474.867 994.118 474.6C990.385 474.4 986.851 474.033 983.518 473.5C981.318 473.233 980.218 472.167 980.218 470.3V462.9ZM1055.32 477.7C1055.32 479.9 1054.22 481 1052.02 481H1044.12C1041.92 481 1040.82 479.9 1040.82 477.7V394.7C1040.82 392.5 1041.92 391.4 1044.12 391.4H1052.02C1054.22 391.4 1055.32 392.5 1055.32 394.7V477.7ZM984.518 422.1C984.518 417.9 985.051 414.133 986.118 410.8C987.185 407.4 988.718 404.5 990.718 402.1C992.785 399.7 995.251 397.867 998.118 396.6C1001.05 395.333 1004.35 394.7 1008.02 394.7C1011.68 394.7 1014.95 395.333 1017.82 396.6C1020.75 397.867 1023.22 399.7 1025.22 402.1C1027.28 404.5 1028.85 407.4 1029.92 410.8C1030.98 414.133 1031.52 417.9 1031.52 422.1C1031.52 426.3 1030.98 430.1 1029.92 433.5C1028.85 436.9 1027.28 439.8 1025.22 442.2C1023.22 444.533 1020.75 446.367 1017.82 447.7C1014.95 448.967 1011.68 449.6 1008.02 449.6C1004.35 449.6 1001.05 448.967 998.118 447.7C995.251 446.367 992.785 444.533 990.718 442.2C988.718 439.8 987.185 436.9 986.118 433.5C985.051 430.1 984.518 426.3 984.518 422.1ZM1008.02 436.1C1010.88 436.1 1013.12 434.833 1014.72 432.3C1016.38 429.7 1017.22 426.3 1017.22 422.1C1017.22 417.9 1016.38 414.533 1014.72 412C1013.12 409.467 1010.88 408.2 1008.02 408.2C1005.15 408.2 1002.88 409.467 1001.22 412C999.618 414.533 998.818 417.9 998.818 422.1C998.818 426.3 999.618 429.7 1001.22 432.3C1002.88 434.833 1005.15 436.1 1008.02 436.1ZM1098.71 400.6C1098.91 398.667 1100.04 397.7 1102.11 397.7H1109.91C1111.04 397.7 1111.91 398 1112.51 398.6C1113.11 399.2 1113.34 400 1113.21 401C1112.81 404.667 1112.47 408.1 1112.21 411.3C1111.94 414.433 1111.71 417.533 1111.51 420.6C1111.37 423.6 1111.24 426.7 1111.11 429.9C1111.04 433.033 1111.01 436.4 1111.01 440C1111.01 445.4 1112.04 449.233 1114.11 451.5C1116.17 453.767 1119.31 454.9 1123.51 454.9C1125.24 454.9 1127.44 454.6 1130.11 454C1132.77 453.333 1135.37 452.5 1137.91 451.5C1138.31 451.3 1138.71 451.2 1139.11 451.2C1140.11 451.2 1140.87 452.067 1141.41 453.8L1143.41 460.8C1143.74 461.8 1143.67 462.6 1143.21 463.2C1142.81 463.733 1142.04 464.233 1140.91 464.7C1137.91 465.833 1134.77 466.733 1131.51 467.4C1128.24 468.067 1125.44 468.4 1123.11 468.4C1114.17 468.4 1107.51 466.2 1103.11 461.8C1098.71 457.333 1096.51 450.3 1096.51 440.7C1096.51 436.9 1096.54 433.4 1096.61 430.2C1096.74 427 1096.87 423.867 1097.01 420.8C1097.21 417.667 1097.44 414.5 1097.71 411.3C1097.97 408.033 1098.31 404.467 1098.71 400.6ZM1151.81 394.7C1151.81 392.5 1152.91 391.4 1155.11 391.4H1163.01C1165.21 391.4 1166.31 392.5 1166.31 394.7V428.2C1166.84 427.333 1167.64 426.667 1168.71 426.2C1169.84 425.667 1171.11 425.4 1172.51 425.4H1175.71C1177.77 425.4 1178.81 426.433 1178.81 428.5V436.3C1178.81 438.367 1177.77 439.4 1175.71 439.4H1172.11C1170.37 439.4 1168.97 439.933 1167.91 441C1166.84 442 1166.31 443.3 1166.31 444.9V477.7C1166.31 479.9 1165.21 481 1163.01 481H1155.11C1152.91 481 1151.81 479.9 1151.81 477.7V394.7ZM1224.27 439C1223.8 449.667 1221.94 457.4 1218.67 462.2C1215.4 467 1210.47 469.4 1203.87 469.4C1200.27 469.4 1197.17 468.7 1194.57 467.3C1192.04 465.9 1189.94 463.733 1188.27 460.8C1186.67 457.867 1185.47 454.1 1184.67 449.5C1183.87 444.9 1183.47 439.4 1183.47 433C1183.47 420.267 1185.07 411.033 1188.27 405.3C1191.54 399.567 1196.74 396.7 1203.87 396.7C1207.07 396.7 1209.87 397.267 1212.27 398.4C1214.67 399.467 1216.67 401.167 1218.27 403.5C1219.94 405.767 1221.24 408.7 1222.17 412.3C1223.17 415.833 1223.84 420.067 1224.17 425H1230.37C1232.44 425 1233.47 424.033 1233.47 422.1V395.5C1233.47 393.433 1234.5 392.4 1236.57 392.4H1243.87C1245.94 392.4 1246.97 393.433 1246.97 395.5V477.9C1246.97 479.967 1245.94 481 1243.87 481H1236.57C1234.5 481 1233.47 479.967 1233.47 477.9V437.5C1232.67 438.5 1231.57 439 1230.17 439H1224.27ZM1252.47 394.5C1252.47 392.433 1253.5 391.4 1255.57 391.4H1262.87C1264.94 391.4 1265.97 392.433 1265.97 394.5V477.9C1265.97 479.967 1264.94 481 1262.87 481H1255.57C1253.5 481 1252.47 479.967 1252.47 477.9V394.5ZM1203.87 410.2C1202.54 410.2 1201.4 410.6 1200.47 411.4C1199.6 412.2 1198.87 413.5 1198.27 415.3C1197.74 417.1 1197.34 419.467 1197.07 422.4C1196.87 425.267 1196.77 428.8 1196.77 433C1196.77 437.2 1196.87 440.767 1197.07 443.7C1197.34 446.633 1197.74 449 1198.27 450.8C1198.87 452.6 1199.6 453.9 1200.47 454.7C1201.4 455.5 1202.54 455.9 1203.87 455.9C1205.27 455.9 1206.4 455.5 1207.27 454.7C1208.2 453.9 1208.94 452.6 1209.47 450.8C1210.07 449 1210.47 446.667 1210.67 443.8C1210.94 440.867 1211.07 437.267 1211.07 433C1211.07 428.733 1210.94 425.167 1210.67 422.3C1210.47 419.367 1210.07 417 1209.47 415.2C1208.94 413.4 1208.2 412.133 1207.27 411.4C1206.4 410.6 1205.27 410.2 1203.87 410.2ZM1303.33 419.4C1303.33 416.133 1302.79 413.967 1301.73 412.9C1300.66 411.767 1298.96 411.2 1296.63 411.2C1294.23 411.2 1291.56 411.4 1288.63 411.8C1285.69 412.2 1282.83 412.6 1280.03 413C1279.09 413.133 1278.33 412.933 1277.73 412.4C1277.19 411.8 1276.93 410.967 1276.93 409.9V402.6C1276.93 401.667 1277.16 401 1277.63 400.6C1278.09 400.133 1278.89 399.767 1280.03 399.5C1282.83 398.833 1285.73 398.367 1288.73 398.1C1291.73 397.833 1294.76 397.7 1297.83 397.7C1301.16 397.7 1304.03 398.067 1306.43 398.8C1308.83 399.467 1310.79 400.6 1312.33 402.2C1313.86 403.8 1314.99 405.867 1315.73 408.4C1316.53 410.933 1316.93 414.033 1316.93 417.7C1316.93 418.9 1316.93 420.133 1316.93 421.4C1316.93 422.6 1316.89 423.8 1316.83 425H1323.83C1325.89 425 1326.93 424.033 1326.93 422.1V395.5C1326.93 393.433 1327.96 392.4 1330.03 392.4H1337.33C1339.39 392.4 1340.43 393.433 1340.43 395.5V477.9C1340.43 479.967 1339.39 481 1337.33 481H1330.03C1327.96 481 1326.93 479.967 1326.93 477.9V437.5C1326.13 438.5 1325.03 439 1323.63 439H1316.13C1315.79 443.333 1315.39 447.633 1314.93 451.9C1314.46 456.1 1313.89 460.3 1313.23 464.5C1312.96 466.433 1311.86 467.4 1309.93 467.4H1302.63C1300.43 467.4 1299.46 466.367 1299.73 464.3C1300.86 456.033 1301.73 448.2 1302.33 440.8C1302.99 433.4 1303.33 426.267 1303.33 419.4ZM1345.93 394.5C1345.93 392.433 1346.96 391.4 1349.03 391.4H1356.33C1358.39 391.4 1359.43 392.433 1359.43 394.5V477.9C1359.43 479.967 1358.39 481 1356.33 481H1349.03C1346.96 481 1345.93 479.967 1345.93 477.9V394.5Z" fill="white"/>
<g filter="url(#filter0_f_7_41)">
<path d="M116 354.5C116 354.5 105.198 355.563 100.475 358.28C95.5029 361.14 93.5 368 93.5 368C93.5 368 91.16 361.131 86.075 358.28C81.4129 355.666 71 354.5 71 354.5C71 354.5 81.3843 353.634 86.075 351.125C91.4496 348.251 93.5 341 93.5 341C93.5 341 95.2142 348.237 100.475 351.125C105.232 353.737 116 354.5 116 354.5Z" fill="#D9D9D9"/>
</g>
<g filter="url(#filter1_f_7_41)">
<path d="M661 738.5C661 738.5 650.198 740.666 645.475 746.2C640.503 752.026 638.5 766 638.5 766C638.5 766 636.16 752.007 631.075 746.2C626.413 740.876 616 738.5 616 738.5C616 738.5 626.384 736.735 631.075 731.625C636.45 725.77 638.5 711 638.5 711C638.5 711 640.214 725.741 645.475 731.625C650.232 736.946 661 738.5 661 738.5Z" fill="#D9D9D9"/>
</g>
<g filter="url(#filter2_f_7_41)">
<path d="M684 217.5C684 217.5 673.198 219.666 668.475 225.2C663.503 231.026 661.5 245 661.5 245C661.5 245 659.16 231.007 654.075 225.2C649.413 219.876 639 217.5 639 217.5C639 217.5 649.384 215.735 654.075 210.625C659.45 204.77 661.5 190 661.5 190C661.5 190 663.214 204.741 668.475 210.625C673.232 215.946 684 217.5 684 217.5Z" fill="#D9D9D9"/>
</g>
<g filter="url(#filter3_f_7_41)">
<circle cx="590" cy="403" r="109" fill="#D9D9D9"/>
</g>
<g filter="url(#filter4_f_7_41)">
<circle cx="337.5" cy="579.5" r="195.5" fill="#D9D9D9"/>
</g>
<g filter="url(#filter5_d_7_41)">
<path d="M192 410.332L403.843 355V532.063L192 607.947V410.332Z" fill="#D9D9D9"/>
<path d="M192 410.332L403.843 355V532.063L192 607.947V410.332Z" fill="#FEECDD"/>
<path d="M615.686 410.332L403.843 355V532.063L615.686 607.947V410.332Z" fill="url(#paint1_linear_7_41)"/>
<path d="M403.843 531.99L192 607.957L403.843 677.435L615.686 607.957L403.843 531.99Z" fill="#EBD3C0"/>
</g>
</g>
<defs>
<filter id="filter0_f_7_41" x="60.2" y="330.2" width="66.6" height="48.6" filterUnits="userSpaceOnUse" color-interpolation-filters="sRGB">
<feFlood flood-opacity="0" result="BackgroundImageFix"/>
<feBlend mode="normal" in="SourceGraphic" in2="BackgroundImageFix" result="shape"/>
<feGaussianBlur stdDeviation="5.4" result="effect1_foregroundBlur_7_41"/>
</filter>
<filter id="filter1_f_7_41" x="599.2" y="694.2" width="78.6" height="88.6" filterUnits="userSpaceOnUse" color-interpolation-filters="sRGB">
<feFlood flood-opacity="0" result="BackgroundImageFix"/>
<feBlend mode="normal" in="SourceGraphic" in2="BackgroundImageFix" result="shape"/>
<feGaussianBlur stdDeviation="8.4" result="effect1_foregroundBlur_7_41"/>
</filter>
<filter id="filter2_f_7_41" x="622.2" y="173.2" width="78.6" height="88.6" filterUnits="userSpaceOnUse" color-interpolation-filters="sRGB">
<feFlood flood-opacity="0" result="BackgroundImageFix"/>
<feBlend mode="normal" in="SourceGraphic" in2="BackgroundImageFix" result="shape"/>
<feGaussianBlur stdDeviation="8.4" result="effect1_foregroundBlur_7_41"/>
</filter>
<filter id="filter3_f_7_41" x="299.5" y="112.5" width="581" height="581" filterUnits="userSpaceOnUse" color-interpolation-filters="sRGB">
<feFlood flood-opacity="0" result="BackgroundImageFix"/>
<feBlend mode="normal" in="SourceGraphic" in2="BackgroundImageFix" result="shape"/>
<feGaussianBlur stdDeviation="90.75" result="effect1_foregroundBlur_7_41"/>
</filter>
<filter id="filter4_f_7_41" x="-39.5" y="202.5" width="754" height="754" filterUnits="userSpaceOnUse" color-interpolation-filters="sRGB">
<feFlood flood-opacity="0" result="BackgroundImageFix"/>
<feBlend mode="normal" in="SourceGraphic" in2="BackgroundImageFix" result="shape"/>
<feGaussianBlur stdDeviation="90.75" result="effect1_foregroundBlur_7_41"/>
</filter>
<filter id="filter5_d_7_41" x="192" y="355" width="444.686" height="353.435" filterUnits="userSpaceOnUse" color-interpolation-filters="sRGB">
<feFlood flood-opacity="0" result="BackgroundImageFix"/>
<feColorMatrix in="SourceAlpha" type="matrix" values="0 0 0 0 0 0 0 0 0 0 0 0 0 0 0 0 0 0 127 0" result="hardAlpha"/>
<feOffset dx="17" dy="27"/>
<feGaussianBlur stdDeviation="2"/>
<feComposite in2="hardAlpha" operator="out"/>
<feColorMatrix type="matrix" values="0 0 0 0 0 0 0 0 0 0 0 0 0 0 0 0 0 0 0.25 0"/>
<feBlend mode="normal" in2="BackgroundImageFix" result="effect1_dropShadow_7_41"/>
<feBlend mode="normal" in="SourceGraphic" in2="effect1_dropShadow_7_41" result="shape"/>
</filter>
<linearGradient id="paint0_linear_7_41" x1="298.5" y1="2.17638e-06" x2="769.5" y2="994.5" gradientUnits="userSpaceOnUse">
<stop stop-color="#030056"/>
<stop offset="0.964433" stop-color="#462855"/>
</linearGradient>
<linearGradient id="paint1_linear_7_41" x1="615.686" y1="380.24" x2="231.662" y2="646.634" gradientUnits="userSpaceOnUse">
<stop stop-color="#FEECDD"/>
<stop offset="0.63344" stop-color="#EBD3C0"/>
</linearGradient>
<clipPath id="clip0_7_41">
<rect width="1440" height="1024" fill="white"/>
</clipPath>
</defs>
</svg>
