<svg width="1440" height="1024" viewBox="0 0 1440 1024" fill="none" xmlns="http://www.w3.org/2000/svg">
<rect width="1440" height="1024" fill="url(#paint0_linear_1_3922)"/>
<g filter="url(#filter0_d_1_3922)">
<rect x="277" y="152" width="885" height="720" rx="50" fill="#F9F9F9" fill-opacity="0.2" shape-rendering="crispEdges"/>
</g>
<path d="M547.582 258.5C547.582 264.7 546.682 269.25 544.882 272.15C543.082 275.017 540.232 276.45 536.332 276.45C532.465 276.45 529.632 275.017 527.832 272.15C526.032 269.25 525.132 264.7 525.132 258.5C525.132 252.3 526.032 247.767 527.832 244.9C529.632 242.033 532.465 240.6 536.332 240.6C540.232 240.6 543.082 242.033 544.882 244.9C546.682 247.767 547.582 252.3 547.582 258.5ZM536.332 246.1C534.432 246.1 533.049 247.067 532.182 249C531.315 250.933 530.882 254.1 530.882 258.5C530.882 262.9 531.315 266.083 532.182 268.05C533.049 269.983 534.432 270.95 536.332 270.95C538.265 270.95 539.665 269.983 540.532 268.05C541.399 266.117 541.832 262.933 541.832 258.5C541.832 254.1 541.399 250.933 540.532 249C539.665 247.067 538.265 246.1 536.332 246.1ZM554.282 239.3C554.282 238.4 554.715 237.95 555.582 237.95H558.732C559.599 237.95 560.032 238.4 560.032 239.3V280.9C560.032 281.8 559.599 282.25 558.732 282.25H555.582C554.715 282.25 554.282 281.8 554.282 280.9V239.3ZM567.386 246.6C566.553 246.6 566.136 246.183 566.136 245.35V242.35C566.136 241.517 566.553 241.1 567.386 241.1H585.436C586.269 241.1 586.686 241.517 586.686 242.35V245.35C586.686 246.183 586.269 246.6 585.436 246.6H579.136V259.9C579.136 262.933 579.736 265.3 580.936 267C582.169 268.7 583.753 269.683 585.686 269.95C586.119 270.017 586.436 270.133 586.636 270.3C586.836 270.467 586.936 270.767 586.936 271.2V274.2C586.936 275.133 586.519 275.55 585.686 275.45C583.486 275.183 581.553 274.417 579.886 273.15C578.253 271.85 577.086 270.133 576.386 268C575.686 270.133 574.519 271.85 572.886 273.15C571.253 274.417 569.336 275.183 567.136 275.45C566.303 275.55 565.886 275.133 565.886 274.2V271.2C565.886 270.767 565.986 270.467 566.186 270.3C566.386 270.133 566.703 270.017 567.136 269.95C569.069 269.683 570.636 268.7 571.836 267C573.036 265.3 573.636 262.933 573.636 259.9V246.6H567.386ZM590.136 255C590.703 255 591.086 254.9 591.286 254.7C591.519 254.5 591.636 254.15 591.636 253.65V239.7C591.636 238.867 592.053 238.45 592.886 238.45H595.886C596.719 238.45 597.136 238.867 597.136 239.7V281C597.136 281.833 596.719 282.25 595.886 282.25H592.886C592.053 282.25 591.636 281.833 591.636 281V259.6C591.469 259.867 591.236 260.083 590.936 260.25C590.636 260.417 590.303 260.5 589.936 260.5H585.586C584.753 260.5 584.336 260.083 584.336 259.25V256.25C584.336 255.417 584.753 255 585.586 255H590.136ZM605.886 281C605.886 281.833 605.469 282.25 604.636 282.25H601.636C600.803 282.25 600.386 281.833 600.386 281V239.2C600.386 238.367 600.803 237.95 601.636 237.95H604.636C605.469 237.95 605.886 238.367 605.886 239.2V281ZM637.902 266.4C637.568 267.567 637.052 268.667 636.352 269.7C635.685 270.733 634.885 271.65 633.952 272.45C633.018 273.25 631.985 273.917 630.852 274.45C629.752 274.983 628.602 275.317 627.402 275.45C626.568 275.55 626.152 275.167 626.152 274.3V271.3C626.152 270.5 626.535 270.05 627.302 269.95C628.368 269.817 629.368 269.417 630.302 268.75C631.235 268.083 632.052 267.233 632.752 266.2C633.452 265.167 634.002 263.983 634.402 262.65C634.802 261.317 635.002 259.933 635.002 258.5V242.45C635.002 241.55 635.435 241.1 636.302 241.1H639.452C640.318 241.1 640.752 241.55 640.752 242.45V258.5C640.752 259.933 640.952 261.317 641.352 262.65C641.785 263.983 642.352 265.167 643.052 266.2C643.752 267.233 644.568 268.083 645.502 268.75C646.435 269.417 647.418 269.817 648.452 269.95C649.218 270.05 649.602 270.5 649.602 271.3V274.3C649.602 275.167 649.185 275.55 648.352 275.45C647.152 275.317 645.985 274.983 644.852 274.45C643.752 273.917 642.735 273.25 641.802 272.45C640.868 271.65 640.052 270.733 639.352 269.7C638.685 268.667 638.202 267.567 637.902 266.4ZM655.552 239.3C655.552 238.4 655.985 237.95 656.852 237.95H660.002C660.868 237.95 661.302 238.4 661.302 239.3V280.9C661.302 281.8 660.868 282.25 660.002 282.25H656.852C655.985 282.25 655.552 281.8 655.552 280.9V239.3ZM669.155 244.35C668.322 244.35 667.905 243.933 667.905 243.1V240.35C667.905 239.517 668.322 239.1 669.155 239.1H689.655C690.489 239.1 690.905 239.517 690.905 240.35V243.1C690.905 243.933 690.489 244.35 689.655 244.35H682.255V246.4C682.255 247.8 682.439 249.1 682.805 250.3C683.205 251.467 683.739 252.5 684.405 253.4C685.072 254.267 685.872 254.95 686.805 255.45C687.739 255.95 688.755 256.2 689.855 256.2C690.689 256.2 691.105 256.617 691.105 257.45V260.2C691.105 261.033 690.689 261.45 689.855 261.45C688.555 261.45 687.339 261.25 686.205 260.85C685.105 260.45 684.105 259.917 683.205 259.25C682.305 258.55 681.522 257.767 680.855 256.9C680.222 256 679.739 255.05 679.405 254.05C679.072 255.05 678.572 256 677.905 256.9C677.272 257.767 676.505 258.55 675.605 259.25C674.705 259.917 673.689 260.45 672.555 260.85C671.422 261.25 670.205 261.45 668.905 261.45C668.072 261.45 667.655 261.033 667.655 260.2V257.45C667.655 256.617 668.072 256.2 668.905 256.2C670.005 256.2 671.022 255.95 671.955 255.45C672.889 254.95 673.689 254.267 674.355 253.4C675.022 252.5 675.539 251.467 675.905 250.3C676.305 249.1 676.505 247.8 676.505 246.4V244.35H669.155ZM701.405 281.2C701.305 282.067 700.822 282.5 699.955 282.5H696.955C696.522 282.5 696.172 282.367 695.905 282.1C695.672 281.867 695.589 281.55 695.655 281.15C695.722 280.717 695.755 280.233 695.755 279.7C695.789 279.167 695.822 278.617 695.855 278.05C695.889 277.483 695.905 276.917 695.905 276.35C695.905 275.783 695.905 275.25 695.905 274.75C695.905 273.15 695.572 272.067 694.905 271.5C694.272 270.9 693.072 270.6 691.305 270.6C687.972 270.6 684.839 270.683 681.905 270.85C679.005 270.983 676.022 271.183 672.955 271.45C672.122 271.55 671.705 271.15 671.705 270.25V267.5C671.705 266.733 672.122 266.3 672.955 266.2C675.622 265.933 678.505 265.733 681.605 265.6C684.705 265.433 688.139 265.35 691.905 265.35C695.372 265.35 697.855 265.967 699.355 267.2C700.889 268.433 701.655 270.467 701.655 273.3C701.655 275 701.639 276.517 701.605 277.85C701.572 279.217 701.505 280.333 701.405 281.2ZM701.805 260.4C701.805 261.3 701.372 261.75 700.505 261.75H697.355C696.489 261.75 696.055 261.3 696.055 260.4V239.3C696.055 238.4 696.489 237.95 697.355 237.95H700.505C701.372 237.95 701.805 238.4 701.805 239.3V247.45C702.172 246.783 702.855 246.45 703.855 246.45H706.805C707.639 246.45 708.055 246.867 708.055 247.7V250.45C708.055 251.283 707.639 251.7 706.805 251.7H703.555C702.389 251.7 701.805 252.233 701.805 253.3V260.4ZM750.661 281C750.661 281.833 750.245 282.25 749.411 282.25H746.411C745.578 282.25 745.161 281.833 745.161 281V260.95H742.161C741.595 260.95 741.195 261.05 740.961 261.25C740.761 261.45 740.661 261.8 740.661 262.3V281C740.661 281.833 740.245 282.25 739.411 282.25H736.411C735.578 282.25 735.161 281.833 735.161 281V239.7C735.161 238.867 735.578 238.45 736.411 238.45H739.411C740.245 238.45 740.661 238.867 740.661 239.7V256.35C741.028 255.75 741.595 255.45 742.361 255.45H745.161V239.2C745.161 238.367 745.578 237.95 746.411 237.95H749.411C750.245 237.95 750.661 238.367 750.661 239.2V281ZM730.261 263.1C730.261 267.1 729.445 270.167 727.811 272.3C726.211 274.4 723.878 275.45 720.811 275.45C717.778 275.45 715.445 274.4 713.811 272.3C712.211 270.167 711.411 267.1 711.411 263.1C711.411 259.133 712.211 256.1 713.811 254C715.445 251.867 717.778 250.8 720.811 250.8C723.878 250.8 726.211 251.85 727.811 253.95C729.445 256.05 730.261 259.1 730.261 263.1ZM730.511 242.1C731.345 242.1 731.761 242.517 731.761 243.35V246.35C731.761 247.183 731.345 247.6 730.511 247.6H711.161C710.328 247.6 709.911 247.183 709.911 246.35V243.35C709.911 242.517 710.328 242.1 711.161 242.1H718.861C718.361 241.833 718.111 241.383 718.111 240.75V238C718.111 237.167 718.528 236.75 719.361 236.75H722.361C723.195 236.75 723.611 237.167 723.611 238V241.2C723.611 241.8 723.961 242.1 724.661 242.1H730.511ZM720.811 256.3C718.211 256.3 716.911 258.567 716.911 263.1C716.911 267.667 718.211 269.95 720.811 269.95C723.445 269.95 724.761 267.667 724.761 263.1C724.761 258.567 723.445 256.3 720.811 256.3ZM794.363 260.8C793.463 260.9 792.347 260.983 791.013 261.05C789.713 261.117 788.28 261.167 786.713 261.2C785.18 261.233 783.547 261.25 781.813 261.25C780.08 261.25 778.33 261.25 776.563 261.25C771.963 261.217 768.247 261.167 765.413 261.1C762.58 261.033 760.413 260.917 758.913 260.75C758.147 260.65 757.763 260.25 757.763 259.55V257.1C757.763 256.3 758.18 255.933 759.013 256C759.98 256.067 761.08 256.133 762.313 256.2C763.58 256.233 764.913 256.283 766.313 256.35C767.713 256.383 769.113 256.417 770.513 256.45C771.947 256.483 773.28 256.5 774.513 256.5C774.013 256.233 773.763 255.783 773.763 255.15V253.7H767.063C763.93 253.7 762.247 252.317 762.013 249.55L761.263 240.35C761.197 239.483 761.63 239.05 762.563 239.05H765.713C766.513 239.05 766.947 239.483 767.013 240.35L767.113 241.4H786.113L786.213 240.35C786.28 239.483 786.713 239.05 787.513 239.05H790.663C791.597 239.05 792.03 239.483 791.963 240.35L791.213 249.55C790.98 252.317 789.297 253.7 786.163 253.7H779.513V255.2C779.513 256 779.93 256.417 780.763 256.45C781.73 256.483 782.797 256.5 783.963 256.5C785.163 256.5 786.363 256.483 787.563 256.45C788.797 256.417 789.997 256.367 791.163 256.3C792.33 256.233 793.363 256.15 794.263 256.05C795.097 255.95 795.513 256.317 795.513 257.15V259.55C795.513 260.283 795.13 260.7 794.363 260.8ZM792.613 282.15C791.713 282.283 790.68 282.4 789.513 282.5C788.347 282.6 787.147 282.683 785.913 282.75C784.68 282.85 783.48 282.917 782.313 282.95C781.147 282.983 780.08 283 779.113 283C775.48 283 772.497 282.9 770.163 282.7C767.83 282.533 765.997 282.217 764.663 281.75C763.33 281.283 762.413 280.633 761.913 279.8C761.413 279 761.163 277.95 761.163 276.65C761.163 275.45 761.38 274.467 761.813 273.7C762.28 272.9 763.08 272.267 764.213 271.8C765.38 271.3 766.93 270.967 768.863 270.8C770.797 270.6 773.247 270.5 776.213 270.5C777.58 270.5 778.963 270.517 780.363 270.55C781.763 270.583 783.113 270.567 784.413 270.5C785.347 270.467 785.997 270.35 786.363 270.15C786.73 269.95 786.913 269.583 786.913 269.05C786.913 268.483 786.73 268.083 786.363 267.85C786.03 267.617 785.43 267.5 784.563 267.5C783.297 267.5 781.73 267.517 779.863 267.55C778.03 267.583 776.113 267.633 774.113 267.7C772.113 267.767 770.147 267.85 768.213 267.95C766.313 268.017 764.663 268.1 763.263 268.2C762.53 268.233 762.163 267.85 762.163 267.05V264.8C762.163 264.067 762.53 263.683 763.263 263.65C765.163 263.517 767.213 263.417 769.413 263.35C771.613 263.25 773.813 263.183 776.013 263.15C778.247 263.083 780.397 263.05 782.463 263.05C784.563 263.017 786.413 263.017 788.013 263.05C789.713 263.117 790.897 263.433 791.563 264C792.263 264.567 792.613 265.467 792.613 266.7C792.613 267.7 792.313 268.583 791.713 269.35C791.147 270.083 790.363 270.617 789.363 270.95H791.163C791.863 270.95 792.213 271.317 792.213 272.05V274.1C792.213 274.9 791.863 275.267 791.163 275.2C789.597 275.133 787.58 275.083 785.113 275.05C782.68 275.017 779.747 275 776.313 275C774.213 275 772.547 275.017 771.313 275.05C770.08 275.117 769.13 275.2 768.463 275.3C767.83 275.433 767.413 275.617 767.213 275.85C767.013 276.083 766.913 276.383 766.913 276.75C766.913 277.183 767.063 277.517 767.363 277.75C767.697 277.983 768.297 278.15 769.163 278.25C770.063 278.383 771.297 278.45 772.863 278.45C774.463 278.483 776.53 278.5 779.063 278.5C779.997 278.5 781.03 278.483 782.163 278.45C783.297 278.417 784.447 278.35 785.613 278.25C786.813 278.183 787.98 278.1 789.113 278C790.28 277.9 791.33 277.783 792.263 277.65C792.997 277.55 793.397 277.883 793.463 278.65L793.613 280.9C793.647 281.633 793.313 282.05 792.613 282.15ZM767.613 247.5C767.68 248.1 767.83 248.517 768.063 248.75C768.33 248.95 768.797 249.05 769.463 249.05H783.763C784.43 249.05 784.897 248.95 785.163 248.75C785.43 248.517 785.597 248.1 785.663 247.5L785.763 246.05H767.513L767.613 247.5ZM811.769 274.25C811.669 275.05 811.202 275.45 810.369 275.45H807.269C806.836 275.45 806.502 275.317 806.269 275.05C806.036 274.817 805.952 274.5 806.019 274.1C806.586 269.8 807.036 265.5 807.369 261.2C807.702 256.9 807.869 253 807.869 249.5C807.869 247.567 807.152 246.6 805.719 246.6C804.752 246.6 803.336 246.917 801.469 247.55C801.102 247.683 800.786 247.617 800.519 247.35C800.286 247.083 800.169 246.717 800.169 246.25V243.5C800.169 242.8 800.586 242.317 801.419 242.05C802.286 241.75 803.186 241.517 804.119 241.35C805.052 241.183 805.919 241.1 806.719 241.1C809.086 241.1 810.836 241.75 811.969 243.05C812.069 242.683 812.419 242.383 813.019 242.15C813.652 241.883 814.352 241.683 815.119 241.55C815.886 241.383 816.636 241.267 817.369 241.2C818.102 241.133 818.619 241.1 818.919 241.1C823.586 241.1 825.919 243.733 825.919 249C825.919 251.033 825.886 253.017 825.819 254.95C825.752 256.883 825.636 258.867 825.469 260.9C825.336 262.933 825.152 265.05 824.919 267.25C824.686 269.417 824.402 271.75 824.069 274.25C823.969 275.05 823.502 275.45 822.669 275.45H819.569C819.136 275.45 818.802 275.317 818.569 275.05C818.336 274.817 818.252 274.5 818.319 274.1C818.919 269.8 819.369 265.5 819.669 261.2C820.002 256.9 820.169 253 820.169 249.5C820.169 247.567 819.419 246.6 817.919 246.6C816.719 246.6 815.269 246.883 813.569 247.45C813.602 247.717 813.619 247.983 813.619 248.25C813.619 248.483 813.619 248.733 813.619 249C813.619 251.033 813.586 253.017 813.519 254.95C813.452 256.883 813.336 258.867 813.169 260.9C813.036 262.933 812.852 265.05 812.619 267.25C812.386 269.417 812.102 271.75 811.769 274.25ZM835.569 280.9C835.569 281.8 835.136 282.25 834.269 282.25H831.119C830.252 282.25 829.819 281.8 829.819 280.9V239.3C829.819 238.4 830.252 237.95 831.119 237.95H834.269C835.136 237.95 835.569 238.4 835.569 239.3V256.45C835.936 255.783 836.619 255.45 837.619 255.45H839.569C840.402 255.45 840.819 255.867 840.819 256.7V259.7C840.819 260.533 840.402 260.95 839.569 260.95H837.319C836.152 260.95 835.569 261.483 835.569 262.55V280.9ZM868.775 265.15C867.242 265.417 865.658 265.55 864.025 265.55C862.092 265.55 860.258 265.367 858.525 265V271.4C858.525 272.433 859.108 272.95 860.275 272.95C860.875 272.95 861.592 272.95 862.425 272.95C863.258 272.95 864.108 272.95 864.975 272.95C865.875 272.95 866.775 272.95 867.675 272.95C868.575 272.917 869.392 272.9 870.125 272.9C869.725 272.733 869.392 272.467 869.125 272.1C868.892 271.7 868.775 271.233 868.775 270.7V265.15ZM864.025 260.2C867.258 260.2 869.708 259.567 871.375 258.3C873.042 257 873.875 255.167 873.875 252.8C873.875 250.4 873.058 248.567 871.425 247.3C869.792 246.033 867.325 245.4 864.025 245.4C860.725 245.4 858.258 246.033 856.625 247.3C854.992 248.567 854.175 250.4 854.175 252.8C854.175 255.167 855.008 257 856.675 258.3C858.342 259.567 860.792 260.2 864.025 260.2ZM848.425 252.8C848.425 248.733 849.775 245.6 852.475 243.4C855.208 241.167 859.058 240.05 864.025 240.05C868.992 240.05 872.825 241.167 875.525 243.4C878.258 245.6 879.625 248.733 879.625 252.8C879.625 255.1 879.192 257.1 878.325 258.8C877.458 260.5 876.192 261.9 874.525 263V271.1C874.525 272.133 875.108 272.65 876.275 272.65C876.642 272.65 877.058 272.633 877.525 272.6C877.992 272.567 878.458 272.533 878.925 272.5C879.392 272.433 879.825 272.383 880.225 272.35C880.625 272.283 880.942 272.233 881.175 272.2C882.075 272.1 882.525 272.5 882.525 273.4V276.15C882.525 276.917 882.108 277.367 881.275 277.5C880.442 277.633 879.408 277.75 878.175 277.85C876.942 277.95 875.558 278.033 874.025 278.1C872.492 278.2 870.842 278.267 869.075 278.3C867.308 278.333 865.475 278.35 863.575 278.35C855.642 278.35 849.792 278.05 846.025 277.45C845.192 277.317 844.775 276.867 844.775 276.1V273.35C844.775 272.45 845.225 272.05 846.125 272.15C847.525 272.35 848.858 272.533 850.125 272.7C851.392 272.867 852.658 272.983 853.925 273.05C853.158 272.617 852.775 271.917 852.775 270.95V263C852.775 262.767 852.792 262.6 852.825 262.5C851.392 261.433 850.292 260.083 849.525 258.45C848.792 256.817 848.425 254.933 848.425 252.8ZM897.881 277.65C897.881 276.75 898.314 276.3 899.181 276.3H902.331C903.198 276.3 903.631 276.75 903.631 277.65V282.15C903.631 283.05 903.198 283.5 902.331 283.5H899.181C898.314 283.5 897.881 283.05 897.881 282.15V277.65ZM887.881 249.8C887.881 245.7 889.014 242.533 891.281 240.3C893.581 238.067 896.898 236.95 901.231 236.95C905.664 236.95 909.014 237.983 911.281 240.05C913.548 242.117 914.681 245.083 914.681 248.95C914.681 250.65 914.398 252.167 913.831 253.5C913.298 254.833 912.614 256.067 911.781 257.2C910.981 258.3 910.098 259.35 909.131 260.35C908.198 261.317 907.314 262.317 906.481 263.35C905.681 264.383 904.998 265.467 904.431 266.6C903.898 267.733 903.631 269.017 903.631 270.45V272.45C903.631 273.35 903.198 273.8 902.331 273.8H899.181C898.314 273.8 897.881 273.35 897.881 272.45V269.4C897.881 267.867 898.148 266.467 898.681 265.2C899.248 263.933 899.931 262.767 900.731 261.7C901.564 260.6 902.448 259.567 903.381 258.6C904.348 257.6 905.231 256.617 906.031 255.65C906.864 254.65 907.548 253.633 908.081 252.6C908.648 251.567 908.931 250.45 908.931 249.25C908.931 244.55 906.381 242.2 901.281 242.2C896.181 242.2 893.631 244.733 893.631 249.8V250.8C893.631 251.7 893.198 252.15 892.331 252.15H889.181C888.314 252.15 887.881 251.7 887.881 250.8V249.8Z" fill="white"/>
<defs>
<filter id="filter0_d_1_3922" x="273" y="152" width="893" height="728" filterUnits="userSpaceOnUse" color-interpolation-filters="sRGB">
<feFlood flood-opacity="0" result="BackgroundImageFix"/>
<feColorMatrix in="SourceAlpha" type="matrix" values="0 0 0 0 0 0 0 0 0 0 0 0 0 0 0 0 0 0 127 0" result="hardAlpha"/>
<feOffset dy="4"/>
<feGaussianBlur stdDeviation="2"/>
<feComposite in2="hardAlpha" operator="out"/>
<feColorMatrix type="matrix" values="0 0 0 0 0 0 0 0 0 0 0 0 0 0 0 0 0 0 0.25 0"/>
<feBlend mode="normal" in2="BackgroundImageFix" result="effect1_dropShadow_1_3922"/>
<feBlend mode="normal" in="SourceGraphic" in2="effect1_dropShadow_1_3922" result="shape"/>
</filter>
<linearGradient id="paint0_linear_1_3922" x1="298.5" y1="2.17638e-06" x2="769.5" y2="994.5" gradientUnits="userSpaceOnUse">
<stop stop-color="#030056"/>
<stop offset="0.964433" stop-color="#462855"/>
</linearGradient>
</defs>
</svg>
